<mxfile host="app.diagrams.net" agent="Mozilla/5.0 (Windows NT 10.0; Win64; x64) AppleWebKit/537.36 (KHTML, like Gecko) Chrome/131.0.0.0 Safari/537.36" version="26.0.2">
  <diagram name="페이지-1" id="1H9Ihu-jfRLGihztAuGs">
    <mxGraphModel dx="1195" dy="615" grid="1" gridSize="10" guides="1" tooltips="1" connect="1" arrows="1" fold="1" page="1" pageScale="1" pageWidth="827" pageHeight="1169" math="0" shadow="0">
      <root>
        <mxCell id="0" />
        <mxCell id="1" parent="0" />
        <mxCell id="OI3G9i4YLYWkQmrVw_ow-1" value="" style="rounded=1;whiteSpace=wrap;html=1;" vertex="1" parent="1">
          <mxGeometry x="90" y="200" width="120" height="60" as="geometry" />
        </mxCell>
        <mxCell id="OI3G9i4YLYWkQmrVw_ow-2" value="" style="shape=image;verticalLabelPosition=bottom;labelBackgroundColor=default;verticalAlign=top;aspect=fixed;imageAspect=0;image=data:image/png,iVBORw0KGgoAAAANSUhEUgAAAZAAAAGQCAYAAACAvzbMAAAAAXNSR0IArs4c6QAAIABJREFUeF7sXQd0FcUa/hPSSEIaCb13EQREUHwWUKyoPBUVURGw8rD3gr2giAoI9oINsStiV+yIFekgLQRCCem97zuzO+Wf2b13594EBJmc4wHJ7O7MNzN/LxFgfgwCBgGDgEHAIBAGAhFhPGMeMQgYBAwCBgGDABgGYg6BQcAgYBAwCISFgGEgYcFmHjIIGAQMAgYBw0DMGTAIGAQMAgaBsBAwDCQs2MxDBgGDgEHAIGAYiDkDBgGDgEHAIBAWAoaBhAWbecggYBAwCBgEDAMxZ8AgYBAwCBgEwkLAMJCwYDMPGQQMAgYBg4BhIOYMGAQMAgYBg0BYCBgGEhZs5iGDgEHAIGAQMAzEnAGDgEHAIGAQCAsBw0DCgs08ZBAwCBgEDAKGgZgzYBAwCBgEDAJhIWAYSFiwmYcMAgYBg4BBwDAQcwYMAgYBg4BBICwEDAMJCzbzkEHAIGAQMAgYBmLOgEHAIGAQMAiEhYBhIGHBZh4yCBgEDAIGAcNAzBkwCBgEDAIGgbAQMAwkLNjMQwYBg4BBwCBgGIg5AwYBg4BBwCAQFgKGgYQFm3nIIGAQMAgYBAwDMWfAIGAQMAgYBMJCwDCQsGAzDxkEDAIGAYOAYSDmDBgEDAIGAYNAWAgYBhIWbOYhg4BBwCBgEDAMxJwBg4BBwCBgEAgLAcNAwoLNPGQQMAgYBAwChoGYM2AQMAgYBAwCYSFgGEhYsJmHDAIGAYOAQcAwEHMGDAIGAYOAQSAsBAwDCQs285BBwCBgEDAIGAZizoBBwCBgEDAIhIWAYSBhwWYeMggYBAwCBgHDQMwZMAgYBAwCBoGwEDAMJCzYzEMGAYOAQcAgYBiIOQMGAYOAQcAgEBYChoGEBZt5yCBgEDAIGAQMAzFnwCBgEDAIGATCQsAwkLBgMw8ZBAwCBgGDgGEg5gwYBAwCBgGDQFgIGAYSFmzmIYOAQcAgYBAwDMScAYOAQcAgYBAICwHDQMKCzTxkEDAIGAQMAoaBmDNgEDAIGAQMAmEhYBhIWLCZhwwCBgGDgEHAMBBzBgwCBgGDgEEgLAQMAwkLNvOQQcAgYBAwCBgGYs6AQcAgYBAwCISFgGEgYcFmHjIIGAQMAgYBw0DMGTAIGAQMAgaBsBAwDCQs2MxDBgGDgEHAIGAYiDkDBgGDgEHAIBAWAoaBhAWbecggYBAwCBgEDAMxZ8AgYBAwCBgEwkLAMJCwYDMPGQQMAgYBg4BhIOYMGAQMAgYBg0BYCBgGEhZs5iGDgEHAIGAQMAzEnAGDgILAvPtzrP7DE6FN9xgAy4Jt62pg6ddlcM7kDHNfzGkxCCAEzIUwx8EggBD44a1C6z+jkiAiQr4almXBondK4Iizk82dMSfGIEARMJdhHzsKb03dZiU1j4LSwjoYdX1rs3+NuH/fv1loHXl2ctA3/vhWMRx5jmEijQg7fDq7xEpIjoDS/Ho4+aokc6YbE9zd/C6zWbsZ4MZ6/bwp2dYZ17aC6NhI/sqK0jpY8GQOnH1zG7OPDQT63Ud2WWfckO77FqKJfPBoPpxxY7rB3Bet4AM+nllsHTMhAeISxJmurbbgi6dKYcQ1hpE0EN498ri5BHsE5oZ9ZP6TO6xTLm/hMquwt/70QQEccXqa2cswYX7++u2bxj7QohNmzsFeVVNVD6/evivzokdbdQ7zk/v9Y398XG4dfHJTTxwIk/5mTjkcOyHRnOm9/KSYDdrLN+i5GzOtCVM6QGST4Fu1eH4BDBlpmEg421m0q8ZKSo8K6dHivFpITo829yck1JzBSz4rt/qf4M082Ovq6y14574SOOduYy4MA+I99oi5AHsM6vA+VJRbY/s8dH5+WVAIh52aavZUByw6ZsuaSqtdz9gQnhBDs9dWQbtecQbvEND76/Nyq9/xwZkHex3xiTRr7iM5hfBtM7TxETCHv/ExbbQ3rvuz1Oo2ICGk9/32SSEMHmGYiA5oK74vtQ48MjR81feu/L4c+hydYO6RBuBLv6ywDhoepzFSDNm8rBo69Ys1+IaE2p4bbDZmz2Ed0pe+eSPXGjq6eUjPsMG/f1YIg04yTCQYeEu+KrH6H5sYFr7qQ0u/LoX+w5uZuxQEzeULK6w+w0JjHux1v7xXAYedGW/wbZTT2rgvMZvSuHg2yttevjPLuuDudgGd5jofWb24FHoPMUTNC6s/Pi+2Dj6+mQ6M2mOWfFEKB59g8PYCbP3vlVbXgeGZCcn7iFP9w6klcPotxh+ifSD30EDDQPYQ0KF8pryk1mqa2CSURzzH7thUBa27GBs9Bue3T4qtQ05qXObB3v/HJ6VwyAjDRBgez0zKvfD0m5LnZHTQ8+EFO/CVpfUwd3Lh9ItmNL+2wRfDvKDREDAMpNGgbJwXbd9YYbXqHJ6q7zWD0sJaeOP+bZmXPtpxvw85/WV+kTX41KTG2agAb/l1QQkceqrJYXjjjnzrtOuTIT5Z5Hg0FPhdm2uhRScT+dZQHBvzecNAGhPNBr5rycJCq/+w4JnQ4XyitqYePpy5E0bdsP8mHP7+WbE18ITQNI/6OsuG2y+EWt2TPz8vhYEn7r+ayCeziqzjLm0GUbuB1q/+oQp6H2W06nDowO54xjCQ3YFqGO+c/+R269SJrcJ4Uv+R3z4thMEn73/O9Y1Ly63OB+mFjjI0id39oyfyASyAU69KC9kflbmsEjr3a7rf3a+lX5VbBx0bGtb6J9gZ+c2cMjhmvEkyDBW33TF+vzvguwPEhr7z2Rs3WROmdIQmeyDkPX97Nbzz6I6/Lnu044CGzntfeD4vu9pKaxMd8lQ/fy4ffv+kFCAC4JCTE+GEi9NCfkf+thp4e0r+NZfPajUj5If3sQfmTs63TprUDFJaNdzf4bd0ohm+c79JMvTDaU/83jCQPYGyzzdKCmqsxBT9i7f2t1LI2VwFR44KL8yXXMDv386HYef+e+s5vXbXduvMGzIgLoxghG/nFsJPbxfbu0aq8hJt5D9nJcHQMSkhn5bKsnp4f1oujLm75b/2rv38Xqk1eGQ8REaGt8Tf5pdDevso6DwgRhvfssJ6SEzdAxKX9oz2z4Hh7fj+idVuWXXWmnKrfU99lT9/RzU8eVUmVJTWw6GnpMIpl7UI2UbPFrJtfSV8MCPnmkmzOv6rJOTv5hVYR4xKDguXxR8Uw9cvF7r2mlR3P+bCFDhsZOhOeMKwf3qnBI4a/e8KQ335xjzrhInNoGXn0DU8AjApV/LNS2Ww9MtKiE2IgPOnpEByC/3ow+3ra6FN993gaNktN/3f+VLDQP7Bff3ts3zrkBNStWdAivg9c/1m2L6xilhWiHkeeg5OgNG3tIWYuPCiXcgl/uurYhh4Qso+fxaevyG74NQr01NadNCXZDH4JJfj46fybGBtzQMsiCBIM7AB4OT/pcGA48JLQNy1uQY+np0P4x9ptc9jvXxhuXXg0XEQEabWUVNpwYKZxbDpz2obY3KWW3RqAufcmwLRMfrwrPimEvoes//5mrSJxm4eqL9Tu3ki+9vrP5i1zRo5qXVIy3572jZYurDYvmxs48jf23aPg7F3t4PEVH0zmPrh6sp6+OGdfBh+wb7ZdW/R+4XWoacmhaV1ECx+/6QEPns+HyIshzHbjMPjhxDMEy5OgYFh5pIQbeTXBaUw5L/7Zqjvj2+WWINOS4CYBgRCEfPTB1OLYOfGWslMSP6n95FxcOKk0KLlFr5YBsdeZJzqIRGTRhpsGEgjARnKa565ftOmix7q2KlJlD78P8/PhwVP59h6B5PY8DdTW0QDyV5v2Sn8jF/yvqLcGlj4eh6ccc2+0azqrYd2WMeOTYO01uGZUciaF75aAIveKxaah0VUEIGugzfVRqhfZMgZzWDY+aH7RNhb87fXwrevFsGZN+8bfqhPnyq0/nN2IjRL0zcxed2J3Kxa+OCRIijeVU+6BYNo/OioeUTzG3phAgw4Ud+sW1drwbsPFMM5d+/7WnQodGRvGKtPwfaG2f5L5lCcX2M1C0FbyFxZDs/fvBmserpd9ObhzSNSM1H9T7m8JRxyYviEjUFMEhB/+7QIjhmzdxK49x7daR1xVgpktA/PXEXWSQjPgtl5sPzbMrv3OaNmzGKFtRAvc1bfYQkw4n9pEIogoB7h3K01sOjdEhh5TfO98i7+9HaJ1e+4eEhohITAZQsr4NuXSqGm2mEUzg+yD9K/EzxHTU6Gtr30hQLjVP9niONeeWj/GSj2zFdDdZoTjWD2lZugrKjeJnK2eUXp181mzv79oKMSYeSVrSA2vmHSInlvbY0FK34ogcXzC+dMnNFx/J5BKfBX5j+RYx0xKgVSW+kTF6+3VVfUw9sP58Cmv6qoN4n6OshgJ39Q0Db7V95XpXP/OBh1UzrENA3PB8XmVrCjFha/VwInT/rne7q8fNMua+CIBOh1eFyDmCNbG8H6y2dLYc2iSgdW278kIMbnl/BxsgHxycSpngqJIWg8O9bXQmvjVN+jV9QwkD0I9x9fFlgHD9fXDkgG+XM3bYYtayod8kUYB9b7qalFNWmR/09rHQWjb20Lbbo1XlmU3OxqWLO4DNYsLi28ZFoHfe9/AzGe9+B2q/fhidBjUDzExjeMUJOpFOfWwpsP5MCOTdWcoDkUTWbQjGlg8xVnLIjRtOoaA2fdmg66fVuCwVFVXg/rf6+ENYsrYNQeNG+9etsuq/vgOCD/kbPTWD87N9bAR9OLoWhnHT+/TNAh4dE2a3ZRIUcrad09Gs66MzmkjPaV31VCn6HGqd5Y++f3HsNA/BBqpN/Pf2qbderloTnN35u+HX7/vEDyeQgeIm+dMLsIAZqUkjh+XAYMGZkadox+oOWXFtTC2l/LYN2f5XDubY1bImXWpM0Xtu4SO6fXoQnQ/ZB4qQ98Q7eDMMCPZuUBKc4n+Ta8AKT/xiKyHKVEco4wjzvEJzaBk69IhZ6D4xs6Rf48CWzY8GelzVC2b6yZftmMVo1WSPCZSTkXtugcNadzv1joNigWEpIbrq3ihVv1Fvz5aQV893opWHX4NxxUbrwKTIQioM+wWDj+stCc6t++XAbDxhmneqMdxCAvMgxkD6D87E2brAkPhpZp/svHBfDhrB18dpLywSOFZK0E00CurZAorR5NYeQVLRtVG1Fhqyyvg52bqu0Q452Z1UAYDMlVueSR9p5n7Kmrs16Kaxo5LjYxElIyoqBl51ho1TkWWnSMCUni1N2+2up6+OLFAvjjsxLnERzKRl/CkgZ56C4apzrSXVoJNc0cfEICDB+fClEhhKLqr8GC3C01sDOzBnIya6A4tw6qyi2oKqvPnPBoS1exzOev2fl+bHzkf+MSIyExNRJadIwmxQgho1MUxDbQ5BZszjs21sBXz5XADhZlZXNepD07dirnh/670Eqcf2J7QYYce3Ei9Buu71QnkW7vTSmBs+74d+Xd6J6TPTnOMJA9gHZpUY2VkKRvFti8ynGaE/+D8HcIdd+xYskOdWbaUgVpexx5IBLgsBGpMPzCdIhrBN/IHoCt0T6Rs7ka3n0kB3ZtqXFwk8N/XJoIMa24xlGGozIShwhiN0qEnVV9+vXpkNGhYX6aRgNgD72ImN9+nFcGSz4vdzClODrsQkSxccZh/7ODNcdccBYelRURacHZd6ZAm576eFYU18Pc24uvuXhW6r8qSXYPbaX2ZwwD0YYqvIHbNlRYrbvo+yGK82pg1pUbobSA6P2SToEFNvEbyYAsi9VeGkliWhScfEkLOOjo0DOqw0Pgn3uKRFn9uqAYFr5WAPW1TmMiKQABwcUYg8MP6LVwwy8xG0kLQcFE5BtNYsAufULqaDUkSuufQy+0LxMH+TdzSoBEQwkrn8OsJcxx0BXTQNhJ50xa/XYEJCRHwHlTUkJyqpvy76HtYTijDQMJBzXNZ5Z9X2j1PVK/PDsxszx702bYurbCM0YeMxSbb0imLCZYO+QPGQmEhMfzGQA69o6HYec1h1B7rmsu/R8ftvbXcvjypTzI31aLrCdU0kWES9VGnF+xcR6MBGkijlyNJWumJTrPk40gDmli0up+iL4J5h8HL4QJZC6rgkVvl8G2tTUoc59pec5BxFn9IhyajvHQONyfd050q27RcPZdoTnV/15cBT2HNCDrMQQs9sehhoHspl3//KUd1vHjWob09ncey4Y/vihCGj5T7R252CWXSdYY9nvGVWRGwk0yjHhSM06HA+LgmPPS/zWMhPhfPn8hD0g5dedHJuo2Sh4mExfTpSVMbK0FlzNBlU08nfBsk2joL9N6Oh0UC8PHp9g+nn/Dz6alVfDz22WQ/bdTigRLLU6oOT2zSqSgdIq5hidCE1gYr+oTYR8g5VNI/a1Qfn6aVw5HnJtgaF0ooGmONaBqAhXKsDl3Zlpj7+4QUg+JRfPz4KMnd9g3z75XNK9Nitrl5hVRbINZYXhcveobUTLXXY5ixkh6xcGwMenQfWBCKEvda8bmb6+Bn94rhL++KgWLpMxwzUAx63HtwoORsFxCpIHY77H9JpQZsb8rDMIJAHbMX8zNwogqxzwSoP/wRBhyehKk7oGy57tjc0jezKK3S2HbuhrFxErXz88f/rXQNqQaYx4TVBmH4q6yXzpsXGiZ6iQi7MNpJXD6zcap3thnwjCQxkYUACpKa624BP2wyI3LyuCFWzKh3s40V53leIJCyxA2e0GwmFmLJo14aCzORWbJiI50LSd2NW8TDQOPS4YBw5OhWZq+4383wOj7SjL/9X9WwG8fF8G63yu4FMylXyXUCkf2CEbKxWXpewGd5ZyPCDOVZ5Kh6j/BgQ8RAF0PjoNDTkqELgPiQhI0fEHZDQOIP27FtxWw/JsKKNxRJyLYPAILOLsOsn7G3IOZsxCfRityXhoRCXDW5BRo11vfqU4c/PPuLMoc92jaft/auTGPiGEgjYkmAOzaWmmlt9WvR1WYUw1PXLkRyovqFamZyrNeuYOIUyArgKy1UAuCTVVdUUeSnUVSdxzCChDRBKDnwAQ4+IQUu+Lvnmh2pbsVlaV18NfXJfDrJ8VQsJ0V5JO1Nnv51IzijvBxvqSas0T0lbAYeobvBtJCeNSRXDeL+UOYYwo7lVNbR8HAExPhoGMSIC6h4UmSuhj6jSMBCBv+rILlCytg45JKUUaHaWTKCzBOVEThcox0/IR9SyoIKkW98TBfJhwJRzx7V9NmxKmeCknp+oJawfY6SGsTQgE6P5DM7wPUZzDAhIXAml+LrZ6D9O2zpDz7U9dtgm0baIkHRvWw1UXJ1nUbr+SpOsQJvYAXBhQ+EcF0kGmGfttDcIT4pCbQfUACdBsYb/tK/gnNZNfWalj/ezn8/Xs5ZK2qtOtYCdOSwEA1kThMgbMLWcug5hYnI1ouERPIJyK4NE1h8CCkXodHZWYqU4uMAujQOxa6HtzU1k7S2+lL12EdVo+HiKaRubQKiH+D/FlRIkIxmJ+Dh+ZKhRAR/rQ0u1eQBxNmvMN26TtQXohjNQyUrQ7QonMUnHNPaOXfN/1VDV0GxBrBuZEOjQGykYD89q0c6+izMkJ629wHt8Cy74okEwb3ZfA3USnMvkw4HwuTOGcbue1dMT9zB7xHwUBOOLkzhc6AStnYHMSYV8uO0dBtYCKQPuOtOsVCckbjEjuSCJa/owZI/sampRV2tnvhThKHKxbmmR2uUn3szFUipiT0sL0E1xtTTDQOG6KVeblfxK2tBOsnIvlFaBidFOZK9500Vuo2sCl0OigOMtpHQUrLqLBL1Qc6lCQRcVdWDWxeUQ2ZSyshN6vOiR7jkWjupD51/dxH5DzlKiSmOth11y+Ov+xgF1vlfKvn4bEw4qrQQtJJB8TBI41TPSRiFWCwYSCNgOLch7Ksc29uH9Kbvn1rF3z2Yg5KpHLun9gQObJFXDxP+daVWi35ARSzgaTgSGGrsj9AeFxYbgTjYPIcYuMjIKN9LGR0iIEWHWIhrVWU3Uo2Lj7Szngm9avIf5FREUAK6xF7dFVFPVSTP8vroaKsHvKyq+1Ev9wt1UC0jfpavH7xXdU2zpiaV70qpnOJxEvZoc5WofpGgiIsMRsmNcv1GIWW6H6TKn0LiV7Ol8DZ8GQMKUtDeruTJMX09tF2eDAxecXER9gYxzSNsAs6xjaNgLpacHCusByMK+xsdSAFG/O21kLuFufP6krMLNxamLcmJSf9cZlEgRb7hfjxY39R6rl5OtZxfhNKSPQiWEeOSYBBp4VWQubTJ0rg5Kv2zZ4sIRGa3TzYMJBGALi6qs6KjtG3X6/9rQTm3LGZaudUe8CRV2oKoRTWo2gafAepg5H6MPCyZKLl3U9EliyRqI+iijjtxKoOZXnsn8S3pBlIDC4YwfZQIlx5GR6f99YMGH1HYbteJUiw7CzngCA7DSKQ0vyVpEP+O3SzVD+KDsMKuH8u7u+MxPvHQ4+V9Yupsmq4KIeFAi/mL3xnKpEItn7HXihMX9Lc+ARQDgh9uexDkYPW5TmJHiKcD0UAibCCzv31Q6Rrqy148+4iUvHX0MAG0EADXgPAI48W7qq2ktP1TTi7tlbBrCs32JK3VIZUMS8xsqCGvDjEU+2n4JFljUxamLjb76XfwpsvCZBU+pNIAaelSqtXhp80f9WTYn/UIXMoxwyvH69J9tE4z0mmEmn+ziq8a1N5hUPLErTEjBDBDXQsBKFTorc8zIOyFO5uj4tNV16OfszM8PplrGRmIEv7iG9jcxw+P55mv2BkQTzgO3/UiAv3UxFuOZSrpGas25xHqZ/FQ9zd/USIFjzmgVRIba3vVC/Jq4OkdONUbwgJNAykAehlriy1OvbWz5uoLKuDWVdvsM00/AddEmwy4v4OFC3kykVgd4yb4aU3COM8cxBr9hOR+o4gYu32z0iyO+cHLIgG33/FOCf6QXAaEfwo8igdTlgYtResVnwDz5QxLocJMf+E17aLHATZtKP6KGRLP2KWXvAjwu151JDkH+woemotAcxGOCdFCpVF68djpLPIBAxEwL18NOgAizpXPut3UFWCH4S0IEVlySdLLq7omLzwvjt/b942CkbflxxSyf9tf9dA2567ofJlA+jKvvSoYSBh7tavn+VZg05I0366vt6CV+7OgtW/lHAtn18CRQxmFwTfR/vvKEJFvefO1RSlI9hwNg4/L1F6lhCHVsLlQmaHVpgIk6w5EcIOZUogsB9A1Q5whI4zT2HScCRoZ+WB1i9zKhRkoKxfpUje/gf8JUqUVKbmCoMWWo+Yv/Nxef4BtCOF0GLmwN/ncbI85y87zihuDoHlbgTF7CUxSq9mWQpTC1TokE0x8PzlHUS8wmElrHOwx/n3vFiu8y+0Wja+88Ex8N8bkoD0rtf9WfFNJfQ9xvQQ0cULj9NHOZy3/0uf+WB2tjXyf21CWt1nL+6Ab+btktqm8qAVh7ojewsiZC5CKiRet4Qv255ZVIxjdglAHNm/K9YOibBzBiG3fVXK0Kqmb6kGlU1ccTKdYqGQC0fKorWvxK/4jIR0yikhn1sgrchrMyWCLbgzH+pZykSerFQLytlldOUk5UWYBj21A75PijkvyCkMGDGGzVmSnqq8DBFsr1BntTabVD2B8WXJpoZ8NUp5GPf+s7FqER+xpwg+aeKDRzaFI85NDOl+mh4iIcGF7kB4z+23Tz1z0wbr4gc7hxRSufTbQpg7ZauCmZDROblUzFmymo6vi6rAK/4FxpDQFyXCGWI/Eeyr4PSREyGcdeJmbg4jkqgJnZVif8HRYDgCRyWclOty9OxPOowN/dXNdr3aUSjlSPAGkZpVrbo4TtkdG6vtcFfpxz192dmvqE+eCYlKGpaqYeDv4d8xYs6YvKQhSMyBmuJcxBrHNMjOcqYtSloFxRbPx11iRClCqYimqpOc+8SkqahzoUIPO0SYQ7HJeGjl5J9GXJ0EPYfoJ/SS0PH3pxTDqDtSjFAdAnU3YIUAFhlaVlxjxTfTL/GRvb4Cnrp2A1RXOWVDmP1KmIHwxXM7Drm9VyXYyLzkXHZ35rVselCZDN16SWwMlGzIcos9zGg4AogTKpGwwuZmw8zNJYqGEaA+ladjmREcxbzGckRsQuXRYwI7cbEfRB1LQmRPuCgNug6Qw0LX/1kOX7yQD3nZdl14KQBC1UQa2k8kUGivylDI/wcLA8YlQxz4cSVIyuyVarn2OxH79TJPqfsixsiZ416MDWvF/FtqUVBl/7jvRNLexPn1Yrykodfoe5KhRWf9ABfSpXLe5MLp42c0b7TOjyGSl31uuGEgIWzZjswKq2VH/d4epYW1MHPSeijKpdKrpM47F5ibNNTopICEHdtIhKGbSd9C4veS+lFgi0qIbRy8TUec8fE5CZuRUBaYCYZ9V7YrId3EHRqE+CaTqj2rSUrMis4WaytUMWMWN1XqZ0xMTUgk/04ywY8YlQxHjkqFJtHe16KuxoIf3ymEH98tsvuLYLjYtzih9oZfu58IJ/5KdBL+DseKnWGXVqScMXVO6DyK90pGNn47JA2Iba3ER8W5ZCZT2VzItAkazEA1SXz+3Z7xhvUTadY80i53Ep+kH2JPcmQyOgQ4ACHQiv1lqGEgmju98udCq/dh+r09SKmNZ2/aCJtWlHtFI6I+526irT6ANQxa2YE7nkny2IGHN4OE5CioKKmD1b+U2n/KQrJq/nIkRRqUo9QsQqGVFBtXOCkzN6k8B2lBkmFLNR9JjttgpizO5WT/EG15yqPFKGdgoa6cmdLTLZtPHKaN/bbtesXCaVdk2ImQOj85WdWwYHYeZK+tcmkjjKhLuRhu+Lng4NdPRM1qZ1K9SzNQQ53RQrzWLyWNI8bCHezYN+JhPcWOeFeUmlTNWAgtpH5Vt0PiIC4xAiqKLfj71yqoqaznniFXcUX6XUcLZ/lLLBxar59I217RMGpyckhNvTb8Xk36xBvaqHEZDEgaIH09d4d1zLmh9fZ4d3o2/PppPi0NIQi2Qq2FhEf/Jnk3gvhEyLjBJ6ZaT+2oAAAgAElEQVTCKZe3gpg4IWHV1Vnw19dFsHDuLijYWUtNHEgrwISlEfqJsNfhg+TyTyjJiHZeB5esZV8Qfx/1mwQ1Y6E8AzniivlE1Iq5MrNqmhQJw8akwiEnhha1Y/PNesvur/7tG4VQUVLvQY8dcxFnJIgIY21MNa3hA4HNcV7H1OXEpwxdzpkRpkPMrFRlWIqsQ8EOXhVzg/lqxDyFOSulRRQcflYi9D4yTvId1lRZ8PVLxbBiYaVUBYXPjQeWBHCocyCF1uSEkMvFF/sNj4Phl+jXqCNv+OWDcjjsdFPuxI88Ggbig9CrD2Ra59/W0Q9H6feLPsyDD2ZncxuOdxQUJepSLQhmp0ad8xyRlhaVY/4SgKNGNYeTL2kVcF5EA/r98wJYODcXSvKdirWq295DsHT3WtfsJyIqzTrrEsRK9XdgoV1lJM6zQuNBZiqcXEJXHXz+splNMOYIiIoFGDIyBf5zRkpIOQNeYJOE0EXvF8HiD4uhlvi5yKR2Uz8Rpt0EO4xcG2CwKwqe21/D3XL2a4UGokj8mLNL9bJoT3O0J2z/EtOawOFnJkDfY+KDagDfvFICvy8ok76PzYyu86/2V5eEIoekKRZgOGZCIvQ/PrSukB/PKIFTrjHlToKet5Ao4344uLqyzoqO1behrv+rFJ6/ZaPU2wPfPXG4/bsN8mB+fGEBoNfgRCANqyI1Yt1rquvh108K4Kf386Ewx2EkzPfCy25jTYQTHLdswfI1HAlRMDnu6EdERA7LdH4hRwP7r5+H/QZhHpzoMdue8KarLh0br4OPbwZHn5sKzVL1AyF0jj1h0t+/WQhLvnQaWgX0v1BOzk1QXnkYDh+V56+EQOM5uU2MUttEPhRrGfgZ6VtKFJdn2DHafy+mRkqsDzo1AfodF2/X8PL7Idrcuw8XQOYS0haXhu0GWb+OOUv4wejZiwQYdXsytD9Qz0xJnrLLndxVBOc/ZMqdBNpD/9312/1/8e9DLVOSv70KZl6xHsqK61Dkq/smSI5DKf+DORGErsClWfqa9HYxcMXMrhBKwyqyRSRMceWiEvjh3TzYupaUj1f0EbVqBCNieH4Sg6ADmMNByhlgZhNnjJednzEUbM5SzVqMOPGS7Lxbrzi2XuYg53vOt8m0omMB+h+XBIedlgJprfSjcsI52qQz4i/zi2HpwlIgJhrP8F1E3byixjBemNEILc+DuSMfCM/ZoFFX3tFQIirLVaId2VFVM5qk0Chh0K27R8GgUxOhx2DZVKWDI9HkXr01Dwq3O31xeMaM2s5G2LfkRFPssWcCBzedOlpSHOkh8kAqkErHuj+m3ElwpAwDCYBPqGVKqiqcMiU7M1kvbvXFcudAkVRHb6sk+XkU5SAXID4SJs3oYle+bchP1upy+Hl+PqxcVGpLWao029j9RCgpd+WKOeYSljbH1ux9JIVpRgkRVoBwtCSHgRFJ+NARyXDwCUnQNFGfaDQEW/YsaXr15xel8OvHxUCIkAihdVcWlvBXckPY71gujV+Ir+qfkHww/EMO7hwreQKM9dLKBk66uFdsFnm+SYwFPQY1hYNPToC2PfSley+MSYj067fl29WDvYI8qFNJaL8e+UK4WoPjDqHMiB6r9A5N4Nx7UyE6Tp/0mXIngW+EPoqNcav2kXeEWqaEXNJX7tkMKxcVO+cVFbKSk+io1M7KfVDajUNhRWgUveT27XXk2LH3dIQDDg3NGRgMclKba9n3xbDkqyLYvKpij/UTwfgITURgIzNX4RNhY6WMdhRuZrsfmgB0Ozge+h+TBL2G/POdFInmt+bnclj2bSlsWFIBVt2e6SciGA+64sgvwiKbOHMX8MvB3FKpG1HJuV2vGOg7tCn0Orxpg/1I+Ixu+KMS3ptaCGDh88/q9GC/ln9tM4cTyg52cte6Do6B065NCqmV8MrvKqHPUFPuxC0W7yNEfU9Nc/5TW61TL28b0uc+f3kHfPXaTucZyg28jAxM6uM1gNQoVZmaSir6SeNbwtDRoTWsCmUReduqYdl3xXatLmLikhifYjbAZgzVH6JmrVN2SiVY734iPEYgQKIhom2ibpaSSNjxwDg4aGgz6P2fRIhvtme1DV2cSXj1qkXlsPK7MshaTUKA6ZMBIrS83uupYaBy9ZxxsKRBlGyopPnw13vmgCgHmIxp1T0KehziMA3Sind3/Sx+rxR+nOc41fn5QRFXUoy6RxthfA+dFwhHP1vWYWfGw+Fn6RdCJa/57tVSGDq2mRG60cYbMBAYz9yyzrr4ga5azmn22LLvC+HV+zaLiCt6mXEFH3dCFbsNjDQqnQYxh4EI6Hd0Moy5LbSGVQ253MQhvObXUli9uAQ2LS+H6gpSx4qFRu4d/UTikyOhS7946No/3tY4kpo3PkHbleVUTdbNDwkF8+K8WlsjIZ0AM5dVQllxvaibJe2/2yGPc0DUHAxfpuPi/s4T3FeDIshIifQOB8ZCt0Fx0G1gHCSk7DnGPP/xQlj7M2v1rPjRcBIPpWByrotcP0v4kRzzJpM9TrkmCXocpm8OJgVRP3i4GM68zZQ7EYJKKKf+Xz62vKTWCsVWTsqUzL5mne0slZ2LzIUrvAm41Ah3YGPrguQ/F79o0y0O/vdYFwglEqwxt4lcmpzNVZC5otw2c5H/inJqJNMAlxL5qZLXz8RIbsdnYZhYfJFMUXLgAXkurU0UtOocB+17xdlMo2Un/YsfKh6VZfXw7Rv58NvHjkny0FOS4Ohz0+wOgLvjhzDnXZtrYNOySti6tgpyMqshb3stRNhmHCaF7/5+IsnpUdC2Vwy0PyAGSHJlRoeokKraNiY25E7NvSMfcjJr5EAEpWIDF8XC6CdCwrlH35sKLTrqCx/kbMybXPTB+OlppzfmevfVdxkNhO5czpYKK6OdfpmSkoIamHHFOpuYitBDCieKAlGZhct5jpym3BdCo40SU5rAVbO6QUqLhjknG/twEt8JycbeubnKZi652dVQlFsLpQV1UF5cZ5sMmGlLKnRIJyIfOmrrjoyApLQoW5No1jwKCDGzCxp2joUWHWOlZMnGXg8n0pYFS74sga9fzYfyojoplpZI38dckAoDhjcLyXYe7lxrquohZ3MN7Mx0Wv2W5NbZznjyX2lhnR0qTFUHrrkE+xaTwps2i7TxbZbWxO6fQWp/2W1y20XvNgYZLgakZ/srN+dCRQnWehu3n0hSeiSc92Bo5U4KttcRgcbQTlytINxN/jc8t+b3IqvnwCTtpdTW1MPTN22EzOWlzh2mlB8nq8nZsHK/azXGCicaOu8DiIwEuPSRLtC5j76dlhCdJlERIVUK1l605sDaGgtKC2qhrKgOSA4KifKqra53tDQLIDomAqJiIp0/YyOAtAJu2qwJJKY2Ccl0qDkd7WGbllfAly/lwbZ1VYJBMBLBgx0ioHXXGDhufBp06htaUpr2RDQGkrwJwkRIBryDrwU19E/yd9ILg+BLanpFxxK8I+x6UEQgCVTnS+OzDR5CAgpIv3YyJ92fraur4c1786G+TpTYkdxf7MJwoU3cR9c3UKg5+Z0T7hwB7Q4IvdxJ5rJq6NwvhIXoLngfG6e/k/vYwnSn++7MLOuMK0PzL7z1aBb8+lmBK9fL/U0qXfM+5aozT5hquJ+EOtaPGZ0BJ04InGmufsuOBLsrC3ZsroIjz2wOg05I/cfMXrrY7w3jNi4th+/mFUDWykop+dmmS2yHeQak8FV17BMHR49Ohc4H/XOMZG/AT2cORHhYvrAcfv2oFFp0jIbTb0oNSYv7fm4J/PIBzVRXy9d4Zh46HJ8XdZQmSe8cK/9Ppei+x8TBcZeGFuG48KVSOHbC/u1U3+8ZSHFetdUsTT+57If3d8GHdpkS+oM85JLlHjv6WEITUvmUiuDsZTb7aBIdCXe/cwDENtV3Wn4+Zyd8My+X13BITG4CQ0Y2hyGnpu21UUk6xGd3jSHl2Qnj2LKmskH9RDr0ioOjRqe4yr/vrnnvS+8l5dH//KwMfv+0HCpJkAD9GXJmIhw5Wp9YV1fWw6wJu4CU5xHaupIIizURxBwcRoLKAUn3Uvw7sSIMG5cIA07UFwjKCuuJ5rxf09D9evFUjZUz6YLc0C1/l8PMK/6GelKqAunRrtBKbD1XDqwzVmonIdnayfB2PePgypndtWnFsu+L4PUHtnheFFJosd+wZBh8Uhq076l/ObQ/vg8NJIRoxQ8kua/IbhJl/ygl6r0yw+1h2PGPiw1S522rrtEw6KRk6HNUwn6v+W1fXw1/fVkOq3+sgNpqZipy4GZ35b/Xp0LPIfrnkWSp79hA2iJQrZ76DlmEuRSkEmY/kcgmETDmgRRoGUIPkTnXFXw7/vG0YfvQNWjUqe7XDGTGFWuuvuqJntN1ESWVbufctQlWLy6WNRB2rOkp9gQV2V/VQm/0avFsqY4HJsCkx7tqTauitA4eHLPGtoHz6E+1rAOVyFp3jYNDT06D/sOSIDZeX7vRmshePIg4/H//tAiWflMCVWWEFTilTrijn80dJXYy+Vbt567WjcJhtGQsKTHTb1giDDyxGWS037uCH3bnFlVV1MOqHyrgry/LIGcTq7mGrwlq9AUAMbER8L9nWkCsZmTb65PzgGSE45wVtZ9OQ/uJkH7qI69PCsmH+OZdhSSSa7+lo/vtwtnRrqmqs4hTV/eHOIafvWWDnR8h9aMQFMnDN4KNW9Q+yxzvvISJEIYTUqJg8hsHQBNN7fjFyZmw9jfq0PdQ17HWYzuy4yKg1+BmcNBRSdBzULM9EuGki29jjSspqIU1P5fCsu9KIGsV6tvB8KZMVoRfiwxxe7dQXLZfPxEZcnGlOhwYB32OTLAz4okD+9/2Q4I2NvxRBat/KocNSyqhtkoOKOFIuI+/nVdy5q1pWpAQ5/vsS3OgskT0YvY2ZSm9Qri7w7+fSLveMXDmrcl2wIHuDwkYiY7RqGiq+8J9cJw+Wvvg4nSmvOSbfKv/0FSdoXxMZXkdPHX9eiB5IHL5UDLEOeQ4MkuywbIMYa5mqz3Dnc+cd3sH6Hd0ita8tm+qhJkT19tEDyc348ZU7A7bxA6VUiSFBg84NAn6HJkE3fon2BFR++pP0a4aWLWo1P5vy+pKsCxcLh5Jw2j9kmmKbh/LNmPmLFELSsr24UCKrH3nBVKpFZq51qF3HBwwJB4OGJIASen6eQd7214Qv0bmsipYs7gCSNmRmkq5VpYdwO3XTyQyAsZPSyed/7SWR0xhC2YWuca6+qHQwy8KJ4ikEU+HOr0ILbtGw9l3JANpzhbKz9qfq6DX4SEU1Qrl5fvI2P2egZB92plVYbVor58DQp4pzquB6f/7G4ryiFqNfpgDTymfwAm7XLdDlFlAoaLkbelto+H653pqd1J785Et8OdXhbRon38/Ee7CQY79iEiAdj3iofvBCdD94ERof0BTbS3onzjvxHyXuaICNq+osDXC7RuqaAVesX4pH8XmnmK3PARj5NvCdZcwY1arCyOOLIV0s3bFMtMhggWxsXfqGwcd+zSFDr1j93ihx1D2ikj/2X9Xw6a/KmHT0irYvr5GapLFfQ/K+XWVXGcfjYiAPkfHwYgr9IQ20kb4xetzoWC7YxbDxTJd1TkR/rr9RBJTI0m59pCz7Au21UFaW5MLYhgIPdg7Msutlh31nXrksS1ry2HWteuAHHL5wLpDCD0JGaoUqsi2NlUacWkrOHqUXv2rgp3V8MhFdC6MTmIPI3Ng0vViMw2KsBeyeQTY6nzb7nHQrkdT2wHfrmdTSGv1z9j1Se5N7haSvFgN2X9XwqYVFbBzE2EYTKeSyaJwA6HWpx7MQxAltgPYpihnSgXqp4FlAlEqQ4rJ48SPl1rn9asAWnaOhY4HxkKb7iT7O8ZO6tPpoxEKI9AdW7izFratqwbiCCeMY+ematsR7qDskAvW8dCr26Jox+LNaJs0Abj0iRaQlKGnhf06vwy+fbVE6jLofddEhJaj8Qfup8KYW5NoC869Nw1adtHThBiGeVtrSQKmoZ0mkVC+Vllry6z2PeJ175o9bsnCAnjtwc1SG3NhR6KkGZVZUORRetBpfohi1oqNj4SbX+oFiZrNjz56ehv8+H6+1OtD7SdCKZlEdt0OY5QSqfRjIHPKaBcLpC9JertYyGgXA6kto+05ktDhUPxJKtCk2GBxfi2U5NXafxburOEZ7/nZNXb0Gy41z0ujKFE38hjUuCrMfiI20Ucqm+BDSJtR+75zZcfbjMbZHiqEKPqdAzRvG22beEg2fnKGkzlO/iNd/kIpt6NiTOz2JMuehKCSBmN52TWQv60W8rNrIW9bDVQTqyxNymMl6BuznwhpNHXMhclad6yssA6evzoXSK8QnHzrVf9L9VPp9BM55eokYoLSmgsbRCLBWncLwVES0tv3vcGGiyp7lrWmzGrfMzQm8skL2+DrN3JEGC2ujMUuI8pWF85F2rsCeS6QkGzPbNCJqXDWdXqJjqWFtfDQBWvtiCz2Dcl0ZtNfuZ8GI8mYoEmFvZCWJMi3W7pmMBLiRhzGxJcSFR0JUdFgZ5yTvxN3I8uYtv+ssew2sFXldXbb3dpaT8FRSL+KzWl39xNxxG2hkWDfEe87rgSBszLpXFq3mRtHVzpt3E+mnBEsQLMHcD+RqFgnq5wUOyRaItFWHIydLH9S5oRoxTa+1Zb9d1LDiTAN8qcado4ntTv7iZC5Tny6BcQn6fnZPnmyEFZ8UyHtv6v5lXJ/ua+DbhYX2NgeUGFj8OnxcOToxJAotmEebrgMA/E4Qtnry6w2XfWZCLETP3ndeshcVUb7gaBqoDipyaOstDBt4dbnouw5KWly5RPdbTOSzs/7T2TD4o/yeaNrh/A44rFkRuPZ1XKZFckJz64u4nOSaUiJm8QpL5zYYuKp9O6Q/UI8FtpZJp2fIL64T51cFl7WCLATm+pWvEKyUvUYM1TZlSEFGsit71i7F9qPApl2+ENoozDzkDoN4hYXbC+oXRGfCebAZ223cNVcNWyVh7hSJ7aau0K3U1T9VRzeXudLkvaRlS+cfiIHnxgPx1+sGRiyoRpeuTnPPgZS9WHUedGZPj6/7lARwXjp6iIA2vaMhtF3p4ZUKDJncy207GTMVuoZMQwkAFXelV1ppbfRr/iav6MKpl26FqptdZunvzp/9yCcquNdcB7nN/j3XfsnwGVT9fJC8rZV2b4Qpy83/Tx+H84RoXNjYb6ohYTzhPs+Yh80JpOKwVmJLBNhMV6maam/+j/VT0Qt+igTHncXQRlbb3s/8y3JBTTdV06nPLtgyKLj4r7UT4T0oye+j5SWer6PeXfnQdZK6nyRGLJsEpSc+Aha0UaK5fs4RzQmPhIufCQNkjP0tCDy6YIdtZDW2jAPTwFDR6rdX8eUFtZYCcl6B55g9MdX+fDGw1k8oU+oz7KB3JHeEJ9BoqEgJrJ9feJjXbULK752fxYs/4GFPXq4yCVVQTAsJSlbrjKMEiM8HhcZwrzulzg1sllk7+gngp3Z+Hxjnsn+nc+fsmSpuADdJk/NgO0x9nOwjHblUmEGwZ3TuHkFzkvBGhUTE+gLRO8LhL/Sl16HYUmY4IZV2ImH56T0ZMcEnHyv55A4+O/1enkfW1ZVwdy78qUSM17zcQQtvgEyp5DEG8HgR1yVBAccoafNk1eUF9fD3Dvzp18yI+Pa/ZUOBlu30UCCoDPz6r8fnzi16zWhOIZfezAT/lpYKLiDFNwjnOq41aatCKhaghJI0q1/Ilw6tYvWGbajw67a6Brr0kiww0XRkgIsgFrDVLOB43hVnZvuhHg6A4+M/WDrt+fC/dhI2senV5q/l4+GmbMoXbKpj3gBnr8s7TvPSaYSaf7OO1wZ68wKJ1xO3BcifQsFiWGGFWijhbNYnr+3lovWp5RicZbvvX4vxonXL2PFhCEUBYXhpxs77uEMaNVVL4LvzXvzYPNyt/Yhn0mN+SPGSebf+4imMOIqPQc++RbxIb19XyGMuS/N0MkAB9IA40OS35iaaY2+saMW4SaDSG7CtEtWQ+EuVnZBKeamEC6J1PFIH6yfCMI3aXpX6Nhbr7z70zdshE3Ly7hUplqj+IIQlccMhhFsWYtClJxOEZvv1TL1cldGxQ/jgSiuL6b6awLOH3srEH9iMEs1kug3pXdx5TD4VXDyD5RFOyKw/SP0OCYOsH9Ffhgfn4OXU92TMWP/CTYKShsoSyBYI5CgR5pLsEPuqbVIXF8O83VW7zDejn1iYcw9euHoW9dWw+u351JQHcy9oq7EXJ0FcJOjN/yQlN4Exk1rHlL/9s+eKoaT/pdsaGSQg2HA0WANP83PsQ4/Ve8CkNeRNrcv35spIj+dZF3uweUmLI8ILXbxvPqJ9BiYCBdP0dNCln5XCHMf3OqsDknM3B2Bs9Ylmwx1WkqBk+75s9difmiTV5SFjPkhXr8KjChLwYgxp2re80f5CM73mZffmQDDV8pbQF4le14B1s8ZV5D1S/NHlZYdrJFkrBB0zwgnBxiZpqtMDYcRK/kY8vpRoISat4G/EWBebBKBCLZehBbKgaLfIaarXpqFE9+8L8/OdJey2V1MBIsAspOd44HYOnnZyOtToMeh+iG7S7+sgP7Hxxv66EMfDUAaDIQMCTVH5Omb1sP6P0u5aUNEHPEqfh41s9TJUOkK9RO5alZ30AkzJk2c7h+zxu4QyMJdaRiWuFqy+iNXphWBUIozXjwk++PlS81YAZMO8frlUh94pOK3l2xgnDoj0oAW4PF5NWJM/a73/CVQ+LeETqh8k24Zfso1FjE49zcDH0CJYAvuzB/wLOWhqmooIksIJ+5Ju/MokH8BTVHy9fgSlwiIS4yAK59vrdXIiiQvvnIL1T6YZIJyfGTmwBivYpqUWt46d61jv1g4e7Je5jt5K8m2b9Pd5HrokEbDQHRQomMqy2st3R4dOzdXwrRL10B9HZPekaODURh0SZhPxOV4pySM0aCBw1Ng9E0dtGb94extsOjDPDQB/Bi9eNj/opizZEe/N4l03ui+xIGlaiH9q1qJzM98MsgpUDK5dzM3BrF3hokq+QdL+sORViik2P6k4+hAf3XpL6o/iHEmmyB7+o+cf3cTTbqHivmIjZOyw8XWyH3FA/psgqxfSXhkJ8mVU8L3xcHrkBGJcNwEvdDdBTMLYMX35fZcsclM9Rfay3K1RBCaCDZnRTYBGDct3W7fq/NDSv6/cmPh3ZfMan6Pzvj9fYxhICGcgFD9IfOfzobv39lFI64Ugo3sOy7TADZfK+Yl0gL29jcOgIQk/wuxbX0FzJi0nptrOMFGkUDMZOMQHrfnV5jb5Mhe7K9gYcAs50Eke2H7tcpk6NFDiY0qE8V+EJWxcn8BsrXjZDuW+8JDlKnAKsekOZsvoqyc9XvPn47lCqQ6f4aP9/N+/URUJsJZIYq44szEw6SF38/fpWTQ45wSySciKVXB148Zh0PI5SoK/PfU/3HRoy2hRSf/UiGkCsHsS3baLW8xb5QYCd4rFACAIxed6yLmNPi0BBh6gX67auP3CIEguoyvoT27X45esajQOnCIXiQHqdr70IWroKSgTpirVFMLvQiO9CokWRe4lJGQy3Lyxa1h6Nl6PpnpE9fB9o2VSFGQNQkcBml/3oOJyIRdWYA0f0aQBRlR4stEyReVENuPyGK1p0aCvfaSFMo0BMop2B8uTUXVpBxGIPvIlbokmFjxyB4Wn4BkMFdgQZDCi3QaUiRUgBBficlJkXPYiR8ksRFNUTVVucJgGZGmc3EzNvEdztDYditaUasuMTD+kRZadOKXD0vhm1dJ6Lm3ux8LWewzMh8V55L51EihxItmpEOsZpXd9b9XQvdBTY1QrbVjQqAKYbgZShCoKKu14jQbMi3+JBfeeWwr8oWIqJxw+4k0bx0DN7/cS6uv9E8f5ML8p7bjCiZOdq9NCL2JtlTYS6nPxSt7KJoRNxG5TDkKJUfmLubIdpgWM0sIHQFLu8w0w5pBqZoRWwrTgtSaWVjRYZI44qrSwRbESvirXJ0L6foFzWz8fiJi/QIbSVO0t89tyxEaFaWFHjzTO8BAnE1HmJGz7rG5zaUZqKHOAHbW+cCT/MuFkG89M2knFO5k/jo1rN1t/sURa6rTn83txMuT4aBj9SpKkHpbcQmaDXgMGeQIGG4bxmF4Z/pm68yr9fwQpIrsA+evsgsEYp+CY56RHBB0Jnr9RC5+oBP0HOSvmhfl1sADY9a4v+UygwhyymX4ID4RlweFnSQkhdv5E0FrQWH6h15AwcG6jhNphUV8mXDig8znxpwSLFIK55Jwv4O8Eky0xfzlayK2zSMnxZ4i0ySpH4MybFXDEgQaaU1e/USQT4BpiIFMXnz+tJKAV8XcgPNnB5ROJ5B/Bn/Dq58KyxkhzvPEVP+M741LKuHtB0gRUCefRorA4iG6Yv9dfhePO0yKTl42O0O7HcKXzxfD8ZeYkN1QyaFhIKEiRseHEpX17ds58NEz2XINIqqqu3yhmv1ESLOp8yfr5ac8ccV62PI3LUonVdfF/0MdtjbhCa+fiA2NooG4zfCYfAmSypmrFPvrjMVhvpJ0zRiEEuXEE/884tzUKChBiAV7xz4R7Idh6xMENNj8hSMLTc/lzHbeKRI7hG8ncD8RrIWolXJt+Pj+oQRIxNiYpRAzCFxri/NqrIEEc+ijO8Tm37prNIyb2lLrdn3wWD6s+YmdT4ckBesnwgQJ1azFoCT/PnRsIgw6xV/7Ic/sMBV2tfbJa5BhIGFCN+vqtS9Nmt5jnM7jVRV1cN+5K4F0c2NmI2aLto1JAUwMmLmohCy6aSTc8/aBEB3r30Xt67k58PmcnXL6BepHoUZMUT4gSkMg4iFpUdy/4F6ATKgxyXXIg7p+d00j99FkWgjDghFSbs6in3GelNQ7TvsFHdXVjvbyfiJ8s+STKIX4uuEXUU5cO1JOsgofzm9Rh6oMCyLg6POS4PAz/TEFR8MAACAASURBVDXkmioLZk7YzjsbSsxN9QkpjDZQlBoJHb78qRbarZrfuDMfxtzX3NBCHWLmcUzCeMw8QhBY+n2+ddCRevHln83ZDl++tkMQZUTsmDlLIqKUMDhCtohmwkxl7J2doO+R/g79HZsq4bHL1tEvMsmWOWC9HMbCrCOikoSUzDgRtlrJBAtL87KZXuRiKEYwdRqMBwjnCD904qazgo9yiXrup6GMRC4zgrwWjj3II5IIj9n3+ongWASVkUhl6JkvTImkkqoGsygwDy0JUwGcH0LO6yUzWkFGe//oK9Ia9/1HSNVdgjMy69L9V81oksYeYP5DzkyEI0c30yJSaxdXkiRHwzy00HIPMsCFCRx7rK623orU8L2VFtXC/WNWQk0Va44jCDmW6hVnBbf7y2Grztf7DU2B82/XM2M9NHYtkK6FctQsogpIm1A1H4eX0aOCXoDnJOg9qhZL/pFSc/44j7NxGe+olqCIviI0TNIphEZmf8QBBJXOx8zNmRuqLoxMM9TqTlkNX4XrVARaP3YbcJwkADmwuOiKqK2lvMDRptDZ2A39RJwgCV4xX1qrdwyUqK4cLMSZrT+lZROY+GRrrZuFzVdoE4TZku6/17wYVsK5GAHRMQATn24JTZv5a+akDcML1+Rec+msFjO0JmsGue+FwaRhCPz6ea416PjmWi9574kt8NOHuUgLkR2GTNiWyFiQfiIxcZFw9zt6Zqz5T26DHz8gWb7Ur4Cq5orIUEpZmUqkODAlMxo37Jt+Ilgjk0x8mHExPof9CpTyeYXSsgMlosqEX4CdD8lvxJiW1PcF5aagb7maYVFuy82KDewnMvjURBg+3l8zJ+arGeO3QS3uTIy6QzOGgiMG2d+52ZcKDswsevBJ8TB8gr9WTh5b8W0F9B1mypVoEa8Ag4wG0hD06LN1dfUW6Xfg95O9vhweu/xvZAuigjMNgZRi4Kl5xR6BPNGqaXrsXZ2g7xH+F2bFT0Xwyj2k9S41FdDJSuYzfhnZvJw/ZbOB0uMWhfkyIZ8/jRQcOeJIRcrbX8H9GJyhBcgnx05/KWcDz59Tbq6wYCItzF7uuWCCzaPBPDQyV74MX//+1U9k1C3p0GOwf8n0tYvL4b1H8mV/GN8U+Yx4+nToEBxSPP7RDGjR0d90ZtVb8OJ1uXMuntFivN+9Nb8PjIA/1TPo+SLw58J8a8Awf4mLvGjKhasgN9spFmf/8B2QNQOJjGGPNOpqSB4//NTmcMZV7XznWFZUC/ectQp9VJ6A+AQuJuRMEM9F0kIQw3F8NcIs4jl/ulg1IlcAwTKIFeKB+1EoUVmC3uCIIy6OO/PH/hVmjmMhwcqcpBwQPg2ZqWCC5cpBcIkHSokNJWmR7T/2IfCzoRBI1byFUeIzRA5tbqdSpABp/mICIkqQmw3ZzshmtWDrJ09c83IbiG/mH7772dMFsOTLMnoNxP7x0GOVQUiakrMorL2ltY6CS2bqJS6u/qkCeh9htA9fwuEzwDCQhiIIADMmrb7wqlm95ui8ijjTv3h1O/UpIPgVLYMzF4kWUmKOMtYz2sXCTS/10vk0PHLRWti1hfRZoA5sr88jaV99KfYrOAqSz/zdrIcSc9NPRNR3cjD8t/QTSW8XBZfO1PN/PHPFDijYXqdEJir5UbIs4GgruHYY0nL/c3YzOOJsPef5q7fmwtiHMgz906IcgQcZABsIIHt86/oyq61GH/Wdmytg6kVrZA0EObAZMWGyPzcfeYvtNome/EZvSE73V9vfeXwr/PJJvqjOy7kUlTQRh0BuEMk57cwL/SjJhkzYxU5azmxspcfdzxzFPNEXu9QzWrJdLlfuYnDIrKT6a1RrmnhWaBfYKsX4o+DrYtXSu0w/ESnxb8DxCXDS5f6dB0vy62DWxdulw4Sz48X5Z70+KOpBqgtfPKOFVtHEnZtqoFUXU223MUifYSCNgSIAvPX4Zuusa/Sy0x+5ZDWQ0FqcWM2nge39dHfUGlU874G+YMytHeHgY/1NaH98VQBvTt2CWIBDqHGiHlcssCaCNB7MWGQnrggnYvPz1FhwSDJ9BEdo4Sxkyc3gpui8taBr/qrDRZ0/ZYE8eQ5n+pl+Ijzizrvciev4SJVzT7u6OfQd6t/0bMV3ZTB/huP/kCUScR65goudcCgfhZVbIe/I6BgFEx7VM1998WwRnHBZiqF9jUD7DIiNACJ7hW65969e3wGfvkilL6FiuAr+YMehINaiPhOThAefmAZnX9/edyW526pg6ri1yCkuS9+o/JHDWCTpmoXHOEfG0SqUUizYCcKeV+gN9qioWeEu7zaLGON1u9Q5eekRSLlTnR9M++FzQgvAagV9rbp+kcMiNDZZQ1HsLew9OIUGg4ZuH4ZS6F/0XxGDc2MWeNulkh9Y++PzUkqx4Omj/eXhstwjpiyM11azYNJTbSClpX+l6I9n58OyheVBz6ynX0jaMqeeG/mno8Y0gyFn+JuvqivqITZeI+7e9zaZAZwOGCgaB4E/v8m3Bgz11wQIIX/wgpXujAiPy+FJrIWwb1PU9LYxcMucA3wXQSS2ySNX2Fm/SiksF0WQwyS9jgr1o0g8RHir3SYjbxLpfFj4ZLxMRi7lA4d6KiY0HZMfo6VqagjmiG6LocQtXZWDnTnu3/1EYppGwg2vt9Uq8vnUpO1QsL3WjRky5+LyKq7CAljwsiy4/MmWWoxr9Y8V0PtI4zz3JRaaA4wGogmUzrA592ywLrxTr+XswxNWQc7mKod0BqpPJUVcKQQb2XdICPH98/tqlW6YOWmdXRcL+7/dhFNEQzFGIhFm009E8gTh2ln7cz+RNt1jYPzUVr5XhTRtevS8bY7o4NNPRJS8UZNBhU8kvX00XDxdz3z14WMF8N/r0wzd890lvQEGSD2ctEfVVNVZUTH+WbBvP54FPy/IFf281Vac9heRiUlYrmRLD+UEVz3RHTr08i9d/eYjW+D3LwoUpoW/JbQNmbGpE3DmhsMoVV8N/oh7JUzpESYxt09IlfoRs+XTwUcYG8tVC5sayyv8+c5MTD8RSeKXjx8//7JZVd7/g4YlwKlX+ifVZq+tgpdvzXFQlyL5XBEa8hlT50Slr/7Hx8OJl/p3PayttkjtOEPztKmZ/0ADpj9GIY1YsajAOnCI/2H+8+t8eO3BTPRuSpCxR5nujnppndwGhyAyknnWde3h0JP9L++3b+XAx8+xMGJeacRhVajcOU4fVNJQTD8RqQChzLRkUxZiukqSjLp/nIGhasauHBHO5ERuCztAsr9GPrL4d7uzn8ix41LgsJH+BRSXfFEKnz1TyFv2OnwB5fEoN86TaSEb6WnXppKcDt97ahpG+UIU8gDDQEKGLPgD787Mss640t+hXbirGu4dTfwgwv5P3ixL4UItwZFGXC5HAvp/RqbD6Vf4JxSu/qUYXrwj0/6QVMCOazucJPGcDVfF4CAFDqUAXA//RAC9SkTiSJFZuhVzhdZk40klU8kPozo1FCeQW49BhRpNPxFJncPaJO4HMnpyBnQ92D8D/fPnCuCPT0vl0vZsA+ztQ3lCik9ERIaJfJFJz7WCZmn+iYtfPl8Ex19ioq8ak+QZBtKYaNJ3WazOtM+77zprGZTk10qjeIFCUWBW+CukGHg5Q7xL3wT43+PdfVeTv70apoxdzYokSYxENimIkByJeZl+IpKmZvqJUEEELLjimbaQ0sI/AuvV23fCltUkodX9I4pWqlF+zlippEkEQEJqJFz5nF7i4ks35hROmNbSP8rF9xaZAULMNFg0OgK64bxP37QO/v6jRLkpSCNRrCPuonJibLOUKLjr7T6+ayEdEm89eTlqAk7NIar52RX2IhLPWTirX7dBKUKARSnRGTKTmRMJpUZoyeVHxKKEmCqcq8pYKSxahsP0E6EdEnHEmCM1uM6NZ+0ppCXwcibInHfL2+21OgDOGJ8NZUWkKjVlCh79RDyOH/e3MQ2FnL8u/ePgnDvSfc99VUU9xJnwXV+cQh1gNJBQEdMYv+b3IqvnQH9b8PyntwLpVshkK7m/HXUuK7ULOVFWnoqMBHjok35aF/iuM1ZAeUmdhxaimrUcmU8up2j6iTB7m0N3TT8RQsgTkpvAtS/7m1Drai14+OytgRkW6z/Cgtzt8+82aTFtZPDIRDhmrH8x0U1LK6FLf9P3Q4N8hTTEMJCQ4NIb/MVr26zjzvNXq3/7PA/emLpZeqnaWEdKIFQkdWwPJi+Z/HpvSG0Z4zvJRy9da2fCs74QuK6KhzDKWZXbmY68DJKt2uXSMP1EpLR6RypQOyk6yoB3PxU5Z0VtVYt0tH+onwipgHvp9Da+Z68opxZmX75dZgroKTWXRurpLnQWJzorIgJGXJEKfYf6O9AXvVsC/xmVZOid7w6FNsAAGhpeWqNfn7LRGnNLZ9+xmStLYcaVa1EoI3b7ssdFy1uWMyK0ELmfyBUzu0On3v5lJJ69ZQOs+6PU/oDzTtRgCGcsu6KyhEbCGJ1D9MRcsRObh/niiDGP7HAcyik54e3XChMbL6PFy1nIoyU/OY46ZuFMHmXxXUQbRzEo65cycZTscAcBZ/9ExjozMWLTEYt2o6AFmpMIr5C5MT0intnhHseHaUnOXgvt0R1gwKaP6o0FSOrz6ifSdUAcnHunfw/0Laur4JXbSHtlhwni0jVeF8YzzBf5AsdOyYC2PWJ979qCWQVw6pUm/8MXqBAHGAYSImA6w2dcsfauq57ocbffWNIh8N5zlyvRUDLjkKKyJA6CpE4aAjn2js7Q72j/EOJ5j2TBH18UYLFVDf9SyxNx4sg1JPq0lAgpcxP+DsmVoyaXmH4iUiYpjnASgXF7fz+RfiQH5Cp/X8Sqn8rh/Wk0/8knkVDwfWrCckdMw6RnWkFSur/j/rXbd8EFD7Yw9M6PKIX4ewNoiIDpDteJxCL24BtOWCIK1LokayrXSk5Gd99oJv2OnNgGjjrTPyP3kxe2w8J5NJGLL8ghXaLXgzgaroRCKeRX9dWYfiIiuEDRzChF/Df2E/nPqCQYdr5/gNMv84vh6zlFPAdE7acSSAvhfhCFidz8VlvQaSkdofMh3cttxklUw8CxGxDQjcS6c9QyKC2oDWATlqOTWOVS4VRE/N+y4LgLWsGJ4/x9L6SY42dzdkpahktLUGPDPJIMpSRi9nuuJblBRUE8tBijPH/cGhabhAKVWhFjFEcr/bS3z0ZkTGLpKdj67deh9ePcB75KyRSlBh7QF+B8EkVbw45i/jS3ySlJdqi6MLNv/dP9RIaOSYYjzvLXfr97oxB+fKvYhk0yXWJHOd8/GqCgJBkyrBJSIuGqF/z9LiYCazcQOLZHu+/V+/ebd2VXWult/G2zpLT7tg3lvOcGIzWocCy/bI45C6nz9i0UQVLDzm4Jp1zqf6FI5NeCZ7c771WLIdqfwL4Fd6Kjc/E9vBWIQ6j+Gu8n5EJgmMGYfiLy/WEhyPQwuOCneiB9yGv//H0OIgfJeT5QcUh5L53/O25CGhx6mn/k4VdzCuCXD0noOqJAqER7IKrhpbURx/1Fj/n7XUjRxrQ20cbashtIsgF1N4BKXrl1XZnVtpt/dMj0K9bA5tXliGgr9YGQucgdoeJMnmkCJBtdJwt+0fxceO+JbP5NTjj4nRbmLIef4A6CjO1wVmf6iSCHOjcDsjBUxXnN94smzDNCzZg2D2pAeTkitcXdj14KMqBbwiV7iSO7GUKgPB5XWRRX1r7zYtxP5cRL0+CQk/zLqX/2bD788ZkTwMFkEMwcOB4e91I9/216RMOFU/wZyM5N1dCqS6yhdbuB1hlQdwOo5JUblhVbXfr6X6gnr/8b1i0plft2UwHS7XtgxJt1aZPUByB9Qc65wb+p1a+f5sFbj231ytVS0MB+EefGs9BTIfEKDcX0E5Hhkwkxjs4SjP/f0k/klCubQ/9jE31v04JZebD0a6cPutwaRfQmcRV1RG/FNbM69o2FMXdn+H6TRH516B1naJ0vUqEPMKCGjpnWE6t+LbQOGOSf4PTcreth1S9FLori3hjZH8JuIP7XAcemwvm3dfKd359fF8DcKTT/xKNelf1tHBOLQmm5UMt9AvhzYjZuK5e6IikoVvhElO6BjM7IxjbVfKYwMWcBEg4SMzb9RDgBd/UYp6gFc/Rz7QFBfPr16dDnSH8G8v5jubDqh/IAPeCD9FNBvVZYpaBuA+Pg7Nv9GcjGJZWkRpehdb6UIfQBBtTQMdN64q/v8q1+R/lHpbx01wZY9mORZE7y6pGgNoBiuRs4jPagI5Nh3N3+/UiW/VAIr9xLGYhHPwZmMhE5IoxgMzOIWv1CZhxi/iJiTDLDmH4iEoPjphnKuAP1yJCEdldiIiss4JUZj3JA6FZhf4eXr4PvKMoMd6anlkZwStGMuiUdeh3mn4P0zkO7YM0v5aINgJcmEqBHiCSqRERAryFN4fQb/CtQr/m5HA44PMHQOi3KFdogA2poeGmPXv5TgdXncP+olOdvXw8rf6YaCHs7vaTeTkxZE2GMhAjc/YemwAWT/RMYl3xTAK8/gDQQnkPmqBWeh0Kak9oEC1MBpDMELMMiWJTpJ0KNgRQrF5H28D84EVcoCZSdG2z6pD4YV3SWosjKSZyoTI1y0j3PIgpdO+P6DDjwSH8G8t60XFj1U5lcFFE5PizJ0Es7wg2mug+Kg7Nu9ddA1v1WAT0Gmy6E2sQrhIGGgYQAVihD1y0psrr1949KeeKaNbBhGblQqOIUCt8UuRky0cYXidkjDhvRHM6+zt8HsvjjXHhnuuNEF5qBSN2W5mK/3G0+ExKsVFKLOvTlN7jDaVlVVfJuObBfMp8FYFp2WQ/JxIbmiPppuDLk0TqYiQ2vn2WQs9kLfq6Ek7IIJXX6mv1URAFJ9/oZA+EObilTU5Q5YesX6IlQX3v+CFavfhoqfC7HOTrs+HeB+omM+F9zOPh4f5/fgtl58NdXTil3Z/WYaTFTJM3cR9oSG8e0M7L+9r1j4Pz7/POeNq+ogk59jQ8kFPqlO9YwEF2kQhyXtbbUat/DXyKbdtlqyF5X7vl2bocOpBUoBPHoUS3gtMvb+s70u7dzYP4z2xxiL3EQStBQWKUrAogXZTL9RHAVW3yRuHcHUXLZ8oNt/bIvCCuhuFAj3lRkMBQEmE3A1kKYJikIsVzxmL6NE2ihNcqlWASDC2RmY/M6fkIqHHqav8/vy5fy4df5JawLjjx/YSm1ZZZA/hn2zdZdYmD8NP8orO0bqqFNNxOF5UsYwhhgGEgYoOk8krO1wspoG+c79P7zlkPe9mo5qyKQeMhj8z0rcMMJY1vDCRf6JxJ+8ep2+PxlJ5FQlv8d57lD9+SIK+62xtoRJZAOcaF6EBf7ZTMV+b+o6AiIinHGOsOwjct5gZMsySR+RuiEfYd9i7sAVHe5ooFgCxAm1TVVFlh1cv1jJv07orHIjJT7oQhtJDouAuwGqSiMl61LSNaKhqX0U/HuJ0I/j+t5qXEDnnqhCAGvrnSivnA+DcM3oFkLJfcFnj/aG+TYPvrcFDjqHH+T7XfzCuGHeUUuBoEjrxQFHFVHkEPcU1tHwcTZ/uc9b1sNpLeNMbTOlxqFPsCAGjpmWk+UFddY8c38a/RMPvMvKCuo44Tci6Az6ozNRqpESyjFaZe3g6Fn+av0Hz2TDd+9vYvG8Ytije6wSqWOH2Zs6JYz+ikfJjd7GnVtWxh8UpoWfrt70JsPZ8PSb4nvKfx+Ihfc3RZ6DvKPPNrda/F6/4s3Z0PWKlJxWfxWMhuh8jhugs00EpX5Be4nMuS/STB8nP/eLv6wGL56qUAwBak9MFqJenw8kg1JJvrVL/pr3BUl9RCf1MTQut1wEA2ouwFUR4Dl6dwBv1BfZ8GNJy2Bupp6KetXurbq7VZKQGDyQPqiDxnhX9Du7ce3wOKP86jEz5yxktDN1AlJG7HXJccPUfeIqKGlagjYf3LBHR2g75H+Zo7dtCXSa998eCss/bYEOaPF+lk+C40txs3iOWbkLxfc024vZiBbIWtVlWhLjFQ22TfEt5orXWpbZXciKX3GUdlsbfWQk5Lg5Mv9I6L+/LwEPnk6nx8kbKYSWi+qGsyiwJBjiglSTaIAbprXDiJsNTD4j6mF5YdQeL/3Rz689+7XT02/evVLV0/vNc4PhNzsKrj/guWoLEWACCh6USXTkkftoAsmd4IBw/ylwNenbIY/v85HjkyZIEhsglITnK3ODw033Qj7iiBO6uoj4NKHO0O3AXuHxM4YiGuWsmNI2JI8+iaO3asZSDZkra4U3nTW4h1HZyHTG8MBR0BRQQgFRsho4VDgvkcnwOnX+Wu/K74vhQ8ez3OZ1vj3vWMA+RzUEOeJT7aG1Fb+mv6rk3Ng7AMtDb3zI0oh/t4AGiJgOsPnPbrJOuc6/4S+lT8XwrO3radF5RypiysulJAxnwByMih9zEWZkYnTukP3Af6RMC9O3gArF5N6REo/BhxKKiiKKKai+EW4RkIJkbBwyeXHmRZy1axu0K6Hf3kXHYwbOkaYsGzu7GgWyvpZABS3Aym9O/Z2DWTzqkrqU6JoCbeU6MeBSq6gqjkcXu6rUiKmkEJgv6vHoKZwzu3+Du1NSyvgtbucfiBqOTUeWYj6fbACotJY9Puzb8uA7oc09T0Onz5dACdPNP1AfIEKcYBhICECpjP8u3d2WEed6X+Zvp63Az56ZqtCuSgxC/AhHJllD0H9NO5+qw8kp/t3JCRNrLJI/S36I/UXF/8ojFUeTY+kg6P6Rlx54A6RvnlOD2iuUWBSB+OGjnE0EKcqrFJSkjMT/u+Ck0iBB3s3A2EaCGXzmMm76myJMiLoUHCdS22QpWJPzmTbHjEwYap/Ic/i3FqYeXG2gFyBH0eYee2xmo9C2tke9l//cPnfPi6BwaeYjoQNvTeuvW/sF5r3AWxdX2a17eovac+duglIXSpMwwSDCJKX4XJmA8TFR8KUBf214J98+jKoKCY90TGld64u92F45aXQ7zpmDuVxSlr5/JEpgk33nnd7Q3ySv7lBaxENHDTvIYeByP4AsX78eploUU0RAPZmE9YLNxMfSCVlhiJyzN5ypGmxbcI1pvjmsj3GZUSkvA2BUnyzSLjhtY5au/LwuVlQXVFPjx8VRXhIMcoB4WdMZnDijAH0H54IIyb5m21NQUWtrQl5kNFAQobM/4H6+noLZ/gGeuKxiasha61TWA5FjfIYXRyI4orOUpzp7bo3heuePsB3cqVFtXDnGcuo2Qxtv6JlYKaGPc3MD6NmrLsc/2qYqQXw8Gd9tZr/+C6iEQYIDcTBwMtRjCPdhBQuNmtvZyCkiCDLKORtaNFhw7puY/QTufG1DtC0WRPf3Xnuum2wc2O1HIvuqeWK8yn1YEEh4226x8C4h/21fbK/kZEa3nbf2ZsBknBl4GhcBObcs9668M6uvi+tLK+DW0/9E6x6R5q3rwq7L1i8p+YT/Csv89HA4Wlw/m3+ZUw2rSyFWVevk+3PdAI4zNOZDp6bVGuDr0+KtuSRPq4F2BrSfR/2CYpL4a4aKMmv8cVOHqDGe+o9/tUrOfD3H2U8hUM2HHroV5SbONvhjB5xaQvo0Nvf/h58RvrzT0qL0mrfWltjwZNXZAHJf2A/Uua+p/8h6AHU6mE+4eHW0K6Xf+7T+4/tghXfO4KTlOAY8PyzcW4kI6MArn+lHcQ0jfTdeNJK94wbM4zQ7IuU/gADpj5WWiMXLcixhozwr8/jONDX8UskJeEidV6Vjrk5XnngpHGt4fgL/JOqfv0sD96clmV/Vw7XpMvD9n56OkRYq8NEuAnLI0ILEwUcpZPSIgZufz24hvT+E9nw80f5KEMeTwCRGoqPO7nRWQObn4vpIhOc1/rt96F8A8wPHQbv0Y+DZUyj08FnKr0Ak0qq9VBbkeRQlkrmi3GpLaPhkkfaQ7O04CbAujoL3pyyA9b+4pTHoUuiAsru7Scy8up06HeMfxDH928WwvdvFEn9RBwoaGkdipt3uRO3oHXO5AzoNtCfkf/1VRkMOC7R0DwtSqY3yICph5P2qNLCaishOdp3/PtPZgEpKeKlmvOHuXAqKKZEHFGOyIV3dYb+R/tX/13w3DZYOG+HiM6R1B8UpoPDPakmwmioozJ5FsdQ1u3Mm8y5Vac4uO7ZHkFxmTslC5Z+QwgLYwTMtIc4Bicuqu8bEUdu4pDzVpzVCYlf5gfs3/EU6fyV9UvmLDZX5DNyMTYc7oznL2duCq1QWX9iahRcPLUdNG8TPECCmGnee2wnLPuWRNiJq41X5inxB8pqZ/NDGosbM4HXEaOS4ZgL/P0RK38sg/em7ZILKmJFTFFgWWixEE5k0A8d2QyGj/M/++XFdZCQHGVoni910h9gwNTHynfkM7eutS59MDiRZC95+KIVsG1jhfROXPROjSmVzEmuInQAt7/aB9Lb+rfQfemujbD8x0J+A2UTlKCCUvkO5+a6634oUrn8LtlT2+WgBJj4aHDT3ou3Z8Ka30hkFMqOZ9925Qeo7EDWEGSiGWgBsowejDhKv9uD/URim0bCRVPbQesu/qahj57Mgd8+KZJ6jbMDJp0tUYOAJ4KKEjaozAzSX1R/kP0rpV7VAUPi4axb/P0RxLT25EQaiYVugKi3RZNWyO+QeRX7afDfW3aKhosf99e+yevenpILZ99mzFi+xExzgGEgmkDpDPvzmzxrwFB/Caw4rwbuGPUXf6UURmvTXVyoEBNi7z7VxDx017y+OlOEhyesgp2bK3kcPrNYedanwuYqXv5OKSOu2U+k95AkGH9vcB/NrKs3wJY15cr6ebqKMMPsJ/1EoqIAxt7XDjr39Y/o+/zFXbDovUJRRwxFTrl1KlRTim08JtSeeyp3wcTmSUb4W3aKgctnttM6h9MnbIGSfCcSUBacUECDu5CZuww8ZWSkpEliir8Df9VP5XDgEaY3iNYmaQwyDEQDJN0hwfSy+QAAIABJREFU1ZV1VnSsvzPv23d2wPuzt0j2FcFEkMNQKbwn/A8slNT585Dj0uC8W/0d6MRxf/vIZWDVC1MVt7+zb3GJX5baVWua4H7OEbJ/j7oJqpgNPC4VRt8UvNT8tIvWQs6WKldiHw+1lRxAwrzEJqD6arDPAhmuqFhLZ4hMSm6fkKRTOZ9BOGGHuvM2OVbOUyNj5iD6SxxGzPp82CcgEuDc29vAAYf5Z+5/92Y+LHwtTy5oyRmD3DpSEOvG7ycCkRbcMreTlkP7g8d3wfJvy7ilLdD5V6t9YmaDtZDjLkqFwaf4+19qqy2IjjXRWLo0zW+cYSB+CGn+/r0nN1unT/TvxUFeN+3yVbBFDd/l9IdZqVGfBA/zEXZkn3tTJzj0JP8aWKt/KYJnb91gE0F8YZ0lCn+FSgvVS+uYmBxK6nahePlGIuCI05vDyP8FL3x37zmroLSg1pXY5w6nFRFi/9Z+Iv+9uiUMPN6/btjijwrgk2dypVMq8lZQOV9V01D3z/bzOJqvIwwIN4oX0ZZySRBjPe/uVtDtYH+NacmXJUB6g6DSzEgmkfNWXOZTVICRMRESzjt+aiut2/r1nEIYPj7V0D4ttIIPMiA2AojkFXk7Kq20lv4+iJytlfDABctF3kGAGF5WwsFp4CMVMnJuNjIv3fF6H2je2v/bC57LhoXzdqIVyw5lm4chBzT7Drd1M6FdLTNunyLkT/DoJ3LcBS3h+LHBL/htI5YDCUFlDM0hUtTXoTprsHkjQAS0lwYiWGXwEFJHM2B9O/D6BHzePhPmIBGM1NFclDDoAPMnY48bnw5HjfIvTLjkq2J4f/oOKTSAzU6ev3zNsTYmBXEwIaYB/UT+c2YyHDvW34xbsKMGZl2eLZiGrBfyM+91/gPNn5R2T2vtH8BSlFMLKS2jDe1rBNpnQGwEEF+8629r/N3dtd706ZxsIP8xRzFPYEOhR84FQWYmzygoh6iltoiGu+YdpPXt6ZPWQJbtY/DuJ8IJHUpslMaiGkQK+ZWoKjNn4YixUy9vA0edGTi8uba6Hm4dsQI5gAOv39Nfw0JibW63+/uJqOuXIq8YJ7apuMhcZ/jKRFHUDSO/P+KMVDjxYv+ihCt/LIG3pu4AUtHZ8UdgxivWz81sHjHbHoqtwB8F5KEgrIA+CPb59r3itEqakLXOuHgLFO2qlb5pLwWVmucJkCLG2ruSL1hw1OhkrZ4k5NsmJ0SLZPgOMgzEFyL/AZmrS6yOvfxt1eSy33veUsjfUY2a5NCII+UzctSMKLluD0Oe70NPTodzb/Qv3FhVUQe3n7YU6uuVsuVce8AhvEqPEKETUDohfDBSxBSiSGrU2Nk3tIdBJwSWTIvza+D+0asRCt7+B0Gb/bUDjBMn3nwtuFCtSkqVHiGSnOxsgDvwgTJll0aJeSsy+yEmxxjtgGOT4IxrW3lGUeHj8ffvZfDG/dtsbY1pGuopFdpR8ARQLjRwmxX3pqvWQbkNbYB+IpGRALfM60T8DL4X58OZu2DZ16We0ox6/u2XISUXl/xh+SLJLZrApKfaaJV337auCtr2MG1ufTfJZ4BhIA1E8Kmb1liXP9xT6y1Lv8+HF+5cLxFJZqaR6i0FsD87pEv2jVz2UHc4YLC/rZyExz5zM01cFJ7bAARbTEA202DblfMoJ73u5oJSd8Nx93aGPocHnmdOViU8ctFaUYuLn0yVkSi+IWrOk5P8RIgvl2YlId15OaJHimStmtEEjVMLC3qtXzjz6VcCmquYadKCnocmwpjJbaGJT9+jzOXl8PKd2UCcwaqZSu5uSNfIo7FQNBvafy9zkOTMZ2ZE9oykvQrygc/J+fe0gi79/f0g6/8ohzfuy0FRd1Sb8jv/KBDBZjQoamzULRnQ6zD/b5OdmXffLjj3zhaGBmpRL+9BBrwGgEce3bym1OrQ07/3ORk746rVsGEZSfKixBe1gmVSrUh3wBRPRGbhQCSSsHjvuwf5Eh3ytY9fyIav5+50X1Zl/byYIv08sqy5kkFEprBgJkqjde5UmfhoN+jaL7CWtnlVGZAwXk/eRsm925mOMJLyBWTmwKVsmwMzk5Eogy/YBfMGY+6CfDA8zsqtHeE9dfVToVqeS8+hhLBj7zgY90B7X6k9e10lvHTrVqiqJGokC8VlzWDZmr2vNK/NpqyfrV2aPw4mY5pJCP1EjjgrGY45398PQjTyx8ZtAZLgJ+0ROml8XtwPKLcKUOffoXcc6fuhdau3r6+GNt1Nr3QtsAIMMgykAeg9fesa67IH9bSPLX+XwdRLsI1ffBgTbcdULUtiaogjswsffkoGnH2dXgXURy5ZBds2VPA4VPZN/i1Jn8CgCHMWZl6cUeBWo0H6iVz7dA9o0zVwuYk1vxbDi5MzqRPfu5+IYFNy1VwcCst6nLD5OQEIsulIMBGENV2yxEww43KGIkVH9js4BBAFIUjKGr1mHgUDW3aKhUumdoCmicFzGHZuroLnb86CyhIyQ9lvoq7fpSWxrn5SrmXgOdlrwcxSVtU488J9zPHxadUlBi6brpcPsuDJXFjyRSlKUkXlTCShwNkZbtqSHTPS7y5+tDWQOej8vPXgLjjndqOF6GDlNcYwkHCRA/2y7eQTrzywAX77Ms+VT80kL9ZICudlyFNzrjT2LVzxeE/o1t8/9j1nSyVMuXAll/JYvob9D1LSoptxSL5XiYMgBkhDQFEGCxWHBZG67fXekNYy8KVesrAASCkTpoK4DyZdP9XaJJom5bAgswpiCsIi5q4HxZkpSoCmadbYN83ptvvIuDUS4ZsQUVkyYQZIbRUNl07r6FvfKm97NTx/4xYnxBkTTjoRzrh4eCtWITDbRdFg3CQlcUU341Cc18h65BwfNRGQzumKp9tD8zb+EVGZyyvg1TsczZjdhUCESgQEKCoKgp/8tc/RCTDyGv+wdvKdnZnV0Kqz0ULCJYOGgYSJ3OsPr7fG3ORfdZe8noTu3n/BUgBL2GvF5WMTwARSZhRSHDy9sM2aR8E9b/UDnQrVn7+yHT6dsw1Zx9SQ0kCSNSU+UlQMchYziuhcfa45MR+A8CdHwP0f9IG4hMBS9qKP8uD9mVul4AKOjELzhXwsJuByGguO4U4jUENqeSKkoM8SS8AUWtU00HeYNseYrpg/3ndnb+NTmsBlj3aE5q2DS8pFuTXw/I1ZULCTRCuh5D/+EWcCeP2OT0AWBrBZDffTUNsOyIZT9/7jb/Ft99AMhp2fCked7V+fiiS1Pj5hC5QV1NGYB5wDghwu2C+CNSp2qunE7fVEWDBxdhutkF6yho9n58MpVzQ3tDAMWmhACwM08khRXpWVlKanJr/y4Ab47fNcHl0j955wX1n1UiNRj+eADDunFfx3Ynut2T88YSVszyTtTeUf/B2vfhjYkIF9NGIseqNinkE8xc6qnvp5v6DRRcQ/89lLJKeBUkPV48JpiWRc4c4O/nmuJbmhUS0xEpX1mr9HBhsOeqCTdbbHo0e9t88GILZpBFw8tSO06Rq8vlVZUS08d2MW5GbXIO0HNVfCGyrN360RcV0hgLaG58+fRowz1H4iLTrGwMQn9MxYX7yYB4s/ZN0hUZkVj9ONM+mD7V+foQlAqgPr/JQW1BEt0NBCHbBUGhLGM/v9I5+9utU64fzgWdUMpJ1bKuCBscu49uHQR++ziusL2eNYdjBzINqUyiGwk1/rAxlt/Qvs7cisgIcmrFIijtAWIiqHCSwzs7ORLp8JdhYgW7UzRWyvBohPbAL3fRC8VteCZ7fBd+/QjGpJulac2Mh5jAk44juqG0SqHOzgqr9+rEWxkuPYjCSbdCQEpS+xRMIm0REw/oEOvvWtKkrr4IVbt8CODZXB54+NTvTz2Owo5czQZWORRdLcgtxsdyIkehlfqbz+/81uDxnt/YUsUlxx9kRH+2TMmN0TT8YsZ72IEjLo80RomTirDaRpmNHIt356pxiOOCvZMJEQqbsBLETAyHDdmldk7Mv3rYffv3La1kqhulRq5XkU0jyEOci5UHKofO9DU4CE7+r8fPrSNvj8lW3icjIBH4evYJOOi8EJcuOePyXhkiSMNAj676ktY+D213oHne7bj22BXz7Nd3BSyqq4iYhMqJhfSDA7JdyYAigkaxHSyvaFp+CzfXKF+Qo7kSB08vqFu0CYlfj+kcebRMCY29tC7yHB/VbVlfXw0m1ZsGUtqQsmDoCie3n007AHo34olCArbWhtOk1dM+r6uZ8hyPq55I+qBPDjhIIqjj43BYae6x+NReYw954dsP5Ppzq1i6m5wqDFusT8nbXj+fcNwRdiamTpUBP3GMNAQsTtt692WYccq6cab11XBg9fstzWPvgPomJ+4OOIEyxVXv5QDzjgUP/cD/LNB8cuh5yt1Zxi4OxwETYkJ855S7CcPHNnvuybwWYTOWKmXbd4uPbp4NFqr9ybCct/KFJ2QzBSHJ0mzOGIpCpFDt2EyO3Mds2fh7gKxiBFtCLmJioJMOaO5Xo3VuQ9Z1zTGg45ISXoiautqYdX7toKG/4qF+VPuONcSBKURcnStxLTKhNiiwoi4tRhE5tqrsR6mqSxYNC8jjXSDtLbxsAVT+mZWdeRnJB7cZkdReDCznyKoEtDZ5vFcIgEuHiafkTWyh/KoM9RpuFUKCTRj4aF8q79YqzFwkU0VjvzmtWwbgm17WLxF3lZXVI9lfwkRyeqhZXRPhZuf6Wvb7Yymd66v4ph9rV/04Ci/7N3HfBVFVn/JIFAKmkktIQOgvRmRcUuYi+LvQs2LGvZtawVdW2I3dVVbIDdVewFQVAQpNfQU0jvvb7vm3unnJl7X+5N8hJeePN+PyDk3TJzZubU/zkHtadVExKx6o60dXmKVgFhKWeCLsFWweAxkTDzmUFNUuz1u3fBzrXlEBnXCbr37gIJfbpATEJnI/DeNTwEukYEQ2jXYKir8UBlWb2RO1BZ3gAVxfWQvr0SCMxVAp/KXE91XNlndCjuPOylszJYQ0TROQk3m53LiFx06tWJcMwFTde3It0EF8zOhG0raHa2BIGjQo0xaO42lMLjYl6WBHS8fqa2rjjzLBYyXjA5M5wV2hGJkN76iVzxeE/oN8K5WyA5VsSNVZhFimkK4cEtDHX3WIcvxo9cvv1GdIVLH3WXF0LG8M4/cuCqp3pqvuiCv+ET4PLywL5s9+ZST//hzrBZQqUNywrhP/emItcRyqBGbiKcRWsXG8GChDz3/Fl94Zhz3R2Itx7cCRuIVt+EwKKnlV+DBRp2HaluNAY3ZjFriXEqyWojju4GVz7UdLn5gqwaiIrpBKFhzj0d7HZhZWk97N1cCXs3V8DaxcVQml8vXH9qA6h27idy9HlxMPXaptessdEDHz+TBRt/LUVV0ATsVo7FyEmQVk1cTpbEISXbWsm4dhjqI9JU/MGamGjKIzUzfPhRkXChiyZTZE1XflUC37/J3JgCcYZ1Nh6LQXFEdf6ivpxJhwv/2R2GTHKXnZ6xvQaSD9ElTtxyei1pXVLq7UdSPVc+4C7u0FDfCI9dsQHyM2rk0iNMZCNXgzMSimqeQUEQFhkMD380Brq4YLLFebXw8EUboLEBuVh4BV+5n4iFBFQTV60jWQdGcRrK3Rh8V82mn3hKPEy/y12pe5fL0eRlRJNf/2sx/PZpPmTuJM2zsKEgW1Ism55XRDFVXkvBMDn+IC2gKYNpqILdzmg17sRoOO+OXo4WI2kylrXbjHmQAHpVGfnTCBWlDZCXVgPp26uhjmSg46i9UlYElyARg2KMXeRsoKw9Ef6WLBbr/BnBMQoKxxuM7ylZxBBJXxMP3PZmX4hOaLqXO7m9prIR5l6XDtXljTZbUobA8/fRtVWTbfH843p3ghlze0GIS6DVF88VwDl/T9C80cVh1ERyQSRySWFOtSc20blkOrl28cdZ8OmL+7iHwK6fgpS2jASLPULLZF/Tru0DJ1/ay9WIF72ZAT99wGCxyGPBD7np0mJquuTgkPIecHdEwVfxgcWCRWimwkNy2GnxcOHf20+AYAJtX10Gnz6fCcW5dZJcEC422RdiHAhFgFgqBRjJ7XKnSO7iQv00Bo2NgCsfS3FVasZpURvqPbB/ZzXs2VQJ638phdx9tRwUJhcZRJuJfqHKQ2YpmO9sypWFwAg4PoTmj+NR3vqJHHNBrKte6WQ0v31UDIs/KJLIYclxwVJaNY0xWAXliJxsNJyKdiKz8T2xXrt11+Xe3RBLCxAXVPr6rTTP1KvcBQMrSuvhoelroaqigZvz8oFFL1RiBlyJQzkF7HyER3aCBz8cDWFNJOOxJ5PS6A9euAHIWNz0E/G2Cbj7jDJFK6nkIDaTR+J8m0x20mnx8Lc7D4wAIWMh7q0Pn8mAbSvKRIa8Bdkj2CljwViQqCEVGvWwhZCy+U+ZngAnXeFcmt3FFrRcsmNNBSz7tNAItvPx0qv42LhZpFYXlhMbcSyLvci02my0fjnSJCxsbOUp/UQiYkLgjrf6AoEwO32IFfL8NWlQU8msPBZfQiX6bdr14vUxR27GZ9j+7xoVbFTqdSoZw8a39MMSOHZ6jPOAnSZ0kH+vCeRigWuq6z2hXdz55j95cS+QlrWKI1uOMSiwSjwEjIXHmu/Uq3rDqVe4yz1Z9UMBvP/Ebn7UcUCbQThN5UxuTGVhnJibUEc6HpMd6TDElWmOxAI5kALEFGweWPpJPnzzZjaCRVtLCLPaWSbjoR9kbajzt+jvyAI5/qK2EyBsaPs2Vxqxk+IcFnymjJ/vMcXCUtokyxV8KetFMRHupmoioC8JV+YvRIgo8quzb0+E0VPcxQ+XLCyCXxcUcTi3hAjzEq8x6MFcel76iUw6IwpOvsYdrLiuphFCuzqURnbBOw72S7QAcVjh5sB2SdLgY5dvAE8D2clW74CoXqvEILiNLlwG+HaiNT20cDSERTr7kQlDIJnn2XurpfgLC3azgya0a5awaDtkqUKgnXBgmqrqV8eCatKpB16AsGVevDAXvn0rByGOVP3dvFKMX7iqGASa3UHTIBRGJxBZx01PgJPbyALB25bESz57Phu2EvSWiGpYNqCMBnbup2Iaab7pJ2Jkpr/QxzEWRMZfXWHGQmoqSJVewaIkZKIiSNRjbNdPJLgTwMwX3CcXbl5aASOO1bDeplikFiAOAqQ5sN3X790GG5cVW3p2SG5mxMkl4nOJIR9Y8uvTruoNp7m0PtYtKYS3H9xlG38xlTT7fhoS+gofWyUeYjJXu22DRR7yjAeB6cJqRgyEBMEb6jxGtz2CTiLw3U6dnRsUudX2Pn42A1Z/X2R1Z8n1UKiRhhgtx/Wa88deGxXmSr6fclH3dhEgXDguyIdf3i/g/czZKKU1R5tRdVO1dT8RgsYafqRz4zUyH2KFLFlAYiH2bjROfzvUGDK6VEEy5LAwuPCf7tyKhB7z7smFq5/uofmkl8OlCdME10ldW+wZPMZdwl7q2hKYe+sWqrEJR7GAX9ItryChLJqT4t+Niu0E/5o/2hXyimz4p67bbJZt5yYQ1agpu+PyC/+AGKPXDcFdMyyoLqCkeA6Si4fCZ0cfGwPH/y0JSNdBgjYqLayH8uI6I5eD1HsqL6k3tM7aqgaoqfIAQbFx9kxdJ0SAdAkLhojYTtCzX1fo0b8r9BkSDoPHRjZbuJCA9Bv37DEC0hw6RBcKVzs2BS6zSChlFIiydA0zXeizSAykPSwQTP9Fr+bAikXFknAzd57U0IOXZBeFZxjF7XeAFbYrMt7V9ZcVJk5Y6NE/FGbOdRdLJNn4L87IMCoQCytXPi3Y3asqNt5iIkS6XvZYD+g7wrkMEHnmvk3V0G9kmOaTWoC41U/N6165Z4vnhieHubqJaMn/vm4DZO6o4uUl2I3SwWVqE+4tjvtp2Lxt+p394agz3GlMG5cVwRv3k46H7vqJsHIW5kGkbjXJ102tFdWNgUrA83dxnRxBXOnvmDvIm/DizKmJfiIMMSZl0gNA18gQIALq6LMSDKHi9pO1pxqen7lDKRND2Q4aaGv6iUy5KAGOvbC7EcSvKGkwILk1lQ1GN0EixIiVRaytzqHB0CXc/NMtoTMkpnRxDTlV50v24vxHM2HbnxVSAUZe5oMpFtyfhcvkmPPnritWrN2H/USm398DDjnMXQO2v74rha9fJfXRTP6NLSlL3IXHXJz7iSQN6AykZ4i9JW3dQR/OzoXp9ydpIWJzuDRRvHCc/XsqPD37uUs++uObXHj/CeE24hqfpJohSCTXa6l2i4smCskDPVLC4J9vj4Rgl7E80rAqc2eVHTLTElCX3WdWP7e3jYGRWeaplmG+YsoC+WNqh87zZ2ggLouYHo0QUzahJePhwcEeOO7CRDjx0iSDIbv5zH88Ddb9WoLDQVLRMdlFRZ+IMbHK/FECtJx8ISkOdiOTZxXSCQwhMnBsJIw9Php6DnAvGMnTifb+3LW7jRLpJuNFOCskOPhWY8vfDv1Eeg3qAtfPcVell7gwX5uVAXnpBIJtu/LmVpEEnBcLim8/syb+GbPiYfTx7txp5P2JKaGaV2oB4oatALz3xA7Ppf9ouvQGe1JtdYMB2y0pZCW3zXLbkuxAqBDOHLlvxLsQuX72EBh5tHNPBfKEjb8XwRv37pDKOUjuMxu/sCTo6PkUAsI+oE9PLGq9Zx5IjNUXjh86Nx/0E1Fb0Srk4wJy0NhIuGZ2f1durfzMGnjmmlRoZPl5OGjM2YWcu+0NlWSQDzUKlNidFEeScAmoIjm1AqU2xyb9eg8OgzNuSISUYe4UGnLPqm+L4X8vkjwgpc4Zi2Hh9HQp9QUH17mIkQLyTTFs1XWEGTwDkVz8QA8YMsmdFbJ9ZQV8+Djqm+4FwSj0E3f9RCJjCay3t2MbYUaBRS8VwBm36ORClYNqqWojU/L3V3nie7rT+r5+Kx2+mZdh3w8CWRbc/FZglFzLVfpJDBodBbe+0HQFWzZ04rZ48upNQEq3swNrmRaWJrjeleLaZ+XikdJsByizvKct+4mIAVBmblOvC4NVR0+JgUvvddfq952H98GW30ulsidKNyZOSotFgsEEipXE1AI7dJq1H4y7fiJHnhUHU69PdNVEjLjGXrphD+SRXiLkg/qp4L3IJyeN307bF+gyUXFAsI/m9BNJTO4MM19MdjUPMr537t0PezexigJyUN2Sz+kV5KEqagDHTI8x/rj5FOfWQ2ySi0QWNw87iK7RAkRZzOZYH8X5tYb1UVvTYPWnIhy84dqgrgPemAer0CiAa3JmgHveGAF9BrvT0v74Jg8WPLXH2k+hiX4izEqQgsaYQ0oShBf8sOYtI5eOdLtSgp4F16X4jCKlMMzZ/AoVgHSAkxrv5jkIHrj2iQEwdIJz3sEfi0gnxP1UINLNgAv30niI5HPHe8Zh/kJu03aCNv3MEWZNDIBtBPobBqcdf0o3OOdWd/77NT+VwGfPZfllP5GzbukOY09ylxmevbsG/nPHfrPtbRMxQ7ugelP1vDp3CTKskKg4Z3g8WQZthVglnxYgCk1yM6o8bho1kdvefXwHrPg2T/LBmnyMkVXWWaUwANUKBecSDRqOnJYIF989wJWeUlvTCI9esh5I61PxEe4Q4zUqM6eMWRUi7H7mblaTGtmQuTsa36AUbFTHwuiiFmjEfN+4hwewJXnAIbU85sImhugtZHIQJA/tCrNeGuJIQ1LE8akrUiWnoxyvsSn3QhdSQmipBSstMF/hJ8L5NJLco/Nn3yN5KM1/2g1JcMSZzglxBOX2xMU7gbSN5dVyeTxE4K+YcmMSq336iUTHh8Atr6W4diF99VIerP2xXLL0RetemY3J7lTrAcCKComDnDnLXXuGoqw6iOulYyGS/uR4wgLognmPpXquuM9dwcT01HKj1wdxH9lBJLkCiX0rXKu23sPw6l3DO8GD80dDVGxnV5T/4f39QOpe2X04Bh751XEs0lrFVXmKGvjm6DGWQiGirzi2jIFc1lJFVLipsFLJUWayZrmGmDk2zNy9h1XNa+98cygk9XV2RT55xXYoyq41Ba0E3WXCF0kMytVNiweHBnABQjFWvPxSMFuJTaiwa/oEgY6jS0Ne3yUiGO58axCERzlXR3jt9r2QkVpDdQX/6idywuVxMPkCdzG+iuIGeGFGGtRVM5QYWwDvxwTnNkndJBktiSIV5IHrnu0FPQY4d04kt335QgFplasVb05DV2wqMC7KSa/0JPZx7l1AqPHSnZthy0q5AZK0YS28WPSyNtmjSOjD4YmzZ6TAiRe7K5hIcikeuXi9WXeLMjb2LCnQaWHW1ix5lWFLxR5ZmW5Jq5bL03PubhOfwMxQYdEWHsx8ZFL5FZVZY4yC4kLCLqNzbu4FR57prF3OfyIN1i0uliSCZGVxaYEXVRUHUiRaFkRUHMrxEMwAlfiCzfsk8JcH4NRrEmHy+U33FyFv+OWDfPhlvtkRE5NR0BmD9oREtHoMVXGtaEYIDWUHj1UTLcndpM/LrW+kQHi0syAkY//982L4aV6h6E6glI/Hq+OIzELDHzQ+DC56wF2LhML9dRDfW1sheD8FhnRwmOVLd2/23PRvd0HrvVvK4KkZG8WhVGCEtj0+FEiUiIkIrZo0Ubr/ndGuEETk5R/N2Qu/fYHLclgVI3yQDAZCrREc/xWVdRliB0Nz5aqztkIScRv8va/6iTCBi4v+4cQ2dUyM1KOO7QaX3d/PcX9/+ep+WPa5mW9gTkWBJh/gfiLmBGQhM2BUBFz7b+cCldtWlsP7D2eI2BVdK1nhEMqNKfnar5/IxKnRcPrM7o5rRC4geTMv35wORVkkudDc69766Qjj2Qy6c4YnSWImVINItjn0Guyu2vbC2blwkc4L4QqJq8U72C/avLLQM3ySO3P65bu2wOYVRGO1/3hjoqYGyGC+KE5BOd71jw2BUZOdfdvkOft3V8KT18jtcu2RUPSQ4Ax3JcAvjwtlYyiIMRF/aN/UbTihAAAgAElEQVR+IrLgQD4mUyLyjWwwClQ5uO+wcLj5BWeX5M/zc+D7ebnYeWU+U5q/mseCXHEmAbkLzJf9RNSkHjamkBCABz8/BDo5AIPSt1XB63eQ1gKKi41yWKFIMCFCJ8P+4QAPJZ9EwebJFov7fiIkx+mGuclAamW5+RBY78LZOdyQxdaOXLJFfpqt4oOskMHjw2H6A+4SdnetrYJB48K1Gwt5JNys3UF9TWNjo8fO9FYnvXdrmZF1bhdgxloOKyPNY8IK01b7aQwd1w1mPe/OAiLveenv22D7auRC4wzBbl9j94PQZE0NDuXOSYgjpWYWHj+zZNAD5HAAykxjQVkpVwQLUk41kUFvPFfsTrWfimkpmO9QDDspWExa494z7xDHfbvi6wL4bG6mXKVXqRmFlHKDF7dHPxHM3O3gwHe/O8jIXG/qU5hVC89du4eXNWdNpwyGqtAZQ30lx5YiD0yPqAwQwWMQzBoJXSVJBq/fwNFhcPlj7ipNk/e8+0AW7N1QhRttKnlIqvAQsSxeZVlCKJhzueaZnkASHZ0+5BnBwcFagGgBYm6VXz7O9Ew5313c4dV/bIWNy4ts8z6UbSvcIXKKMr+MMUayF//51ijoNcBdohgpWfKf+8xe5zhmwPgBsxSwgPDmppI5MH+CpZ+CXcCYMSFvJ4m7z1rZT4QxLI56sjMGMEOjwf6IbiHw0CcjnPgBbPytBN57NE01bfj6MdeWRKt26CciCgmSKVipfPNL/aHXwKZBAjVVjfDIebS1chPoBvx0Ht1h7iybgL9aeBGDD4zR0jhOk21xEcy8OSVOSDOt124luVdyfou50LgUi5CQXKjRwanjIsMdPDEM/nafu1jIn4tK4bAzugW8EAl4ApD9VFle5wmLcMaC52VWwUMXrTEylzlTUxIAzf1p9bsyPyyHTCLKH31mElx0pzvYbn0daZe7Hgoya20Zo9U3LFXnkFxo2N+PqgZSWSFMDimgLZsaopQJHY3JN5RufZYYiTwmVXvFgk+1kEyhZRPAZg9BRR9juofC/QucrbrVPxTCh0+bSDZhhXqfvxhT2/YTUV1o6qxveL4fJA9tGvRRV9sID58tYMqCkbLiiih9HjP+du4nEtuzM9z0coqjS44t86KX8+Cv78vM/yLpJWI7zIKWg/1OgoTkhcT1dEZAksZXXSNc1hhyVGE67gUBL0DefnS758r7nfMFyBJ//OIe+OVDlnQmhERTri9bNAhyB4WGBcPDC8ZCdLw7H/BPC/bDF6+lSRBXqZiT5IZS9VZx0sS4zMCx+lHLYHNXHFfqhNMfJ/xZsDmK8LAXDl5cbMrDsNtItai4dcB99kHQc2AY3PGa89ou/jAXvvlvtqLjS5KSCheq4zI4s6E82FsHGG7MfC3cbcR4Hhqrfca6KmiF24jM/855AyE2qel9U5RTB89ctUsIR+b2Q/008LjEbOznz9xekpvKxjoSws99P5GTrkqAo851lxlOqvTOvT4N6muQviLFdezGL59ZizsLAA47I9p106n/PZ8PZ9/ePaB5aEBPnhyWjb8XeEYc4Ry4rqlqgH+cvQqqK0jnN0o2BUZoa64r3dFkLRdg6pV94PSr3ZW4Liuqg4cvWgfVVcQEUoQDPy/WfiLeg+sq6kiu4mu+AyF0TAeB8H8z5slRSzgJjZkkcjxEnb8QXFYhgo0ZLuQkSYa8eFZjAIZMjIbrn3C27L58NROWfU76aNgVhlQZkf385Yi7sBXI73nCG/fBmftHiAOVzsJZZ7FCeCa2Bx76/BCjV0pTnzQSRL99r22RSGpG26OuqIFiuNGk+lNCqqtuqtb2EwkNA5j1n74QGePsDSBz/nV+ISxZaIJZJIwAJV9TbjROf6WfSNeIYLjtrWRHupL7d/5VBYMnBHYwPeAFSH1dgyekk3P11iWfZ8HCZ0mbWMTymDuFb1jv5LRzLUXHdYaHFow18PBuPvOf2g2/L8o1XWTeisop/UQk15nyElOLZL9EyY2cvfEvudDg/Bv/gBijVwq0op8IYxBy5p6cR4MZAtPmT74sCU6+vIcjad+fvQ/W/2rmgdhZY+YDlKKEiJEbXyNrAhtOgjSUMs3oJ2I+lwojdjsV6gm9O8MdbzoX/Nzyexl88Bhxz3krCskGb3Jhq7jks1fJzyvk4tiUXazGXD/7+YsdZr5n/MnRcOYt7tBQtVWN8MKMdCBJhuyjng1v2ep4TOoZOW1GHEw4zbnMCinJ36lzYAfTA1qAvPP4ds/l/3R2cZDN9tgVayBjV6U4hobKQw8XYuh2DFtyYzGNLigIzr+lH0y5oKcjgyMXpKdWwFPXbUQJtTQW4NBPBMNavVkiTJAIb9PB0U9k1kuDIeUQ53piz81IhazdZrE+U6CKuIBwUWE2KSwVIdyYCJMLaZlVChBiTIXTst4tdBfIzBgJLjwsD8Dk8+Jh6nXOAd8/viyERa8RiLIMuUNhA6UJGlLfUQFGVviEixhp/3P2rQSxmfDDriOc3W8dEyHXjOeToecAZzQUeeuKL4vh+zcLmZRTC0FLLka3/US69+0MM19wV3L+qxfz4cxZgevGCmgBsnlFoWf4Yc65H1l7K+GRS9c6av2SpuVFLDBh0i0hFB5ZOM51LaAXbtsCqWtKUS0P8QLVzWR8g6GmvAuivX5oidNYAhmCOUoFDoXaJ5d3bwLeh5FZjKlhASbNSnWfS+aPdf4YXBrfKxTumTfMseJrYVYNPHHFdhfjN1kuHyti+FwmyNLEHuhq45PiliB3G/EFFAxR8u8DzHyun6vy7u8+mA7b/yyX82VU95mX/uKqiw0LVry9ueD1UT+RfqPD4EqXsF4CEnjhunQoI50LcSwGjUVtkKUeTbs45cwXe0H3ZOe4ZKDnhAS0AKmva/SEdHImwVdvpsHXb6eh0Id5mpGnW0psMhPamCJrfT7ZsOfd0heOv8AddHjzH0Xwyj3b5NiDoqraChF6UkTAUy6FLcsJzCBZoiCdsuLXwDks/NCi+eL527lF5DIpbdNP5PIH+hmdCp0+Sz7JhUWvZ3EoDwYXqPLRmpfBBKvSD4XXO6cWBEprMWWgfQMvJVXCkj3ONuCIo6Lgkgec42ak++Fj03dAYz0uFy/WVhICyDLmTdWV7HdmdEjjp0wbB82F20i2TNj4bYElbK9SWl3yYE8YMsHZesRWiKXStd3+d9lP5Ji/xcBxFzsrl6TpVUinwHVjOXNPpxPYQb9/7d4tnhmz3bWs/ddFqyE3rdoeuot9AWjDNkUWEvt49KPxrqwPskEfv2oDECuIFW3EMFKuJdrAiVV0lhqH8Wb326LKuLQR0WoWQyfP4WNCQW77sDiyHFDAwd69Jj9BzJ/1Y0fbF+F9B4+JhJnPOMcHyEhevn0n7N1UIZepp+OS3q64c7i1o7j2cTVhi6aLrRbFWsEZnWJWVgqStrezXh4AcT2dteMNS0ph4ZOZ1iQ7m3plkjKhzN+0FFFuB2PCmHsg+lsjKfQBOI6kzB+vP3lsQkoo3PhCsqtunHU1jTD3ujSoKDbBJXaCH58Z6V0K4twcVhDE9+oEN77izo31yVN5cME9iQHJSwNy0mSTuE0eJFV3Z1+1jgeuWT8C1nUQm82YQbONaMcYp12TDFOvdNYgyTN+/zoXPvj3rmb1EzGNE9mKaErrEwfO3A48jtMB+4n0GhgGNzw7CMIinYEJWXuqYM6MVDCqnWOGxpEFgoHLMWApgiAxLMZsVbCB/R0yfAi7jHDbEDa2zqFBcNVjKdB/pDvN/P1H0mHLH+XGkJjVwC0gGw0HB7olSwkF141nyWxaqtNl7h/zAtlbZxWL8jVWVnTWrEQY57JnyJKFhfDrfFZeSI5XmQAI55ihen6vn0Oq9DrHYlZ9XQqTpgVmUmHACpCMneWe3gOdD+L/3tgH385LF4hHjmdB/RRUHLzivsJChNQumv3pBFfl2hvqG+Ghi9dDYXa1jKKROA3L/hL9RGwtCJTgKB8UO+SRcGcxhoDRSXIZDwZBlTW/3gPDYMJJCbBlRQnsWk86/lHhhIZrURXpL+TxC9aLXXEqoyL/Hzg60iie6LYU/qt/3wm71pdLlYxNBqnOn1k8XNTCMeclQF1dI2xdUQolufVt3k8kOq4T/O2ePjBwtPOeJaPcs7ES3rxnH1UIkIDEmZnU1YYTRfH8OSQNWSzYbcuVKBRQ92U/kdikTnDLa33BjZuZ5IXMuWYfNNQhxJdyTqz7xz6Phwm+yRfGwJRLnN1YOXtroUf/LgHJSwNy0uSQuK199dTM9bB7U5klmCnqAdlGnKkKJuIgTKs//NREuOJ+5wJ/5AHLvsyBBU/vllQ+KdaBPBxqkUbGCCxwX36PFHK00UdRbkIL+okMHhsFNz031HhuVXmDUbdr8x8lsHN9ORTl1gqNH8FUcb0pqwYrmDcvhU/n0jUyGE67qhccdVaCtTOk7cwA1i4ugvmPp8muK8u1QpAwdJapyQJcdn8KjDrGjLFk7ak2BMm2P8sgI7UK6utMDVhKpiN3Ke49u/Iw5k1Cg4dggPEnxsDp1/dwZVWRO412tjfthpx9pFqBHPOQx4SEvhKnMcev9jhp/34iZ9zcHSac0s3LKsq//uy5HNj4a7koqiACkRJNpUoCTTw5eVhXuOpJZ5RkINfGCkgB8tLdmzw3/ftQx01ZW90At53yhxGEtAXIS9UgmIZtHlhvLqO7XhsJ/Q91brVKMOYPTl9jMFtVGGAXlaGJM7eCIlCkCSLBgavQWbQy+ixp/KyWF5aVNnITC7fB46LhpmftIdLFebWwZ1M57N1cAXu3VEBOWhWQ0hDY52HdmGhyhCkGgwHRPXxqAoydEusq8YvRo7qyAZ66ahuUFhjqKg/g4DfI5VhoDghy31yKBAimc31toyFE9m6uNOa3f2cVlBSg5FN+sdDlxfqJsST0CoUxJ3SDiSfHQrfuzqU18BiWfVYA37xBobv0C8mdpJant1gYSPoxSciewyqG0UFLNEOHxIoTkK9UqwwzgaW6fLt17wS3vtEXQlxUDUnfVg3/vcuM+VjSNNWCkPQSY896KUcUFOKBe+b3dRWr/PDxHJh+X4+A46cBN2Gyb35YkO45abpzgGzr6iKYe9tmpeorQg3xQ6X2UxACBzPihF5d4NGPJjgKLnLB6p/z4a2HaBE8GylhaodIqeUHWhwIfDBUS0QNqDedI8J8yqzOl3N9rSGGADEtEDef0sI6yEuvhryMGiA/EwQRaZRFBAsp+d01PBjCojpBVGwn6DMkHPoMCnd1sNV3k4DrG/fuht0bKsyvlCx6TGoLYoq7AQEue0BYIE7zIwlveZk1kJdeA8W5dea8KhqNOTY0gmFZkOB4RHQI9OwfBr2HdIWIaHfZ2Oq792yqhLfv2wf1tRh5JWZlsUCUMsOymFZiJ0yYIIbLxCDfX8YDfNtP5Py7kmDkMc5KFxne89emQXFOHVfg+D7HgX+UOyWqD8huSkaHyx7pAf1HOzeZW/FlCRxxVkzA8dOAmzDZZNv+KvIMHecM8fzyjb3w9bx0C74c113i0Ebe5wNnI4jjTTbyyZf0grNnOjc4Inf9+/oNkLatwqIdqa4qJkhwQTlRacUmY12EFIzB4XiD95InokCk5X10B6nQXuzCcmKw7fU9KUQ578E9hquJfzDiyAadJF2HSp00R4C01/zStlbCf+8lbV8ZGknV+pHBxSsaYxZgB+y2iZ+wy3ArAA64MHaVOWXJIm55P5HeQ7vC9c+6A538OK8Afv+smEPsvbtwrTB7u+oObuMgezdWQ/9RYQHHTwNuwmRfF+ZWe2K7O6MrnrlxPexYX6r05lZKfiiAD8GQ0WGkB+m+eWOgzyDnIOieLWXw9IyNvOeEwePQoRVJgsgyUBFT0utxO102frVirve8FUsNC1TyQ62Wy/I+Bo2NhJufc+7F0V7MlcQF3n90L2xYxkqWOPcTEYdDXQBigfTlMZD2mkNT7yFuszf/sRdqqsj6Kn1eJP8rtRnolLD7kyXcKTqG0OaRkGCxICmIZAN1RkaL8Aq2oJ/Idc/0gT5DnfvbZ+2qgf/cTku9K8oNdrFiF5s8RpklphzaFa583DkOUlpQT3qzBBw/DbgJm14LUQGqqUN5+ym/Q2VZA8rqRsJDyfpiIWkJ3mvwKPOebt1D4cnPJ7riNQuf2w1LPyetasX9NgVPlYq89NFIoDH/rgj4K6+XNERzKxi3YxcFZQpq9VturUgBGP4EGDI2mgfRXU26DS/Ky6iGBU+mwb5tlbJiLAc9BAGxi4PHl1BRyCA5iN6GQ3f16L9+KIavXs8240g4AM/9+8gqQE+0h9kKvygWJJbkR0lzkKG9PLrDJJkP+olMOr2b69a3z16xB8qKGs3zgZBmlrgLnaAaMxGZ6wBdIoLgnvnOXoNADaRrAeLliJYV1cKd01ba7Dlv/aOp1U5dIswcZv9OPCkBrn7QOSZAguf/PGc1lBfXIe+JUjreEsAWR11g+bELQVgbDA/vDYNljY04xzu4W4uqcmQ0pGf3rLnuEjVdcckWXrT8yzz46vVMqKsxGSPPB1CKCyJiUw1erizM5TLlupfc2xfGTHF2g7Zw2K5uIyCAT5/fD6mrzFwPUzpSELLSAZKJdpzkZ7WrbIoeWlBcNMbGgRXt008kPCoY7nyvv6tg+ifP5MCmJaR8i1TWjCoPTbt1LTET8MDf3+0LpDmZ0+c/t2U+P2Nun9udrjuYvg84AfLafZs9Mx5zbjK0c0MJPH3DBmmt2eFjwVVmXThaBwBw8V0DYfJZzpVht6wsgpfu3OpdeAhOoFSAbbr8iKmDMitD6WnOVVHuGLeAzih3YjYKQpl57yfSo39XOGJqd5hwUjxEdGtZULilh40goL5/JwtS14h4B85fUS0qexehguVBfo+QzsEw/PAomHhKHAydEOUqY7qlc1Hvq61uhL9+LIbv386B6kpT01Z9nLJ1waUL/UGsv5lkp1YSMHeL+lGTEc39z4QykmGUVavaF0cou+ynwi0B6jC4/NHeMHCsc9fOVd+UwNev5dsqf+bxYTXNGGKSFz2WMu7ZA658siekDHN2n33yVC5ccE9SQPHUgJos2Tyfvbrbc87M/o5nefmibHj3iR3GdV4RSlQLs7hz1PjD/zfxefCDcdCzn/Pm/+zlvfDTQrNplalQCo1PStxSZoD9u5aeHRb4rbns0uJzHuT7fiLBnQBGHR0LY46LhcFjo1uMMHJaNBIkX/drMSz9LNeA0pr0s+/7jlkqS8+QyrHQm00vjEDoWMLMQQBRsSEw/qQ4Q6CkDItwpSU7zcXue1JOZ8WiQljzUwkVHOZVFiQUzoRQ5i/cMwqMWIG5GnuD/eXVXaV2NURVitugn8hR58bCyVclOJIuN60WXrmJtCgW/W5EUiS2qMUJkFJeFDfgGbckwNgTnVFgv7xfCCdcFh9QPDWgJkt23rJFWZ6jTne2BD5/dQ989z4Jxql9MlBIWcrAZQxfRpuQvUgyaV/8+UhXWuqT166HtO0UYoqOipNrCQscrE3LIQqTSzTlxrLL1mWCTD255rXst+76iRCmlDwkHAjMl/whVko3l90YbZlqejXs2Vxu1LPavKLE6A2BBYFwPTGOKNAIwiKja8ckDo4M0wkK1wYSvFilpiKZwI0HjI6AIeOioN+ICEhM7tIiuDF5HIm/pW+vhLStVbB7fQUQiK4KkWUCRPB7mojITjZK1MTCxi4PQ6wzEpM0hiDy8+32v+C4UliJ26v0bsVQMmnK1CJGV3uWRK7tNbgLzHjOGY1F6sc9dv5uaCRtQuj85VQm6sayPb9KAzWPB44+PwZOuNy56dy6n8tg7InRAcVTA2qy5ICsXZrnGTPZWYt57b4tsGZxvpzZjDQxFbbKVXoFlUU2bo/kcHhowThHzYkkuN1x6grwGDl1WDtCMRCpaqowx00GwvqFi1exAoRIKZVjAX7QT6RrRIjBaHukhEFsYih0iQgxmmx1CQuGLuEhBj2qyuqhoqzeyGqvLK2Hkvw6I1GvorQe0QqHfYWNwVBszNIQGeEiLsLWj9dxEhJZIKRtyuIzdyavXWWiEKjpY/4T2yMUkpK7QPeULhAe3cnIaSHz6vr/7YyDgoOMvJCqsgaopv+WF9dD5q5qyM+ooQU0fd9PhDFvJDrlIsnCmylsVWn/o+IMAsuuFMISBRiZoODuNsS8xVanAkVq1iWSckny6H0fDXSVNPrC9fugIKuOFyBFppoSC0Owe5vtQ8Y27MgI4ppyPL/b/6yEQw6LCCieGlCTJTtg66pCzyETnOvbzJm1Abb9VWLuO7tKt4p1wPzBvBQFs+4BYMQRsXDz086Z72mp5fDkNXLcxV7rRy4VBp1UAuuWIDl2UUmVm1DJEuzUCvB+Itx9Y24Ar/00TMFjX55dXjtzAZjVxg0E7GbjFhBm64qtoPrkUG4K07L53Zgh0p+RXoJ3MK5nwKfEbQ0ueb0UZGjHfiI3vJDiqtnUBw9lwY41xGKzCnSLR9fStteUmUzY9RvZFS5/zLn1wp4NVTBgdGC1uA04AbJ7U4mn/6HO7Sofv2Yt7N1qBmAltw72B6uxDtZdjpnN9Igef2EvuPBW597cq3/Og7ce2sGhhww15E2IMKsDWz8CZYSsEBRHwdfyn5H1YofOwvNvMh6gBCcl95kNrbyOn7lNKONS3SLt0U9EeqfiIOc5EFIcCQsIJVKixmFssj6lDHHuNhIUEo631vcTsZF3HLInuyWpKJLaJB/YfiIX3tMDRkx2jkd883oerFxkKoA4jqjKe0vSrY1bq/eQLnDtM70dLZDM1BqSqxJQPDWgJkt2wP495Z6e/ZyT+R68eDVk76vi1ofEOJFFIiGzVNwg5ULTrkmBaVenOG7Ab99Jhy/fSHNdENApi9w2sC4xMyEubK0sBZ2lxmGEnswDIfzAWiaLpQnO+KY7UApgUzVZcZlbcEFO81cTIJk7T8wVbX/FypAELbLejB9tMtYlkWE3fj/pJ2IuKS7bYdLAvh6UFHKx9DXHzKOp+Zsv8E0/kROviIdjLnCORyyeXwBLFhbzGAhvNmVOlsOdWeTFLgudbf/uKZ3hxpecYy956bWQmBJYVXkDToAUZFd54pKcIXn3nL0SinJrOB9UIYx20oDlQ+BkQvLz+Tf3h5Mucq69xRBYvB+HpPnZyx8uJFTfhKSyMq0VxUxsYjVyUDkw+4mYvM4kDoP9GofEXm2X4c5sDTiyQIhA/JVd/IG9gjFbNV6jeqPQxlQYosVrQ71xrMqvNW9DMH/sWDMpwD6u9z9l0CI2JJg13nJiN9vTCJPcpJ05lqPOjYFTru7uqIwt+7QISFkTdfxUw0EBHKEGyaBt9k4PRCd0gtvf6uv4zpK8eohJDKxs9IATIBWldZ7wKOechNuMLHRSRRVtdYWhe8sDkQKFJAfk7wPhmHOcyyHMf3oX/Pa/bJQAZa8dMpMcHw6cXC80c8nTLpidhU/QQ8zBNPbbwh6h1Tb9RLD7zuI2w9xUZe5KfS9hhSiuSAbQobKBrzL292PrCL2Hu7BsEFpM8LB4h8lPrf1EzPfJgkqspxTBtlYLlpdLbpGL8jLk1RdCUFiSlHmyedIhse8loWfl6HRcQtDy8WNLnAoUubUx3dds/pLbCCdwiuuYcjNxajc448ZER2b+5zcl8M2reZzKkhIgCXpRaZldzM8PpQsBPdyzwDkbnQA8wqNc9Mh2HH3HuSDgBIjbPugzJy+BxgYreSRftcM6M+vg6n8NhcNOcd708x5NhZXfm5ve+FBGgQWGHTpLQlqpqqpNcF2unCoChqzLu8zYKDxXGRNjCE2RAFtHHN0kFE5rKRbZE4bxoiZH5ZnkLEVBlBdRwhQm+SyxB0FUC80syXgyuIBrz3z8cvqePR3Mi0VcQc5uxy42xVuojB9JDOQeU8wf5G8SgsEuYMyB5oo7U6jl8mKLBExMU/lsoGUVgD9pUbh04ltbcjGqSoG0fuaXZA+NOSEazrvDGYa/7pdS+HyOWdJePhLSBlSPmu21QSFB8K/PnWOYgdgfPeAESG11g6dzl2BHET9z8lITR854OT9sGFJr7nJJw6QnFpv8l9492FUW+oJndsGSL7Ka7CfCxuOth0FTSY+ivIp5mLHLinsJ2PjViANinO3RT0TFlEruJJZNbBmj0q9dWmVbFmfhwSwFRGKamAt5s35Q21dJ26UsDCNdDepLlWwt0tnMe5N8PupRNRcKz8qutwkbuhoPEhoKZew29aow+SRhfAD7iUw6PQam3eCsjK36tgQWvSKUMRwPlCDFBgGRm02KVdFzEhwE//rCWYCQXjCdu7hoXOLIfTrOBQEnQEoLazxRsaGOK3TLCcuA5GUIjV9F1lDzmrkn8CbEqKagIDjz2hSYeqWLIPq7ZhBdLhcvBJapVVsb4KgWim2PAwUSJeI1NLiJBIfd/e3dT4TDXXHswcv8sbDxihhTGLY6f8HQ5ZRsgbhSGDZyg1hce0jrZYqEUETM5Es5ZCXEAA5yqwmRXDCpwl+F0bIbUd6KEIx0e1nGj4LcNj1SrFYLZR3oXbKbCr3n/ysxiO0nklmR6DLLi/BsP+/9RE66PAGOudA5iP7rgkL45YMCCyBF6EHq+JElrsy/c9cguPcj5+oVFSUNEBmjXViOzLUjX5CbUenp3tu5QcydZ/xhdKxTNXqFn3lNNMRK65TzesH0OwY6ku2Pb3Pgndk75P4j3AKy75xm91BvTNQcE0s2FO4VqQ6UUFllF5OqJKNxNWUVyYyTxgKUAL88LjmxS2XsJkNXanmpRKCLZCdsLcgsZBqgpGs2O1QohDFEZBmYEp3aGPboLD40aUx27jWLydFEGRZBQI6jY3KPjckrY1dMKGn81C7haqVk35jzRO/hgXI+SUXJwtklqjuLPloIUrau0gbkyhQbCXFfjTneGYb/9au58Oc3pRZTT1giiiBl0ozNEZ0V0sTs7+84B9GLsuKbFSYAACAASURBVOsgrmdoQCnlATVZskfSUss8yYMjHZn5I5evhoydFbzOkGQWKC1rMQPEMQr2kgnHd4frHnXujbF7Yyk8fcNGehs6jDbeF3tILWMAuH6WbGHILhoRdJBMfIVv2MOB27afiNd6XijQb/xosfwwYkoISYWf2mTtI4HKmAk9Her8DRFHGaJi2IlquDY5ImpAnw1fVbzVdD01vkP+L1xsVqYtSR6UaMiVH3K/qgmhwDfy6lgEKbZEaFhKKZkl3GoW5cEH/USueyYZkg9xVgAXPpEFW38vF1KfbwBqaajrhyo8sPkzD2mP/l1g5lxnFGX2nhroOUDngTgy1458Qeq6Is/g0c5luJ+/fQNsWVlMLRCkFaHJ2wbUDf+wqWmzjTh4TDTc+cpoR7I1NnrgH+f8aVg+Us6CXMiH9zmwE1biJaKQHHcNKCOwCA2khbFMXLmfguUBSEOkLj3KFTHSRzA86gbCuQgSBxYDaGr+BoO1KSuiEpi79uhaWBdAdh1xhs4NC6FuqzERGWaL94dcHkV13dAUZzF+S34IZ7u8H4wpsCR13kazNu+TwyZyTAh/Z4mgMFWSC2hzTqYF7rT/rfPH7izjWyywbNANWJPlY0OcnNwSGRsCd707wFWe1H/vSYe0LTX2+S3IrpRcZ5yALCZizn/Q+DC49CHnTPS0LdXQ99DA6koYcBbI+uX5nlFHxjsy8/efSjUC2hz5I0E2FWiTJFSsvtXQsGCY890R0Kmzc/B+4ZxdsOTTbK9uGkmL5AdcXkYcE2GHF+eW4FqB5tCFW4MLJcnN1P79RDAiTEUBIYe6JEg4G7P6GXmNJhFbsd8CquCT4hU+7CdiJ0g4o+WigFpFhnZMV0pFTkkZmNT9h2Mi5kO9zt+yk/24n8jhZ8bA6TOcA+j1dR54YvouqK+hu0gVXoyWSCYL+rLzK47FxKnRcPoNzrknO1ZXwpCJuhaWI3PtyBcs/d9+z+QznXMyfv4oAwgzZy5yuayI7MTnvnYO37fK5TteGAlDxztbPrsMN9YGx/iDN2ivVy0c50coMQjZRcMgspbySO3eTwS7sbjGz7RE5IzHCC07hshQY96Fg+ojVDV+JmYZI7f205DiSMjFhBV7Wy2coZ8klxcW6mIvobg3AlN4tw540Uik/EhWCAJOWF20dkgxMRscS5MMCotFKXak5PZDQk4AFYQ6o7rxyDekL7ob99WudZXw7gOZ1LtprVMmq0zYOkL7AP142nUJcNgZ3RzZ3pofS2H8yd0CSikPqMmSHfDh3B2eC2cNctwMW/4shDm3bpTdyZR52bmOsDtL0vZpItlplyXDOTc4IznIK166czNsWlFEbQM1eC7HRoyDbIuaYRprx+8nIgsSlJfCXCvK/CUhgk02nLhm2QFWIYKVdx7slSSZnKqiGAMiHuLQT4S745R4hWwdysybG47UnWfXFcokD3JDYTMGCSzmMhJ0FmJG9TaZc0SuP5TzKMWZhDno1d2GrTA2fmYhisKQZnB96MRIuOwh53pU5LU/zMuDZZ8UmyRS5m8uHxLKNu4skw7mBMillz7c01Ujqx/eKoBTrkkIKJ4aUJMlW+L52zcsvvW5kcc5SZDSwlr4++l/8MuYH7gpZs02LMZpsmz1lKERcN/bziXdyTOy0yrh0cvWQWNDI/JpW5eKIZLYRU3FRNSgu30egih5wrxaskJ54PuJyLEHysgQY/S6oblrBnWjQ4yELbTk4qL5DkyQWBBclM1Y4g7YR2iTrc7HiM1bxLDs96bcOVBm5MJatObLCEXC+EmB+FKdCMkj/+snEhwCMOvV/pDQ2xl+Tybyyqw0yN4tyhDxc2kzf7Z2eP0lF6/HA3e9399VS9v5j2TDJQ/2DCieGlCTZZvEg+t+NCFJ7rtwJeSmV1uLvyItTBxkL8ceMamH54+HHn2duxKSJ33y0h74aUEmVdJMRikFPjnzoVoWg7YqDAtrYVSn4kF+E0UjymwIt4SYi5SxzbRKHAvwg34iTCNm1hhVPUWypE0Al2u6aP5yzjJnKTyA7U14ccGNvSWCI4kIUwv7iai51HJ2O84pQQKVWgnm+nXsfiJHnRsHp17jHIMgJCcFDV+YuVe2kqgVwhQB6cwiTUpEAgXFE3qFwi2vO+dw0XMWcPw04CZMFrq2ut7TuUuIkxEC7zy+HZZ9lU1VOFZRVOlYxpO6ZO87Rq4wq+XI05PginuHOL6XXNBQ3wjPz9oEOzaUMt1UJFspT3AbD8HCRI0HqIF1nl8g+KiXRAi55Acfmu4nIpxENkxKOng2QV4be1MqiyLHVnhZKilDUboGCTQpk9HP+4n0HREGV81ONrp6uvl8/nwOrP2JlHGXr+dON3ufnA0c3GzoQ1rZnjXLOXBfV9sIoQGWhc70STfrclBdk7ajzJM8yDkXZPnX2TDvsW04r5gqt6icifBHWKPOlGqMwRMU1uyPJ0JsYhdX9CwrqoMnr10HhTm1okcIKmAhLBIxRAFdFQJPfZkkcNhBoyeMu8XQTQIkQCerqmo4814tL6Jkj+t+IqIelnwATaKKtUF++gDtJxKT2AlumNsXIro5Fz8ltCzJq4M51+6FhnoGPbZoPzbn117QsDvPvi0Rxp7gnLiYs6cGegRYDkjACpAlX2R6jjnLGdddVlQLf5/2O3gaRdAQFx/CWrpTbSr2/Ql/6w0XznKuq8M2cObuCsMSIcIE52ZgtwkPlCCB5UZC4ZiJ7fhRpzaMl8fZ4VzLtevaiJBS3qrr2rmNbGM5OBiDkgeZvJIC2NRtiFbNilxWgqn2NcTkJ0i5KcY7EPNRrAxqNirgJpYbhPtRmCtlCfwraouUkY+cmU3N36I40F8IUjqMX6q0RdWVduonEhETAlc/ngxJfd0pW2Rq3/wnF/74slitECbNGm9JXE8Grz9b9eCQILjznX6u4h9//VAKE04JLARWwAqQV+/d6Jk5e4QbHgtP37gOUtcWUz8yPepS/AGDTLyb2QzCSAo5PvjeeOjexzmblg0wN6MK5t62GQqyq1FFWjP8h4UYDpQb3+l+ItztZuvOMYnUZD8NrsMatDTX31xLJq3lALZ5hVgbiVnT+BRmXFhE8d+z6xADVyG8Ssog1awFr1TjNTZGo3mxw/zl8XvZ/1yUYirL7EWF8NodPrZ/YxM7wZWzkyG+l7ugOXlWwf5aePnmfVBfa1btVaZmWxdAvsZ6dvsR99kT7pBfHz+VDRfeE1gB9IAVIGTiDQ2NnuBgZ7/qzx9lwoI5Sn0q5Zy4RUMxhj5oVDe485VR4Ob97KAV59fAi3dshszdlVI+hipEqFThgsY48op1gF1YWNBgZkmPoOBIWK+z8AnKnvjBtaerKtBMLIPuJ8IFP5dJwp1lt37C8pEFlVg/hK01HyCXWJGXy6/6iST16wJXPZYMUXHu3FZkeqSCw5t3p0P61mrhBkTKlbUQqEkfAd4T6AcM8506IwEOm+acu+Vp9EBwiAtmYic1O/jvnDloB5+gt+Hv3lLi6T/M2bdJuhLec84KY5MKZo3NeVpbB7l77LRDfLjJeT7vpgFwyiXO9XXw+GuqGozkxj++zpXQWWrAkN+D4xpNoLMkpJWqqsrYAPseHjxgzi7GjE33E7HPpBc1o5qwW6XAOY+RSBq/vBel5UMtCDjHRO49Sy17XC+KGSc2+SLWyrxMF7WAYjkSDiGtRYIf2txk3ONO6gbTbkiC0K7OFRvwuVj6cSH8+E6+OHZMECvzVxGTcjxdcVcGB8Edb/WD6HhnQZa5oxr6DAmsEiacnx2k8sFxWl+9tccz7SrnLmPkQS/dvRHW/1Yoearteyh7r5irJhp26hwE9701DnoPdO7Prk7mzx/zYP5TO6G6qoHX2xJarMmwnZBZTjEb9Z1qtrrBzFAehMEEpVCRwhb5d3IRRotVQh9jCfRLvh57vIJc20vG1FrzIxTBZppiFneWoIMaUVHVCev85fwQm7oZNu+0dXnZZKvb5/GIMfJcP7YuFnCDBAqnBRG9185Sc2BsLVRLgypEPfyd0k+kS1gQnD2rJ4w61lmhU/dl9t4aePXWvdBoNA+V5y97DJ03EN6LhxweARfd51yxgrx16UeFcOzf4gNSGQ/ISbNN6DYfZOuqInj2lvUiiI2YJ+YBapBbZtIqzDcI4nt2gbtfGw0xCe4DhWzshdnV8NELe2Dd0gKvVoFax8scq+4nYhGeCEaL6SMhxnQ/EZE4jgEIlux5b5URFEuJWkLDj4iE02ckkV7ijkqfekFpQT385859UJLb4LqfiJ3dJ1CGphJB1v3K2b1hwGh3OVtv/zMTrn6yT0Dy0oCcNNuI+VlVnvgeXV1t3Aem/wlZ+8z4g20/CuQ7YDFWXGZEdWGx//cZFAl3vTIKwiKdTWW7gW76oxA+fH435GfWSMFbiwXhIqAuxui9PAqugSQFlG2itJJFgG1e5OlwQoLZjUmtO8VsARy8Nu6zKTzI4lW2Y1MWyR6EoLg6xGKbrhmu8SsaMQ5LYE8PRoxhdJl1AS0VfGUrxLoAasoDr42FCMhBGO3cTyS+Z2c448YeMGSCM5zebt+T/uNv3p0Guftq6dfu+onIAkQodTgVJzElFG5+xbn/B3lxcV4dxCYGVg8QvB4BLUC+eGO356xr3dWn+vWzTHj/6R025ctF3RzhGxb1h6yOAqaJiVySwWO6wW1zRoKbVrt2h4kkMS37Mhu+ey/DKAVvfpDFY+N9wYgtFTaL8z5kNI9aMkNwQtl9pL7eRujiE4t4rS2E1wuc1JgltgzoYM3pKjWz5PCMaYmhB0gODj42EcyW6jxJMR9ZMvLxS+SX528CB1B2uCRrbHVki/9LrB+LwaloQCtzxAJFxGUUy9gYC5K8Pu4nEhUXAsdNT4CJp8YCceO25EP2+zv3Z8DezVUy/tlSGt98vjIdFD9UzgkdzBk3JsLEqc7FE8nli+cXwPGXBFb9Ky1AEAXcorHq6xrh/r/9CflZ1djTijmqHMRjTMZVP4UgGDYxBmbMHgZhES2zRMiU6moaYekXWfDD/ExTkDDMPqtMR3mFnWVkPci6nwiPw+h+IqIcixxpkPc/48eUaZMNyPqJRMV1hmMuiIdJU2Ogc2jzguR4b5I20wtm74ddaytss+6FSDAzyU1Mr1xHTIwLxUzoTGKSOsGs1/q5Em4EWBMSoOgrrDa1RAk4aO7ZsDzfM9JFfxAy4RXf58CbD21FVgi3Oej2M08O2rcib0NCQSnQJkrN3gPCYdZzI11nqntbBJKJu35ZAfz2RTZsXc0Sq8yrsXLtTZA0BfPlORCS8ijcJxYNnJkwaP52AAS+IalLRxStlPiE1JLXnIual8E0eGFy2KOgqNqP+4YzxJHFOvLeT0NdA2wZ2LmQOOTbS7qb2D8iY11yTskLKLm1zPVlC+N9/lJSopSBSfOKfNhPZOCYCDhsWiwMOzwKQkJaZnEwGhN30XsPZgAJnAvkIOufLva3ISCaKDGE5y/iXKY1ff6dPWDUce6C+TtWV8CQiZGtm1QH56QBPXmydi/dvcFz079HulpGstkeufIvSN9ebmHESi4xB4TwnDOp6CD2pwjEFFmM6IRQuOWZEZAypGW+YXUiJAnxt/9lG9DfirJ6biU5obQwQ1fL09v3vmA9MlAcQJGTArWl9DTH6cGSG8pbRSMBBrDPI7HW5+KuOK6iWrsNqjgdWeIK5qy6s6wIpcDuJxIe3QkmnBwDE6fGAilG6IvP/l3V8O6DGVBeWE9DOaxNASsmKt5CHVcWqJ56FtVuiz0GdIEb5ia76nhI3rZgdhZcfH+vgOahAT15tuXy9ld6Enq6ywzfvLIQ5ty2ge9WbATbaT2S/5UyLzs/P4b5du4SBNNvHwRHn9HDF2fPeAbxG6/9NR+Wf5UDO9aVMsteao/bJLSXanWylosPrQO4QFKMxRG3ElJuAGRac6JisEwQ5GbDIAEv8QeT/LqfCA6cS0gDuR4Mh/ZyRouTOZT8kOCgIOg3MgwmnhoHI4+Ogk6tcFOpm371d8Ww6PUcqKsxByCYFnJT0QNkKkYiLiRbI1x74LoBdmdd/mgvGDTWHay+OLcOYpMCN3jOFUyfcagO/KD/PrLFc/UDw1zP4PUHtsCqH3NFt0J6p8QWsd/B4hNuKl9EBDDHHhsPl94zGCK7NR/i2NRkSK+TtUsKYO2vhbBjfTHF0MuNdtT71aC7fR6C7ifCGBjLw5B5roLgQnk0nDHyBA7KJpUEUMmowyo1Za3cg2XZAL7vJ0JcUv1GRsDIydFw6FHREBXb8vid3X6tLG2Az+dmwZY/ynheuWS7q/Nn7mNFuJm0ZcJGBHHMPW1i90YeEwUX3u0u74M87/M52XDuHYFXusTCF1xzzYP8wv17yj09+7nTPspL6uBfF6+C0gICIcS+alMLZ8yAIbCwSx1bGsbmdeinEdO9i1EC/tDDYttkBarK62HLn8Ww8fdC2LaqBEqMOSld23A/BeZfpodX9xPB1pGiNWCmzpLnuAyhP+D17wD9REgwfMi4CDhkUpQBwe0a4dwWoSUbN/Wvcvj02SwoLyYZgkiYYtgzU9yYIOHBR5FGb14uBAXHuHHhA0CQYTe/0g/Co9zNhfQcSUzpor03kjXYklU+iO55+Z8bPTc+7q7AIpn2+mX58OJdm2iQnIM9ZPMa04fyC5yHYBrUzKWiwCn5xjddOOOndIcLbukPcS7zVlq6NPv3VML2v0pgx7oS2LWhzKwCjD6WzHEGnfQS7+C3qowTP1MKegpzjge/bRox2Y2JCz5bjII5ADUjnUpLuoDcVLQpSm++ESOzjF/YtqE1mZaqOMh5GGIGOLeGcyW0/hir7BSnYQUZrdyNzp+6eFSPoshhkRxEEBnbCfoeGg4DRkYY7p2kvu7yplq6/4py6uDbN3Ng83LT6rArwYKX14xtiXiIWqjSPGPUAjEzay0lTy59qJfRMtft58MnsmD6vYEd+2C00lIU7Zq920o9fYdGud1H8NZjW+H3RTmUs5g7VaBsxK/lICsOANt0k7NhXeyAhHYJgVMv6wOnXJLc4pwR15OjF+ZlVsPeLWWwd2s5ZOyogPTUCqipajT7k/CDKbsFmBXGNxk/4HS7YUWd/0pu1OVNaOl+Im3XTyQ0LBh6DwqD3gO7QvIh4ZA8NAziezW/SkJz9xi5nsToln5UAEs/KeCxDsv+oS4njKoTjIzuH4xSY6IDp7Uw65ruX1J/65zb3Mca9++sht6DA7Puld26agGCqPLszWsfvOPFMQ+5PQBVFfXw+DVrjAx1VUuUpIpcJMqSjGgqstZAsbeyGrGJoTD1yhQ4cmoSkCZV7fkh48xJqzIEyr6t5ca/mTsrgeTJWBISdT8RKQGQ+eHFWqPjh4JKkhUiO/0pRLz1/URCOgVDrwFEUIRB8lBTWHRP7uIageSrPVdf54G/fiyGxQvyoDS/QXqsmgAoIOLNm79pKTJlTSgq3ZND4frnkqFruDvXFXnMOw9kwpWPBWbZEi1AXOz65V9neY6c6l4jITDZ2VevhorSBmEd08iplAcgYwgRnLZ5/USYyU6mEpfUBU69LBmOmtb+ggSTkggPIkSIMCF/dm8sNUqrSHJTjZnw6LKc3U7PusXd5AZ2jAP9zDrCjbAYI+FNzqkFxV0i2K9jPoAKe45bsjamQoss3W5TO8tUeg9MP5GE3qHQdzgRFOGQckg49BzQtd2VD3nPeGD190Ww5MN8KM6vp3a33QJQVYzSGe9/9ThjAcOvU0rZs2UNjw6BGc+lQFxP9zDjtT+VkorBWulGhNfEsBEqhbnVntju7k130nDq2VvWGa00jQ8P9JnktSTOKeeEu7347fbLYo0/mD79mMRQmHJeLzj6zB4+R2y5kLm2lxRkVcPW1SWwnfz5q8QUsLgelJAUlF6iQYN9ORNrIUjdT4S6Eel+EzI5CMKjgmHwuCgYPD4SBo+Ngrge7hllS9fczX0VJfWw6rtiWLGoEEryjBK6oo8WtxTM/c8QZVJ8BsP/6BeqS0sKlBvPlPuhdOoUBFfO7gP9RrgrlkgeQQo3dktoYe0VN4TpoNdoAWKzcM/fvm7xrc+NPq45a7r86yx4+9HtQmtFGiyOi+BKR9hdKxf3w+q5PAoZxSV/1yk0CCadmAhTLujls0TE5tDA27Wk5AOJn2xbXWIgvXZtKoUGAvZCEWG1SKNJPpu4iI1V4O29/H7eTVDIKl45mYEYcFyGPVAN/PMYF0uWZLApK0SWMUAr3FkE86USX5Z6X/L8JTgwzYrEAXVSV6rfiAgYQoUGiWV4E8S+WNPmPmP/zipY/r9C2PBrqeHutCsvYoluU5qolQTskIuYFoJWSvCD+rHOvb0HjDvRXa0rNs/3H86Eyx7Srit13bUA8XISmuvKIo/5/LXdsGjePuPgqvxILZHX2n4iTD6x8tNqCZGUoZFw+KmJMOmk7hAV6x/aJyN1bU0jbP2zGNYtKYRNvxdBZblpnagCRVoazMxZoweMwEFaOLlUcnmpOQBU01XxCnJBSP/vJxIWGQLDj+gGI4/uBkMnRLUbsMKt8CAQ3HWLS2DNT8WQtavGUhBSpARSnFQL+4lYOi5i6Y1NGQA4bnocnHhZd7dTMK5b93MJjD0xRvNKG6ppojSxlQqyqzxxSc2DLX7xnz2w6K29vOiUaX1Yq9gKr7r3+lRO/USMx/JaUErbUqq9h3QKMnJIJp7YHUYeGdfisvHNOnHNuLihvhG2rymF9UsKYf2yQqgobuBzkhFXcgMoa2KjfbY6FiQmLzEzlXHCnQSjRfW1uKbbhMAyporwut6AD5Z38piQXC1WzQzn+4dGX6JiOsGhR3WDUZNjYNCYSCDr60+f6ooG2LqiDNYvKYHUVWXg8aj7n4WV6Lhb2U+EL6biphL6hqh6fPxF8XBCM4VHSV4dcRH7F5H9aME1YRwWo7qq3tOlq3uUBnncN+/ug89e2UM1anvGbnHPIJNF5EXZNX8SKQuMIfIpKFxKmPXmMhNmc8jEGBh7TLwhTLol+JdlQlxduzeUwbrfCmHNLwVQZtQ98tISl04au2m8lzxR4icSssl8kBAiLGfAtIjUwoM4j8drUUgqUNSYFXuTqJuGAupSPw62ouYKRsd3htHHxMDIyTHQf0QEBPtZ+21S+Xnbn2WwcVkp7F5XAQ0ETKUUDJP3InMyyXk3TE4L4Y4dU5R6iE7WgLqSS4VsnpOv6m5UA27Op7a6Ed68K+O2m17qO7c59wXStVqAOKw2STC8YfahzfYn/7QwHRY+v8uOZxiMSS4saLKwlvYTwQzQzu+NhRVGJfUZFAHDJ8XCoYfFwIAR0X7lAmls8MDWVcWw8rt82Li8yMgT8OpiQuSz9/urHnJa7BDxOWOhpNjCge0nQgK9I47uBhNPjoch46MguJWVbH3J1MhapG0hCaflkLq6DLJ2E/eU2Opt2U9EnBGUY0jXn1mMqvt42owkOOKs5lVyIMoISRi86L7emkc2sXk0cVycrOY0nsKPW/LFfnjvqe0AjbQODzpkUnYs9tGjk2gwTJf9RIQVQlFfSll5mfliDdGUXZ07B0O/4VEwZGw0DBwVDf2GRUF4lG9rG7kgte0llWX1sGZxgSFM9m4uF9coQXgmA1h2uPF/6q7y5qYSuFx2FFCCpJd+Ksw0Ye4lb4cIZ63bX4OVBnNaKcPCYdIp8TDmuFggMQ5/+JDuf+nbK2HvpkrYvaEc0rZXQ0Nto20/Dgn+oUCcrchtaQHNqUpARrf7n2kQ9AFUEQgOBjjzph4w8bSYZpPxlw8K4IRLA7dRlFuCaQHiklKrf8nxjJ+S6PJqcdmWPwvhP//aCuXFtPUmqttja9a3op+IcYwk7CMt24BWuUlBgu4nlkrPviRnIMJAdCUPiQQSmG9O0lWzieXihtz0KljxXR6s+CYfygrlMit4/h2pn0hUXCeYdGq8ITi692lezM0FyZp1SU1VA2TsqILMHVVAsq7TUyshP72W8XXJuJB9fFjwotIi5qJwv6sag5KdTua1xrlgVUdQvEpVulS7Eq9/eHQwTP9HbyD9SJr7IWVURhwdrXmjC8JpIrkgErtkx/oiz6BRzddmCnOq4dV/boI9W6n2jA6HcGcpR4meDjn/EGvJNi4v7oXxpu+a9zDfscFkmfWj0MEOQhsUDIZQ6Tc8EvofGgV9h0VCr/4RBySQS4Lva5cUwm+f58DuTRWU46huKFz6m2mpInfCex6JFUJMlVqhJXPtml2rFqyhBFWYp6Ej0/Xvd2gETD6nO4yaHHtgaNjggew91ZC+rRLStlcaVkbuvhqzHLqMMTYmI+smztYBr/2FKgpLVgjd8jJC0Q6RxTan2P9Wi1JAtPsc0hUuvq8Pydtoxuk2L923pRL6HRqh+aJLymlCuSRUa4UIwb4veG4n/Pp5phRPwVaIr/qJqA2gvAWXLaU1vAWXpTIrSNAFAYSGhkCfIeEw4NAoQ6gMHd8NIqKbf3CbuQzS5Rk7K+C3L3Jg1Q8FUFdLEhKFH8TUZv2nnwjpez/hxDg4+uzu0Gug+0S21tCH3VtZWg871pbDvi0VhrDI2FENpJSIKAhJ62xJKDU1kG3fT0U2TYStIGDmwj2lFnxkV8v73xRiUjUHLnyttju77rDTY+D0GT1ctaRVabpvcyXJpdE8sRmbTROrGcRqrRAh9//+TTa891Qq1FWT2lFy6pS5GHRJlEigqf0JVJZXoaCcODsrgx8/dQDM24CqlwqN0bpV7DLoySNTDok0erwPnxQD/Q8lUNP2qddFYiUrv82HJZ9lQ2G26TK0dFNE683cKcyskK0xeQEE6AEnI9JrROaa1yq+pCjh5LO7G66qsMj2iS2Rygh7t1QYge7Uv8oMt1QjEQ5coWcbEK2yV47g+34iHIrNjDVm5mBj3FAGEOgB7U1sX5Ik2rNvIQmCzfcQGJaHFh4t4ISqhd+iRwTmTS11ZxFqZadVwtuPbYNdG0p5bSSsV+4InQAAHhNJREFUhTExwn6HvCBII6PuKId+IhIqSSrYh3uX2AgtpHgyF4Pkg0bCR4K2IncFmUeXsGAYOj4Ghk3sZgiVxGR3nR9bs6sIgou4t36avx8ydlZxhtmU0MU+d6leFUXMiT4vuOorzmmgpeIlLKoHkgdHwPEX9YDRk2PaBUmVm15tCAsiNHatL4eaajIuqqjYlMVn7kxe6dyQJaLsOVNchKpjPg0LXwvslvv7mItU5GIY+5ET23yXBMXGwoQqVLIbl90uBDyp8XXe7T0hoY/78kN4f2m3VctPm7ZAWk472L62yDNkTMs0HpLz8NOHGfDFa3sMiCpVtJAGqywNj4nI5T3c9hNpqqwFz1dQNECsg9uWFWGHHTecwhl6NrRNSgmDscfFwbgpCUBgxG39IeVTiCBJXVNmLYTobfyWyK4Q6ayshrQ6qoT//37ZQ8dFGYJj6Pjotp4i7N9VBeuXFMH6pSWQn0EhtdRipWYYqs8mslD4wGzGb2NvSoJDRCNQIiTbP4oQkMhp45PiwkgCK6IOgkijwtuLtH4++YpEOOKsuBbnxuzdXElyazQfbOEu1YRrIeHYbcu/yfIceZr76r3q60jRwQ/n7oQ1S/LbvJ+IpP1RRVN4zOz6KZijFXBU+n+q0yJPN4+5Std6sY7YNQRxNO64BBg3JR6Sh7StMEnbXgE/L8iCtb8WcDehLCewZq00nlLCAN6SDglzG3NsHBw/PanN55OxoxLWLymGDb8Vm5WPWd0o1DCKz0/S+tuun4iUuS/8ZJYqX3wfIoFjkBj1e5JIzgUcdfIGAQw/MgqmzegBMYktj7et+6UExp6gS5S0hgVqAdIa6tF7P355p+e8GwY0O9kQv3rzykJYMGcnZO+rVKwQJbJtcS2ZT2lOPxF8bZPuKXyKEWJGepccKuACxw1ZsVUU3zPUsEomnNi2lknOvir49p1MWLu4UEEbiRHbWmuCG0vVXQ0QGxEcx8XBqVf0gqSUtoPhkpL5axcXGdZGYTaBMKPjK7knkQkgbR8GkW1ePw3M3KWEV2YZ4IRMCa4m7wLJalGsFbf9dBJTQmHazB4weJz7DoLqXiT794d5eXDq1Uma/7k5qE1cownYSgKy21+4a73n+ocPhS5hLU/+Ir77ZYuy4Ks390FRXo2MQLE4gpl10PJ+IurUTc2QAX1lKCsOmPOfeUBTWCpMmGHLpUn3Ge6xTgdErJEjpibCxJMS2iyZMWtvFXw3LxPW/lrIycCDuiyOg6sBqz4bmhlB3HFEcPTo1zaxHSOJ8uci+PO7AiM/40D1E1EhvHJMROxFU5vhSf1Kdj+zYNHOQ9YRJjHuPkt+H929M5x4SXcYf1LrYkmkm+bHT++Hyx5M1rzPB7xPE9EHRMSPyM+q8sS3sm95XU0D/PLpfvj+/XSjJ3lb9xOxq0qLWrhxp7kwSMxtgwPLEhlRvMbOOuJuLqYooxgKEzzkX9JtcfTkODji9O4GPLgtakDt31VpWCTrlxZhriYFd+2KL446JgZOvbIX9OrveyguiY/tWFNmCI0Ny0qgwSh/btcPRWHclHlzmCw93cb4zQcIyK65MPy57FbjMuQOs1s/uYquyINhBDSEDbZE1EKH9HsBXkOVj9k8qX0VGRMCky9IgCPOiIPOoa1D85F+63E9dGFEX7I8LUB8SU36rJU/ZHsmnZTU6ifXVjfAskXZ8MMH6ZCfXW0edqlmFuUBCCkkF5K3CYVyEIzz0vPAOYb7WlxothFnoWqyHhoKs5IYolpuXaBKufCKSwqFw09LhCOnJUJsYsvQNk0tCOn1/r/X0yH1L4KMY8MXcSEGriJB8bNm9oE+g30fsynOq4UVX+fDyu8KoDi3zpIDgYnKIcfYtcZhAlQwSC2FkbChzF0J7diQB8eFTBEjl29BKoVS5BDJK+raxWYJE2i8/JtcudIDEJvUGY65IAEmnBLTasFBxrL+1xIYM0XHO1rNlJQHOHMRX78xQJ73+gObPJfeNQTCo1oe5GOkIlnXq37Kg58/zoC9W8xs9rbuJ8ICnTxQrnIbHhPBsEoxLmxl2LmwnGI26jZhwiwkJAhGHxMHU87vCQNGRvl8N5E+JUSQZO2uFjkkEAS9BoXBmdcnw7BJzWtE5GaAezaVw9LPco2AOHFjsnIe8r1qQEpVJ+TkcYYWM69SEsuZgJa5vJx7jpFZLKEPRV1Uq0zSGFjeBlYELBkyEiicW0jJQ7rCkWfHw6hjuwFZ69Z+SB2v/72UDRf9UzeDai0t7e5v/Qq1xagOomduWVXoGTaheZVAm5r+3q1lsPjTTPjzx1yoJ1nXuNQQs0R4jwWMsVcwR9Sp7dRPRBYkItNQNkoQtFjhc97cVVioqMJG1LFC41c0bXJPypAIOPb8HjD++Hif9vcmLqTVPxbA1//NMLTnqVf3hgknxfvUhUYqE5CAOBEcRmwDl/uwWT9f9RMR3iXh3+IwbrYnsLyRBIl9PxW5krQAdPAxM+ODbVZUop8sK8nOH31sNBxxZjz0Gey7WNKudRUwaGyk5nFtyE81cduQuOzRC+akes6ZOQCa21ekqaFVlNbBnz/lwopvcmD35jJxhpVsclXTV/iBjBxz6CdiSivkdpBglzaJiWgCKpNqam74Wsv4qVsGw1ajYjvD5LOSYPLZSUB+9tWnrsaMPRAG56sPiWkt/zLP+EN+xo3F+DtwrMJShkVeAAZ84L1LuMkhL5YUllAtELasKFZhma80JrUJFn6XGICa8iHiIqY2kDIsDMafGGtYG+FRLQefqGMlfTx+fDcXps3oqfmbrzaul+doArcxgfHj//wx2zPxxNbHRtQh56RXwh/f5MCqn3IhN6Oa520wK8G+WJ1ZFoV9pHiH8gJv/USMy5R4hbAskMVj433BiCfVxcUFiCEs5D7mzM2PczFMlhUEpJwFiZGceFEviEvyfZykNVulKKcGfv4wB1Z+nWfU62KxhKbbscoxCMyQ1fljgcrXhZ5udf3M0iAoO1ySNfJuMedsXUCxfubXxhW8hpbs78Tjju8VCmOOizFKjiT09v0akU6IY47TsY7W7NXm3KsFSHOo5aNr01LLPMmDW45jb2oYmbsqYM2veUZiIskbaK9+IqJWlAjgmloxqvjrLZfEdkKs9pLLisFsJ3vAKBky6ZQEOPmSXu1SOqWp9SClRX6anwWrfyqExnoOh5LQUN4OIXft0RLn1vfIQWxDnlOBbnqjRGRbjYlYBLMo+MITWpl+YD6KIaWEtDDHx5Lc2ViQSkLXv+eAMBh5dDSMOKob9OjfNnkyJGb15avZxTOf6e87f7GPzvvB/BgtQA7Q6r731DbP2dcPgMhuvnO5qFPJ218Fm1cUweaVRbBtdRFUVzYIRIyXsn/cGlDTgunDpZImWO3kjMvcUizIrwb7ZT5kbdlr8irFOlJLpViAX4J5ifEDkPLzY4+Lh5Mv7dUuZVMw/Ynw/uGDLKPXO7C+4Ko1RRk8t0Z4wFuGtTbVT0Ndc2wZ2LmQzHfZBLA53xfJhhhxZYXcWgUJW7su4cEwaEwEDJkQBUMnRBHobJudsorSevjxnVw4Z5buHNhmRG7iwVqAHAiqo3d+/c5ez5TzekNYRNtWaCWVWXdvKoUtq4pgx7pi2LO5HOpqSfNq051hWgq4OKCdvmteYWqv7B652yLSP5vsZ+6E0hL8TAgTLBywV0V20dhBRMFAbk27pg/07Of7vA1Mqaw9VfDNWxmwcVmJNH+cFiH1yeAQbNlRxJ+JglbehYPqYqLVaxVBK6wQVqqFChLr7bR9sJzxwdxextiQJkBqUiUfEg4DR0bAoHGR0Hd4hE8QVE0dzZrKBvjjy0KYclGi5mEHkIdp4h9A4uNXf/nmHs8Jf+sD4e1U6ru+vhHStpXDjvUlsGtjKezbWgZFebWS9t9UnMJ0kJjCQyC5FHc5vUYOhMuxEYOp2aLGTOrI8RCGOrNuW9s4jTlIkQgZBEaplNOv7gMJvXzrSsnfXw3fzsuEv34qBA+JvdvEH7BlZk6O/qXMX+L7Uh0o7/O3xinMAXgPZFP6opw/jJpiN5tGpkDDkRHEJHSGPkPCoN+hkTBgZAT0HhzWbg2xCCx3+f8K4KRLdRkSf2BdWoD4wyqgMXz22i7PSdOT29S15W3KpYW1kLad9Lwuh33034LsakvXQslSwYgeBQEmctVZAqT8Zu5OUdxfduNThZl9HgJt6cs4sAQfFcya9Cc54vQEOO0K0rWude6Vkvxa+O7d/fDH13ngMQ06+pFjAq3tJyJavbJS6vZNsqS4BJ0/EySqkMFjEvJMDoDHdO8EfQaHG03DCMSWCAtfIt3cHj/iqlr+eQGccmUPzbPcEq0drtOL0Q5EbskrFs7d4Zlybm9I7OM7XHxLxlFaVGtYKvu2lcPeLaWGYCkpMOGnllImmGdizZ+aAZLnHSWSMEHCrBFmeXBWjGMguHYWrdvFhIsVmSSsJDu0WEgoGAmJJEbSXBdiVUUD/PjBfvj1k2xoqJN7ePuyn4hp5aGYiAKnlftpqIFsaifSX8uBc/FLRr+o+E6QTATFkHBIHhpu/BwZ07auVac9WbC/BlYsKtKQXCdCHaDvtQA5QIR3+9pnb1774LHn9n5ozOT4duvs5zS2vIwq2L62BFKNP8VQnFfHYyi8zaKlnYPcxwS/w208hAkWyaXCUEA2/n5pHsJsQthj84qomM5w+jV94MjTEx2bPpFMcWJtfP1WBpQX1xv3W8ZvCfIz/V4pEy8kpAqf8gJxwKX16dHl7i/Rs9x8rOggyC0QSYIAxHTvDANHR8LA0VHGvwm9fA+rddpLdt83NHhgyx+lsPLrQrjuyQGaR7WEiO10j16cdiK0L17z2eu7PMeeRXIcfOu/b+3Y8jKrgDRuWrs0H1LXlEB9LQoCYAaL4gI8GC+CBaIfCqv+59BPhLJJxi9t+6lIQkd5F+WzjN1CUr+ucO6NfWH4YfZNwrasLIbPX0mDnH1mXTJZTpgSypLDImSHJS7idfxo/tx1JXnHVIsExzqsVggbEylOOXhslAGnHTIuCkibXX/6FOfWwp/fFmk3lT8tisNYtADpQIvFhjrn9nWLDzsp6bjRkxPaLejulkzVFfWweWUxrFtaAJtWFEJVWYMcyEZBc87ALXEUd9sSJyDa1taSigmKfBKcu8DehO8fMjYajjk3CVIOMQsmkmZUSz/NgR3rykzBIWWH2zNsC724tBEtXVkM3Xym2mvdW1hcPNlp/uQJXSOCYfhh3WDE0d1g2KToVrUbcLsHmnMdcQVu+b3UKHZ4zeP93S18c16gr21TCugFa1Pytv3D5/59/doJxyeOGXOM/wkTUgRy+5oSWL+0ADYsLzJ6nJh9HuzLnuBAuWQ5sGYUNuT0mkGPAulmGEH0OmE/SwKMwmmZZWFYEywT3s5NZTcWVF+MWRc8D4ZLKpwMYsZosGzhpo1kuYiCJ9YUGEUgkd4ZCZ1h5JHdYOTRMYZ7KqSTfx1zgqQiLqoNS4vh6se0i6rtuUTbvcG/dlbbzTMgnvz87RsWTzgh4bhRR8VDVEzr0EW+JhjR2gm6i1gmq37Mh4KsmjbvJ6JkMaA8Fzo7kR0nuiBRYWE3f+6ekgQFzbmQbhDuLMm6oNfgfAwhaLBlYQ7HDkathDHMm4KCIC6pM4w7Ic4QGilDfV9qvrX7gcSLtv1JhEYJXDNbC43W0tNf7tcCxF9Wog3G8dGLOz3DJ8bC4NHdILSr74rVtXaoRJhs/6sEln+VA+uW5kM96c5qy7EFI2V1u7DbxpLMiK0OSYNHzFntMkjvEQgu4ZKSsu7ZI1Aw3unwYOtIKjGivJPl03CkmM27WJs/nB0eEhoMo47uBodPTTBiG5g2rV2j1t5PClHu3lhhNMY6Y4bOEm8tPf31fqcz4K/j1uNqJgWeuWntFcMmxs4bPikOUoZEOqKNmvn4Fl9Oqgqv/D7PECb7d1fy7G0nZFZL+4mo2diGhYBy+nCxRhujQobU4kRHpRS6NH61YZb0Um/CDQfKZVcXqS112NR4mHBiPEREH1iYLRs9Qadl7qyC1DVlsHNNefHMZwbpmlQtPhUd50YtQDrOWvl8pAvn7PD0GxYF/YZHGfkmB1qDJb1Oli/KgdU/5kN1VYOMyqKzV91IhqGh1Mpy20/E2rubMmq7fhyohwV7pyEHmsiiV8cm/i9DbrH1Y6Z5MDQXi914gNSXGn9CvGFtsOC+zzeEyweS8eVn1kJ6aiWkb6uEjNTKeTfPHXKVy9v1ZQcRBbQAOYgWs7VTefbm9Q/2Gx75UP/h0YZQie1+YGCepJXvX7/kw+JPsoC0msWM2I2Qw0LGTT8RpROs1zIk5kDkNBJnJJS5KpLgUwL85mPtEzNJFvjkcxJh7HFxENrVd31JmrNXSLZ92rZKSNteCRnbK2Hm04M132gOAQ/ia/VGOIgX1xdTe+nujR5DoAyLhH7DoiE8qn1dJjvWlcBPH+6HjcsKzRCBUvakSVdWM/uJSIgpqWSXSIIU16gVc+XAt0x7HjjhDjMGLJNKstAIeXAQwKFHdoPjLugBg0b7vm1vU/uisqzesCzStlYa/17z6EDNI3xxkA7SZ+jNcZAubFtO6+MXd3mGTYyBwWO6QWiX9gnOk2TFnz/aD78vMlv52gkOlWlzdxCLQShEsZSmRwLKvIVWAkYQX+kRSC5IdaVw8UGa3+HNTYUDMJ1DgwwX1XHnJ0FC7/ZJFiXd+3ZvLDeC3WfO1H3D2/LcHIzP1gLkYFzVdp7Torf3eUYdFQdt1SQLT6esqNYQJEs+z4aaikZbQYJjIth9xH5WUsglvxR3SUluJmFt4LpddmRWobeWXuaoJS8TcGGRnWDyWYlw3AVJEBnTdv1h2HhJr5LNK0pgx5ryX2+eM2RKO28X/bqDiAJagBxEi+kPU/lw7k7PuGMTYMDIaAgmvpg2+lSV18OSz7Lhp4WZUEmy3b18bNFcapKhlLFu30/EED60FIqlWRavmS5qo2OnlRgagggHBUF4dAhMuaAHHHNOEnSNaDtLrrHRA3s2lsPG5cVwzk0pbbcobbTW+rH+SwG9mfx3bTr8yN59MtUz8cTuMGRstzYTJqTL4uJP9sPPC7OAQILVILtcm6p1/USMBeGZfKhyuyldxHco6cP4tVT6BCA8KgSO/1tPOPbcJOgS3jaCgwiNHWvLYO3iIrjorn76nHf40+SfE9Abyz/X5aAb1acv7/Ycfmoi9BrQNlnSVRX1sPjjLPhp4X6orrBaJE6uJUZwXuaECgS5zIjpymrKjWWfrW6isIiVcfyFPeDY83tAWBtZHPt3V8HqHwvgrJnJ+mwfdKfI/yakN5n/rclBP6IfF2Z4jjgtESKife/vLy+pg+/ezYCln2dDfZ2wOHgmuw/7iRj9ULxUDOaLGBQEnTsHweRzkoy+I22R+FdeUg+rfsiH4y/sqc/zQX96/GuCesP513oE1Gj++/A2z7Hn9ISBI6N9Pu/CnBpY9N80WPldnlHpFlsYvu4n4q3kSXBQEEw8hbTQ7Q2xib7Pqdm9sQyWf5kHl9+vobY+30D6ga4ooAWIKzLpi9qaAks+2++ZdEoidPVxTCB9RwV8+uIeSF1bahEiZuiCHgHqssKVgi1Cx6GfCM8RAYDBY6Ph3JtSoM9g37rsiHuOuKgmn6N7grf1ntTPd6aAFiDONNJXtCMFSKxkyvm9fK6xr/+tED57ZS/kZZjNoAzhgcrE+6qfSPc+XeCcG/rCyKN9WwqKWFRLPs2Bc2/qq89sO+5H/aqmKaA3o94hfkkB4t46aXpvSB4S6bPx1dc1ws8f7odv38kAkkDHLBDDclB7jjSzn0hoWDCcenkfI0hOOv/56kOaWS3+KBuu/NcgfVZ9RVT9HJ9RQG9Kn5FSP6gtKDDn1k1vn3Z57yuHjrNvM9uSdxbn1cCnL+2Fv34p4JYIC7LLlgk7HqY0wUhd40YaWxl3fDyxDCCmu+96sJBy9z+8lzVv1txhukhhSxZZ39MuFNACpF3IrF/iCwpsXlnoGT7Jd66hrauKYeGzuyE/s8baP9Y0T9TG57zoIREnCX26wN9u7w+krIuvPqTv+qGHx+pz6SuC6ue0KQX0Rm1T8uqHtwUFNv5e4BlxRJxPHk0aH333XgZ8/34meBqtSX/sJRhpFRQSBKdc2hNOubQPdO7iG3fVxt+LYNRRcfo8+mRV9UPaiwJ6w7YXpfV7fE6B1LXFHlLQ0Ref/bsr4P1/74J9Wyvse3zQmAjpn3LJPQOg14BwX7wWUteUwNDxMfoc+oSa+iHtTQG9cdub4vp9PqXAi3/fuPbM6/qNSRna+mA7Kf/xy0dZsOjNdKitaZB6eHQODYYzrkuGKRf09ElZln1by+GrN9J/vWXOcF3M0Kc7Qj+sPSmgBUh7Ulu/q80o8OZD2zxnz+gL8T1aXwY9J70K3p29A/ZurjDi5ANGRMJl/xwESSlhrR5/flY1fPl6Olzz8BB99lpNTf2AA00BvYkP9Aro9/uUAp+9usdz6mV9ICyidY2vSI/vH+dnGgLk5It7t7qHPKke/P17++GcG3Ueh08XXD/sgFJAC5ADSn798raiwNL/ZXmOmpbkE3dTa8ZI3GLLv8yFY87poc9aawip7/VLCuhN7ZfLogflKwrs2ljqGTCifdvCsrHv2lgGg0ZF6zPmq8XUz/E7CujN7XdLogfkawrMe2y759wb+0NUrO+r/9qNtayoDj57eR9c+cBgfb58vZj6eX5FAb3B/Wo59GDakgLLvsz2HDkt0Vq2xEcvJdnsy7/KhclnaXeVj0iqH+PnFNACxM8XSA/P9xTYv6fC07Ofb/I42Oj276mE3gMi9Hny/XLpJ/oxBfSG9+PF0UNrOwp8/Xaa55RLe0NIp9ZlkjfUNxpZ7KdfpXuNt91q6Sf7KwW0APHXldHjahcKpKeWe1rasyM9tRxShkbpM9QuK6Vf4o8U0JvfH1dFj6ldKUCsEZI7Ehzi7jg01HuM+lnTrtZWR7sulH6Z31HA3Ynxu2HrAWkK+J4COemVnsQ+TWeb56ZXQVJKuD43vie/fmIHpIA+CB1w0fSQ244Cf3yT4zn8tETbF6z4NheOmKpbybYd9fWTOxoFtADpaCumx9vmFJhz88YHT76s90MptBtiWmoFfP9exm13vDRybpu/XL9AU6ADUUALkA60WHqomgKaApoC/kQBLUD8aTX0WDQFNAU0BToQBbQA6UCLpYeqKaApoCngTxTQAsSfVkOPRVNAU0BToANRQAuQDrRYeqiaApoCmgL+RAEtQPxpNfRYNAU0BTQFOhAFtADpQIulh6opoCmgKeBPFNACxJ9WQ49FU0BTQFOgA1FAC5AOtFh6qJoCmgKaAv5EAS1A/Gk19Fg0BTQFNAU6EAW0AOlAi6WHqimgKaAp4E8U0ALEn1ZDj0VTQFNAU6ADUUALkA60WHqomgKaApoC/kQBLUD8aTX0WDQFNAU0BToQBbQA6UCLpYeqKaApoCngTxTQAsSfVkOPRVNAU0BToANRQAuQDrRYeqiaApoCmgL+RAEtQPxpNfRYNAU0BTQFOhAFtADpQIulh6opoCmgKeBPFNACxJ9WQ49FU0BTQFOgA1FAC5AOtFh6qJoCmgKaAv5EAS1A/Gk19Fg0BTQFNAU6EAW0AOlAi6WHqimgKaAp4E8U0ALEn1ZDj0VTQFNAU6ADUUALkA60WHqomgKaApoC/kQBLUD8aTX0WDQFNAU0BToQBbQA6UCLpYeqKaApoCngTxTQAsSfVkOPRVNAU0BToANRQAuQDrRYeqiaApoCmgL+RAEtQPxpNfRYNAU0BTQFOhAFtADpQIulh6opoCmgKeBPFNACxJ9WQ49FU0BTQFOgA1FAC5AOtFh6qJoCmgKaAv5EAS1A/Gk19Fg0BTQFNAU6EAW0AOlAi6WHqimgKaAp4E8U0ALEn1ZDj0VTQFNAU6ADUUALkA60WHqo/9deHdMAAAAgDPPvGhsjqQNSjhEgQKAkICClN2whQIDAkYCAHJ1lKgECBEoCAlJ6wxYCBAgcCQjI0VmmEiBAoCQgIKU3bCFAgMCRgIAcnWUqAQIESgICUnrDFgIECBwJCMjRWaYSIECgJCAgpTdsIUCAwJGAgBydZSoBAgRKAgJSesMWAgQIHAkIyNFZphIgQKAkICClN2whQIDAkYCAHJ1lKgECBEoCAlJ6wxYCBAgcCQjI0VmmEiBAoCQgIKU3bCFAgMCRgIAcnWUqAQIESgICUnrDFgIECBwJCMjRWaYSIECgJCAgpTdsIUCAwJGAgBydZSoBAgRKAgJSesMWAgQIHAkMSOjx5W8TRQEAAAAASUVORK5CYII=;" vertex="1" parent="1">
          <mxGeometry x="87" y="200" width="60" height="60" as="geometry" />
        </mxCell>
        <mxCell id="OI3G9i4YLYWkQmrVw_ow-3" value="&lt;b&gt;&lt;font style=&quot;font-size: 9px;&quot; face=&quot;Noto Sans Korean&quot;&gt;AWS Rout 53&lt;/font&gt;&lt;/b&gt;" style="text;html=1;align=center;verticalAlign=middle;whiteSpace=wrap;rounded=0;" vertex="1" parent="1">
          <mxGeometry x="147" y="215" width="60" height="30" as="geometry" />
        </mxCell>
        <mxCell id="OI3G9i4YLYWkQmrVw_ow-6" value="" style="group" vertex="1" connectable="0" parent="1">
          <mxGeometry x="123.5" y="100" width="53" height="50" as="geometry" />
        </mxCell>
        <mxCell id="OI3G9i4YLYWkQmrVw_ow-4" value="" style="rounded=1;whiteSpace=wrap;html=1;" vertex="1" parent="OI3G9i4YLYWkQmrVw_ow-6">
          <mxGeometry width="53" height="50" as="geometry" />
        </mxCell>
        <mxCell id="OI3G9i4YLYWkQmrVw_ow-5" value="" style="shape=image;verticalLabelPosition=bottom;labelBackgroundColor=default;verticalAlign=top;aspect=fixed;imageAspect=0;image=data:image/png,iVBORw0KGgoAAAANSUhEUgAAAgAAAAIACAYAAAD0eNT6AAAABHNCSVQICAgIfAhkiAAAAAlwSFlzAAAOxAAADsQBlSsOGwAAABl0RVh0U29mdHdhcmUAd3d3Lmlua3NjYXBlLm9yZ5vuPBoAACAASURBVHic7N13uB1V1cfx773pjSSQhN577y2AtEgRERQFFAWpAhawoqIvRQVsFF8RsIHAq4jSRCnSewdBqVISekII6fWW9491Lrm53HLO7Dbl93me/VxEZs6aOVPWmdl7LxARkTxbGjgJeACYDiwCXgZ+B2yXMC4REREJ5NPAFKC9l3YxMDRVgCIiIuLPKOAyer/xd26PYE8KREREpKD2AF6n/pt/R3scGJMgXhEREXEwHLgQaKPxm39HewpYNnbgIiIiks2+WMe+rDf+rkmAXgeIiIjk2PrAzfi58XduDwEjIm6HiIiI1GEMcAHQgv+bf0e7HRgca4NERCQ/moHRwKDUgcj7xgFnADMId+Pv3P4MNEXZMikcHRgixTEWWBtYC1iz1lbAbvIdbakelm0FZgKzgLnANOAd4C1snPkUYBL2HvplYH6ojaiolYFvAEcRf8z+GcDJkT9TCkAJgEg+NQObAuOB7Wt/V4/4+W+yOBno3F4EJkeMo+i2Ao4DPgsMTBjHEdiEQSLvUwIgkh/9sJv9p4BPYr/u82gGlgg8Azzd6e8r2GPnqhsFHAgcC2yeOJYOi4DdgHtTByL5oQRAJL11gROwm8YyiWNxMZ0lk4KO9nrKoCIZAeyJJW77k89+F68DW2Kve0SUAIgktCPwFeAT2K//spoJ/JfFycHLtX9+Fpv0pqhWBz6MjeH/MPm86Xd1BzbTYEvqQCQ9JQAi8e0EnI29H66yWcBz2OuEl7q0NxPG1Z0BwGZY9b3tsFc1Mftk+HQ6cErqICQ9JQAi8awM/BR71K9zr3fzWDIheBl4DeuA+Ebt76IAnzsUG2mxTu3vurW2CTAkwOel0IIloQ+mDkTS0kVIJLx+WD33k1HZVp+mYMMZp3dpM2r/fwv2lKGz0bW/w7Ab+thaGwcsV/v3VfAi1kFxdupARETKagXgTuJM+qJW7nY7cJrH9V2EiIgEMQGbaCf1jUOt2O0N4FAWP7E909N627ChgSIi4kkT1tHKpayrmtp8bBa/rq8lmoA/evqMZynG6AURkdzrh9V0T33zUCt2uw7rhNiTwcDDnj7rlF4+R0RE6jAQuIL0Nw+14rZbgG2oz8pYR0jXz1yA1ZUQEZEMhgI3kf4Gola81gb8DZulr1G746ek8BUZPltEpPL6AdeSjxvJtG7aghzEpvbBthC4EtgCNz/wEEsbNrmRVIjmARBxdx42pW8M04HHsM5bT2NT7E7GSvtOxcr+9mQ0Nmf9siwe/74CNqPdarW/q5C2al0VvAr8BvgdNkrE1QDgPmBrx/U8gFWdFBGROpxA+F+K92GTCG1L+JoB/bAkYGfgMOBU4HLgUWzSmNS/movaWoB/YHUDQnyH6wJzPMS5d4DYRERKZQBWtreVMDeMt4CzsAt7XjRhTwr2Br4B/Bb71Tid9DfYPLZFwK1YWeBlG9/dDfumh5g1PXCF6BWASPcGY/PBd8wJvw6wKjZl7Djs8XkI07Ab/y+x+fCLYkVgfWCDTm1DYOmUQSUwD7gLuArrFzI14mf3Bx7Biha5+Ahwo3s4kndKAETMBlh53q1qbSPsV34sbcA5WIeuGX38t0WyLJYIrI/t0/Vqf8ekDMqj+div5juxUrsPYZ0uU9m6Fk+zwzruxYoFSckpAZCqGoU9yt4Dq+W+YsJYXsbet9+bMIbYRmFjz7trK5HPa9NC4D/AU8CTwOPYZDzzUwbVjUuw48nF1li/DymxPJ5kIqGMAPbDyvHuQT6mQP0LcASqytbZYGANLBlYDVgeS9CWq/0dhz1BCHH9mgNMBCZhvfVfBV7BRlw8R5gSxL6tCLyAW+XJ/wM+6yccySslAFIFGwPHA4dgSUBenI113GpLHUhBjcb6GHT8HYld00bV/v+lWLLH/SIWJ1qLgPdqbXqnf+5aPrioTge+77D8QmxY6Jt+whERiWt37L1s6t7gXVsbcGLA7RYZhSU0LsfpydGjFhFxtDv2Pj31jb6n9t1wmy7yvlNxO05fRE+JRaQg1iAfU/L21s4JtvUiSxqFvdJwOV53jh61iEgDBgD/g43BTn2D7639Ff2ikrguwO2YvSR6xCIiddoAm/wk9c29rzaR6k2KI+ltgPU5yXrczsRGZYiI5MoXsDHYqW/ufbX52ORCIincjdvxu0/8kEVEujcYq6SW+sZebzsuzG4QqcvBuB2/v48fsojIBy0N3E/6m3q97cdhdoNI3QZixaWyHsNTCV+FUkSkVytjM7KlvqnX097BJh4SyYOf4XY8bx8/ZAmtf+oAROq0KvYuc5XUgXSyAJtFbkbt71TgJewJxTWkLQoj0tk1wNcdlt8DK/0sJaIhSVIEK2AlVtdK8NmvYYVf/otNjNLR3qJY5Xql2pqBN7B6ClncD+zgLxwRkb6NxCqwxXp0/zRwIVYIJU9PG0RcXUT282IRVltBRCSKfsDfCX/TnwScB2wWZ7NEktgLt/Pkw/FDFpGq+iXhbvotwOXAePQqTKphINZfJes5c0r8kEWkij5JmBt/K3AlsF68TRHJjRvIfu7clCBeEamYNbBe9b5v/jcCa0fcDpG8OZns58809LRMRAJqxn3q0q5tBnAMuniJ7ILbuaSOsSISzPH4vfnfic0hICIwFFhI9vNJdQFEJIgVsepjvm7+l2KlgkVksYfJfk6dlCBeEamAP+Dv5n8meuQv0p1fkf28uixBvCJSclthPfR93Py/Gjl2kSL5CtnPrfsTxCsiJXcLfm7+Z8cOXKRg9iT7+fVmgnhFpMR2wM/N/x+obKlIX1Yl+znWBgyOH7KIlNWtuN/8/wUMjx24SAE1A3PIfq6tGz9kESmjzXG/+S8ANooduEiBuRTY2iV+uBJCc+oApPJO9LCOH2EXNBGpz2SHZcd6i0JEKmsMMB+3X/9PYkVORKR+fyT7OXd8gnglAD0BkJQOBAY5LN+OTfG70E84IpWhJwCiBECSOsRx+X8AD/kIRKRiXBIAjQIoCSUAksoawPaO6zjdRyAiFTTRYdnpvoKQtJQASCqfwW2q3huARzzFIlI1/3JYVuediDh5FrfOf+PjhyxSKo/R+Hn3Kup0KyIO1sft5q8hfyLu9qDxc+/wJJGKSGl8GbcE4JvxQxYppTOo/7z7Q6IYRaREriP7zb8FWCF+yCKl1IQl1Avp+ZxbBJyF+oyJiKP+wAyyJwA3xg9ZpPTWAM7F+ua0Yon2f4HzgY0TxiUiJeJa+e+w+CGLiJSPHulIbBMclm0HbvEViIhIlSkBkNhcJv95GnjTVyAiIlWmBEBi28xhWf36FxERKaAVcXv/v3f8kEVERMTVR3Eb/jcsfsgiIuWkVwAS0xYOyz4HzPEViIhI1SkBkJhc3v8/6S0KERFRAiBRreuw7OPeohARESUAEk0TsJrD8i7lS0VERCQR1xEAY+KHLCJSXnoCILGs4bDsO8BUX4GIiIgSAIlnTYdlJ3mLQkREACUAEs/qDssqARAR8UwJgMSyvMOyE30FISIiRgmAxDLOYVk9ARAR8UwJgMQy1mFZJQAiIp4pAZBYXBIAlQAWEfFMCYDEsqzDstO8RSEiIoASAIljILCUw/LTfQUiIgwCDgNuAF7FEux/AxfgVrBLROQDliH7DICtQL/4IYuU0rbA8/R+zv0BGJEqQBEpl1XIngC8lyBekTL6EDCb+s67+4ChacIUkTJZn+wJwMsJ4hUpm2WwzrSNnHu/TBKpiJTK1mRPAB5LEK9I2ZxK4+deC25TeEvO9U8dgFTCMIdl53mLwr8xwH7AxsBI4C3gHuA2YGHCuEQ6Gwgcl2G5fsAhwOl+wxGRKvkI2Z8A3JEg3r4MB87GbvLdxfw6cFCy6ESW9Emyn39/SxCviJTIx8h+Afpngnh7swzwCPXFfiUwOk2YIu+7iezn3/0J4pVINA+AxOAyjG+RtyjcNQF/Araq87//FPAksHOwiER6tyrwYYflZ/oKRPJHCYDE4JIA5Old+mE0fjFdGesT8GNgiPeIRHp3BG7X+Ud9BSIi1XQw2R9BXpkg3u4MwWZNy7od7cCLwK6xA5fKasYKabkcs9tEj1qi0RMAiaEMrwC+jv2ad7EmcCtwPjDKOSKR3u2PTcKV1TPAw55iEZGK+hzZf4FcmiDerpbF3oW6/JLq2t4GDsf6FYj41gQ8jtsx+s3oUYtI6RQ9AbgAvzf/zu0B6u9UKFKvfXE7LhcBy0ePWkRKp8gJwObYjGihEoB2oA0bXbBGpG2S8qt3qGpP7e/xQxaRMipqAtCM/UIPefPv3BYA5wFjY2yclJbLxFsdbZ/oUYtIKRU1ATiql7hCtvnARbh3OpRquhe34+8F1EFcRDwpYgIwBninzhhDPhH4HbBO4G2V8vgU7sfd8dGjFpHSKmIC8OcGYgzdWoHrsaqKIj0ZAbyG27E2DbfiXVIgeswj8kEHAAemDqKTZuCjwEPAP4Dd0fBB+aBTgJUc1/FrYI6HWEREgGI9ARiDjdFP/au/r/Zf4CRgXJjdIAWzIT1Xp6y3zUbHk4h4VpQEoAm41iHWFG0+NoRwV/RUoKqagLtxP5bOiB24iJRfURKAExzizEN7HpuyeIzvHSO5dizux84MYOnYgYtI+RUhAdgK63XveiGdCsz1sB6XthC4AateqJoD5bYxfo6302IHLiLVkPcEYAzwskOMndu+2Ix+//C0Ptc2H/gbcAjWS1zKYxhWsMf1GJkMjIwcu4hURJ4TgIHAXQ7xdW5/7rLuj+NejtVnmwdcDRwEDHfYZ5IPF+PnuDgqduAiUh15TgAucoitc3sXqxrY1VCst/4MT5/jq7VgM8adBGyZac9JSgfh5zh4DA0HF5GA8poAnOYQV9d2eB+ftTw2q1+rx8/02V4GzsfmgB9a5/6TNLbEhuy5fudtwPjIsYtIxeQxAfi6Q0xd2/XUPwRvI+BK8psItGOvCm7E6sFvC/Svc9skvFWBt/DzPV8SN3QRqaK8JQBfxH79+LiIvkW2yVM2wvoM5DkR6GizgJuA7wI7Yv0mJL6x+On01w68iYb9iUgEeUoATnaIpWtrA/ZyjGdD4AqKkQh0tLnA7djUs3sByzjuA+nbaOAJ/H2H+8YNX0SqKg8JQD/gHIc4umvneYoNYANsRr8iJQKd24u1+L8G7IQKyvg0BngEf9/VJVGjF5FKS50AjMYeYfu84T0IDPIQW1drY4lF3kYNNNpagKewjo8nALthj7ClMSvh77F/O/AqmhxKRCJKmQBsixXO8XlzextY0TGuvozA6rL7vPjnob0N3AKcDRyBzcCoUQfd2wy7Yfva9wuB7aNugYhUXooEYCA2zG+Rw2f3dBHdKWNMWTQBE4DrKO7rgb5aKzAR+CfwS+ArwJ7YjIr9nPdgMR2An6F+ndtXo26BiAjxE4C9gOccPrO3dlyGeHxZHfgJ/oaBFaHNB54GrsH6cJwAfAzYBFjKbXfm0mDgf/E3SqWjXYWqRYpIArESgJ2BWx0+q692VuObHkQ/YG/g/4A5pL9Jp2zvYrPZXQ2ci83v8GlsuOIahOmnEcrWWL8J3/voaTTXv3RDE3xI0Q3DpkX9ArBNwM/5P+A7AdffiFZsop4bsb4CBwCHYglQ1aZ1XbrWtujlv5mCjXt/HavWOAUrgPNO7X9Prv27qdgTh9hGAacCX8L/K4+3sdkdZ3her5SAEgApojWxm92+wB6E70R2C9ZhrT3w52QxCxvWdQmwClb179NYmVgx42ptszr+21nYTbMjOXin9r+n1tp73bQFGeMagnX0/A5h5lKYg50jEwOsW0pA74Qkhs+RvTPfPVgHuHVqbQOyzbyX1S3Aftj0uEWyJrA/Fvt4qtuZLoa5LJkQTOvyv6d3+ju99t/vh/UnCTU0shWrRnl9oPVLCSgBEF+asBv0tlgHreWBlYEVsCFzg9OFltk/sZto0W7+XY3FOs7tj40oKOJ3IfVrBQ7DXluJiASxEjbz2z+wzlipO4T5bNdRzhvlMKzPwG+BSaTfz2p+WwvwWUREAhiFPbq8i/KOSz+f6jwyXxcrjnQtxZ99sOqtFesMKiLi1WhsYp3ppL/QhbyAfsvXDiug/lh/gVOAe7HObam/E7X62zzgZ8CyXb9YEZEshmA3/rL/OpyKja2XxQZjsx5+G+tMNpX035Na320uds4O+eBXKiJSn+0IN6NentqD2BA66V0TNgrjKGzY4fP4n7FOzV97Bev0KSJSt4HAj7EORakvYiHbQuxx9wA/u62SRgG7At8A/oglBWXtG1LE1gb8HDunRUR6tRQ29j31hSt0exzY1NM+kyUthU3U9FXgMmxfzyf9d17ldgc2Y6LI+zQPgHS2PDakb/PUgQQ0GfgfrE59a+JYqqQfNjf/xsD6nf6uh36dxvICsDs2JbKIEgB534rYrHurpw4kkOlYlbWfYtO9Sj70x2YtXAdYu9bWqv1dmerVNgjtJeyVzWupA5H0lAAI2OQwd9N7QZWiegu78Z8PzEwcizRmEIuTgTWAVbEEddVaU4W7bJ7BhnuqQFDFKQGQZqxW+P6pA/GoFevH8Gvg78CitOFIIKNYnAyshj3FWgF7crBc7W/oQlFFdQs27FWvwSpMCYCchr0TL7q52CuMq7BZ7d5JG47kxCgsMVgRmyBnDFZMquOfx7K4WuDwRDGmcip2/ktFKQGotk2ARynmMLg3gcew+O/CxvJnLcsqAjZxzhgsORhX++eO/70MNhtm17ZUkkj9aAE+BDyQOhBJQwlAdTUD92PV+/JsIlaY5xWseM3E2t/30oUk8r5+WCKwNB9MDo4k//1q/o3F2JI6EBGJ50uEGW88D7gd+CHwCezi4vJZfwi1A0QC+wPZj/svY+fOAdi5dAd2boU4Z08ItQNEJH+GY+/IfV5E7sEqkXX3SPRzDutVAiBF5ZIAdFfVb2Tt39/nsN7u2hSq1/9B0Bjbqvoi9m7ThyewccU7AZeioXYioczAzrEdgN2wc8+HsViJb6kYJQDV0w9LAFy1Ad8HtgHu9LA+EanfHVj/nVOwc9HVF7Frg1SIEoDq2QcbH+1iHvBJ7N2kOg+JpLEIOB04EKu14GJVYC/niKRQlABUzyGOy7djvZuv8RCLiLi7Cutn4/ok4DMeYpECUQJQLYOx2b9cnA78yUMsIuLPX4EzHNexDzb9slSEEoBq2QEY4bD888CZnmIREb9+ADztsPxI8j8viHikBKBadnJc/ttotj2RvFqI+7TeO/sIRIpBCUC1uGT3LwLX+wpERIK4DnjZYfntfAUi+dc/dQAS1UYOy16CKofVawhWbnUlrKf2C8Dj+BmuVQX9gC2xMsD9sNr1D+De070KWrEJiLIW+XG5RohITg3HbbawbRw+uyozAY4FfgnM4YPb8SZwIsUsvBTLIOCbwNt8cP/NAs7BivIUhe+ZAOu1vcPntqESyiKlsy7ZLwozcZskpAoJwObA6/S9PXdghWJkSWOx4lR97b+JFOdXaqoEoD8w2+Gz13L4bCkQ9QGojuUcln0FPf7vzSrAjVjN+b7sgg3Z0uu3xQYB12K/XPuyKnATsHzQiIqtBUuUsnK5VkiBKAGoDpdiH5O8RVFO52E14+u1G3BMoFiK6CtYn4l6rQj8LFAsZfGqw7JKTitCCUB1DHFYdo63KMpnbWD/DMt9E2jyHEsRNQNfy7DcwbhPaV1msx2W1XFZEUoAqsOlB7o6rvVsn4zLrQZs6DGOotqSbI+cm4GPeI6lTPQrXvqkBKA65jks6/L0oOzWTLRsWWj/hTHYYVk9AagIJQDV8a7Dsqt7i6J8XKZWHuUtiuJaymHZkd6iKJ81HJad5S0KyTUlANUx0WHZNVGtcJGi6I9bAuAyk6AUiBKA6phC9s58A4GNPcYiIuFsSvZ+O7Nwe1ooBaIEoFomOiy7p8OyLnMIqAOiFJXLsetyzuzhsOwrDstKwSgBqJaXHJbd22FZlzncXeYvEEnJpX+IS6fdvRyWdblGSMEoAaiW+xyW/RCwTsZlXRIAl4uoSEouHRyzJgBr4Vb2+16HZaVglABUy20OyzaRffY6PQGQKkrxBOCLuA3ju91hWSkYJQDV8gQwzWH5o7CiLY2a6fCZegIgReWSvGYZijcWOMLhM98FnnJYXgpGCUC1tAF3Oiw/Ejg1w3JvO3zmOIdlY2h3WNZldsaycNkHLvs+Bpdjd3KGZU7D7bXDHeiYrBQlANVzrePyx2DDjBoxhewX69Hkuwa8y5Cpd7xFUVxl3X9jyT5RUTuNJwCbAkdn/LwOrtcGEcm5IdhFN2ut8HbgBRr/pfGOw+dtm2VDIzmcbNvUhpURrrp1yH5cHJwg3nqNJ/t2TWnws4YDzzh8XjswFbfpg0WkIM7F7WLRDvyxwc98wuGzPpdpK+MYi3VybHSbHkoRbE49ReP7bzb5ngr4ULIf7080+FlXOHxWRzs701aKSOFsgPsFox04qYHP/LPD55yWdUMj+TmNb5PLWO2y+QSN778fJIm0fqeT/Xj/cwOfc7LD53S0NmD9rBsqIsVzB36SgBPq/DyXC+JVLhsawWDsF32923NumjBz7ULq33/3AYPShFm3qwmf8H7d4TM6N5fhwSJSQDvi5+LRDpxH3x1KP+uwfpdRBLEsDfyTvn9pnYU633anP3AOto9624d/J9+P/ju8Rfbj/TN9rLsJG43j6/zd2XlrRaRwbsbfReQGYLlePmsLx/UXofZ7E3AQcBfQwuLYZwNXAlulC60wtsN+Pc9h8f5bhE1Q8wmKUat+LdyO9c17WfcK+D1vb/SyxSJSOOsDC/B3MZmC/dLv7iI9AJvdLOu689wRsDtDgLWBlVBBoywGACtjN9MhiWNp1GFkP87n0f3x0gx8Huut7+t8XYDe/YtU2ln4u6B0tEeAD/PBROB+h3Ve6Hm7RUL5NdmP8/u7rKsJq8T5mMM6e2o/9rzdIlIwg4H/4P/i0g48DRzP4hnRznNY17NBtl7Ev+fJfpyfV1vHssCXsOM+xLn5HzTuX0Sw9/NZxrLX21qBB+i7k1xfLWs1QpFY1sXtGP8n8CB2zoQ6H+fTez8DEamYYwh3wfHVvhVs60X8+Dbpz5O+2lHBtl5ECquRsdgp2n3hNl3Ei/tIf5701i4It+kiUmTN2BS/qS9SPbVWeh9qKJLSsoR9dO/a/gr0C7b1IlJ4A4C/kf5i1VM7Ptymizg5nvTnR0/tOjQcVUTqMBi4lfQXre7aRGBgsC0XyWYQdmymPj+6a/8k/1Mni0iODAb+QPqLV3dt34DbLZLFx0h/XnTXLkY3fxHJ6GssOa1tHppKl0renE3686JzWwScGHSLRaQS9gDeJf1FraO9hX7VSH4MwgpWpT4vOtpUYELQLRaRSlkWuJT0F7eOVrTaAFJenyf9+dDRrgdWDLq1IlJZuwLPkf5C91joDRWp0yOkPx9eBvYKvaEiIkOB72HV/1Je9HYIvaEiffgQac+BKdi5ODT0hoqIdDYU+CL26yPFxe+v4TdRpFfXkObYfwmbd6BopZJFpGT6A5/EbshziHcRbAU2irB9It3ZFGgj3vE+B7gKO9c0o5+I5M4w7AJ1BTCN8BfFv8TZLJEPuJrwx/c07Fz6FHZuiXjTlDoAKb21gK06tbWAsfibza8NK236lKf1idRjM+Bx/F1DF2Hv818EHu3UXsISARGR0lgG2ADYBXgdt19J6gsgsbm++38D2A3YEEuIRUQq6UTcLqZt2NMFkRi2xf3d/1ejRy0ikkNDgcm4XVDvR6+0JLwm4F7cjtWpwPDYgYuI5NV3ce8wdVD0qKVqDsH9OP1O9KhFRHJsKdxHDbyGJkSRcIYAk3A7RqcDo2IHLiKSd6fj/uvqe9Gjlqo4Fffj8/TYQYuIFMEywEzcLrBzsaGGIj6tjR1bLsfmbGBM7MBFRIrix7j/yroNdQgUf5qAO3E/Ls+KHLeISKEsBbyF+8X2iNiBS2kdg/vxOBkYGTtwEZGi+QLuF9zpqC66uFsOP1NaHx07cJG+6DGp5FE/bJrVTRzXczVwgHs4uTYA2BvYF1gPm6DmVeB2bA75eY7rHwZ8BtgVWBm7mT0L/A24GWhxXH/eXQPs77iOJ4EtseJVIiLSh11x/9XVDhweO/CIxgPP0Ptj5+8BozOsewxwCvBOL+t/EtjaaQvy7Wj8HIMTYgcuIlJ0PmqtzwbWjR14BPtiv+7r2Qdzgeux+vHj6T4hWBrYEfgScEMD654D7BFg+1JbC/cRKe2oToWISCZrAPNxvwg/ir/qg3mwJjADt33Sgr3bnoY9mnZZ1zRglaBbHNcA4CHcj7sF2PBBERHJ4CzcL8TtwJmxAw/oCvzsE5/t90G3OK6f4GefnBE7cBGRMhkEPI37xbgV2Cdy7CEsjf16T33D79rmYx0Gi+6juD8RaQeew6YOFhERB9vj56Y3jeLPErgP6W/2PbVdA253DGsD7+En2dwxcuwiIqX1c/zcpJ6i2L9UDyf9jb6ndmDA7Q5tGPBv/OyHn0aOXUSk1AbT+5C3RtqfIsfu00Gkv9H31PYNuN2h+epXoUf/IiIB7ICf97PtwDcix+7LBqS/0ffU1gi43SF9Cz/b34INsxQRkQDOxs/FupXizhLoo1Ok7/Zo0C0O55P4Syr16F9EJKCh2GNWHxfsuVgHw6LJ42uAIj7+H0/9Ex711Z5Bj/5FRILbCJuBzseFeyrFnKzlD6S/6Xe0CwNvawhrYFMl+9j+2cCGccMXEamuw/B3A3sem/u+SAYA55P2xt8GnIMVbyqSscAL+NsPn4sbvoiI/Bp/F/F/YZPsFM2HgceIf/N/iGKO+x+J9VfwtR+K+PRDRKTwBuP3Yv4AMCLqFvjRhM1gdxv2qzzUTb8VKwG8F8UsJT4UuBu/SaPe+4uIJLIq8C7+Lur3UuyJgsYCh2LV/xbgvj9asH1yArBCxO3wbQhwO/6Ok/co7rBHEZHS2B+/v3z/gdUgKLpRwO7A14CLsVcFMZA25QAAIABJREFUb2Kd1rpu82zgDeyJyu+BE4HdgKWiR+3fIOw79XV8tAH7Rd0CERHp0Q/xd4FvB27CHhmXVX9gGazfQ//EsYQ0FPsufR4bP4y6BSIi0qsm4FL8Xujvphy/gKtqONYvwucxcQXF7P8gIlJqA4Fb8XvBf5TiDREUGI116vR5LNxFOV4NiYiU0mjgWfxe+J8Elou5EeJkeazqo89j4Bns2BIRkRxbDXgbvzeA14HNIm6DZLMhMBG/3/0UYK2I2yAiIg62pPve7i5tJrB3zI2QhuyODc/z+Z3PBbaLuREiIuLuY8Ai/N4QFgKHx9wIqcvh2Hfj87teRDGLHImICHAwNpmNzxtDO3AmxZsDv4z6AWfh//tdhFVdFBGRAjsQ/08C2oE7gGUjbocsaRlsamLf32sL8NmI2yEiIgEdRJgnAa8B20bcDjFbAK/g//tsRdX9RERK5/PYBd73TWMecFS8zai8Y4D5hLn5HxZxO0REJKLDCZMEtAN/oZglhYtiJHA5Yb67NuAL8TZFRERSOJpwScBrWBEd8Wt3bN+G+M5a0RMcEZHK+Dg2xjvUr8nz0LSxPgwATiVcwjYfGykiIiIVsjP+J47p3P4NjI+2NeUzHtuHob6facCHom2NiIjkygbAJMLdZNqwKoXLxNqgEhiJPUEJ9au/HXgD2DTWBomISD6tADxBuJtNO/AWcGisDSqwfQn3rr+j/QdYOdYGiYhIvo3CJvYJeeNpB25Bvzy7sxm2b0Lv/zuw71pEROR9g4DLCH8TagV+D6wYZ7NybUXgYsI+7u9ol6GOmSIi0osvAQsIf0OaA5wOLBVns3JlJPADbB+E3s8LsO9URESkT1vhv658T20m1ultuRgbltgYbFjfNOLs29fRSAwREWnQGOK8l+5os7FEoIyvBsZhN/4ZxNufd1GNpEpERALoD/wUG84X68Y1Hxs6WIZfruOxd+8h5u7vqbVh31n/CNsnIiIldwBxOqp1bU8CxwEjwm+iNyOwmJ8k/v5qBT4ZfhNFRKRKYv6K7dpmYoVw9gMGh97QDAYD+2MxziTdfpofekNFRKR6UiYAndsc4HpsYqFhQbe4d4OxiXsuJe67fSUAIh40pQ5ApEDmk79x5HOA+4A7sU5vjwCLAn3WQGAbYBesjsJ4YGigz8pqAfl8QiKSO0oAROqXxwSgq46E4HHgeeBZ4AWs6FEjlgbWBdYH1gG2JJ83/K6UAIjUSQmASP2KkAD0ZAo2x/4MbLjhrNpfgOFYx70R2KREqwBjE8TogxIAkTopARCpX5ETgKpQAiBSp+bUAYiIiEh8SgBEREQqSAmAiIhIBSkBEInjY8DdqYMogLuxfSUiIpIbLhMBdXQe3AGbxCdmbYEitHuB3Wv7aJDDejQRkIiIeOcjAeiwJXAV0OKwzqK3FuCvwBZd9o0SABERyRWfCUCHFYCTgFcd1l209jZwFrBaD/tECYCIiORKiASgQz9sXv1bKO/rgUex+gUD+tgXSgBERCRXQiYAna0DfB94yuHz8tKerG3LOg1svxIAERHJlVgJQGerAydgneSK8mTgaeBUYL2M26wEQEREciVFAtDZ2sC3sdcEsx1i8d1mATcD3wLW9LCdSgBEIlAtAJH6udQCGIzNU+9LP2AzYEdsaOEEYLTH9fdmNvAgVnXwXmzs/kKP6x9E9hu5agGI1EkJgEj98pQAdNUP2AjYuPZ3Q2AN7BXCkIzrnAu8AryMPdb/d609A7Q6xtsbJQAiESgBEKlfnhOA3oyrtWVqbTgfvEnOx37ZTwXexcoHvxMxxs6UAIhE0D91ACIS3JRaExF5n2oBiIiIVJASABERkQpSAiAiIlJBSgBEREQqSAmAiIhIBSkBEBERqSAlACIiIhWkeQBEerccNtXujvRdxlbSGwCcjU1RfB8wOW04IvmlmQBFlrQGi+fX3xFYHz/nScqZAIvGZSbArt5icTJwL/A4VjRIREQqbCAwHvgmcB029W2oinnbRdqmMtiOcN/DO9h3/Q3sux8YaZtERCShEVjVvFOxkrpziVcyd1Htc9XvpmdNwAnYk5JY38tC4FHgPOBTWK0EEREpuBWwi/p52EW+lXg3lp7aLcDyITe6oMYCfyf999MOvARcChyDVVUUEZEc64ddrI/BLt6vkP5G0lObDOwVZjcU0q7AG6T/XnpqbwLXAydh/UL02kBEJKFh2MX4JOziPI30N4pGWhv2ZKLKIwv6Y69FWkj/fTTSZmMdCs8C9gVGed4vIiLSybLYxfYs7OIb8z1xyPYQNvKgalYG7iH9/vfRWoCngYuAQ4FVPe4nEZHKWQO7mF6EXVzbSH+hD9WmAwf72W2FsD/wLun3e8j2JnAl1qlxS9T5U0SkW/2xi+QJ2EVzCukv4CnapcBQx32ZZ4Ox1x6p93OKNgPrAHoqNhJlsNuuFHGniYAkhRHAtiyecGcHYEjSiPLjGexpwL9TB+LZesAVwKapA8mJFuBJFk9QdDv2VEREpFTyOBwvz20u9jSkLA7FOs6l3q95bxp+KFHpCYD41g/7tdcxle5OwGopAyqwq4CjgfdSB5LRCOAC4JDUgRTU21jC3DGV8cPYxEUiXigBEFfDgM1ZfMPfARidNKJymQR8Brg/dSAN2gr4E7BW6kBKZA7wLxYnBPdgHUhFRKJYHvgkcC7wCDbFbepHpyna28DV2JzyjwT+rAW1zylCwt6ExRp6mOYjtc+5GvsuUh8PKdqi2n44Bzsnl6vj+xERqVuVhuP11rq+n+18M+6Y0CZ034Zbyfc0wmOBfxB2H3RMoNR1Nr6u/Uyqepxq+KGIZNJ1OF7I6nh5botYskDM2Dr33wSs/GzI2PI6jXCM6XzfAfapM56lWLLw07zAseW1afihiHRrNPBR4EzsfWJVL5LvYb9cTwY+hNuQxBWA2wLH2wr8CEvYUuuPxRL66cdt2L7Nagj23Z6MfdfvBY43r20edq6fiZ376q8jUhHNWEe9s6j2cLyJwOXAccDG+H9M2ozdaEL3j7iPtNPOrlqLIeQ2LsL2ZYjvaGPsGLgcOyZSH5cpWivWj+BMrANvEfqZiEgD1gV+BrxG+gtOHtpxbruzbjtgvfhDbss04BORtqezTxC+ANMkbB/GcFzgbSlKexX4CbC22+4UkdQ+gnUcq2qHqJ7aAmA7h/3aiNFYT/XQ2/Qr4symOKT2WaG352riPZ7ejvIUl/LV2oB/ks/+JiLSi49ij/hTX0Ty3F7HKgzGcjzh+1g8BWwQcBs2qH1GyG2Yh+2rWJbFjoXUx2Oe28PYjwkRybG1gRtIf8EI1dqA5/H3RONO4nak2wSb6z/kPpoDHBkg9iNr6w4Z+zPYPoqlP3YM+Do2X/C0rry2v6OJnURyZyg2zKdsvfh7Go73I4+f8fMG97WrIcSpiHcVfh6hLwX8X4R4L8VmlYzpbE+xtwM/rK2z7MMPF2LH74gG97WIBLAH5encNw37lfEdrIZAT2OW+wE3e/zcg/rezd59GhujHXJ/vgRs4xDjNrV1hIxxRm1fxHZQxni7azdjx2R3OoYffpdyDT+chCU6IpJArNnnQjaXWcuWxt/NaTawUQOf7cuqxBlGdyqN7dsm7DuJMZ1vikfK6+Ev+ZoEjGnw87vOrpn6PMzaOmZlHNDg9ouIg5WxyTxSXwAaaS3Yxe4i7OK3mof9sCn+3ku/AIz0EFOj8jaNcMrpfGMYgb9+GPOwokeulgf2xebnuBd7zJ76fG2kPQSs7mE/iEgf9gHeJf1J31ebjc3edhr2miLUO8PPe4z5WtJNhLI3Ns1vyO/kTXp/bDuh9t+EjGFybVtTaMK+Y1/bcnigOEcAe2Lnzu3YuZT6fO6rvUv90zSLSAZHkt/qe28D1wMnYbMNxvx1d4HH7fhuxLi7Ggfc2ENcvlp3j21jPYW4HbfpfF2d3ENcWdoFEePuhxWgOgbrLBl6cqmsrYW4QzhFKqEJu0CnPsE7t96q48U2AH+vRFpJ9wsVFr9/D/0Y+GHsXfQqhH+d1NEPoaeOcjFMwG5QPrbnQWBQ3PA/oGv1wzz1BToPVSEU8WIgcBlpT+gFWGe1nwAfo/FOTzGshL9H6FPx00fBxXjCz0//HuF7pU+sbUtKq2HfqY/tmYwda3kzBjs3f4Kdq6lnNryMNH08REpjEHAT8U/eeofj5c0u+HtF8hhxptbtzWhsPH/KC7lL8zUXgYsh2HfpY3sWYWWPi2Awdu5+BzuXQ9dt6K7dSPonJSKFNBD4G3FO1BnAn4EvYMPhivz47uv42y8XR469J8dRrAll5hGv4FJfLsbfdn0jcuw+NWPn9rHYuT6TOMfC39AwQZGG9Af+StgTcw7wa6y3cZmy9CbsAudrPx0bN/webUwxxow/XYs1D47F33ZdSblK5Q7CCv38hvBTPP+FuFNuixRWM1afPNTJOB3rpFPPmPCiGg78Bz/7ayE2qiEPBhNnGuGsLcV0vj3ZFpiPn+16Dpvit6zGYJ00ffWT6K5dSdpOoCKF4HNIW+e2AJuvPC8X6NDWxd9sb69hQ/Ty4mAskUt9w+9o02sx5cU4/E2PPQM7lqpgOHAG4ToQ/irepogUz1cJc+LdSdgysXn1MfxVDryXfL3LXJXw0wjX01JN59uT/sAd+Nm2NuCAuOHnwtrAPwlzvJwQcTtECmMf/I1T7mjzsI59VXYG/vbnzyLH3pcB2LAvX0lOozfHn5CvpAjsO/K1jWdEjj1PmoAv4u81SkdrQTMGiixhE/z3yn0R2DzmRuRUP/z9mmkDDowbfl2+SPwE4ItRtqwxB+IvGfonemcNVqTLd0XImeSno6hIUmPxP+HL30lT2CavlsHfPp6FzXyYB8sCvyRN8ZiFtc9eNvhW1mdD7LvxsW0TyedkV6mMwn+BqInYtU+ksprwP9b/YjTkpjtlqBzYYRhWc8FXJ0eXNhurYpdyf+Sxwl/Z9MMqefo8dm6k2HOOiDj5Dn5PqLMo11hl3z6Lv319HfH39QCs9sLbjrGHaFOxpCT2rJFN+J0z48i44RdKiJok3465ASJ5sQN+K/t9NW74hXUh/vZ5rMqBzcAhwMseYw/VXq7FGuuX3Xc9xn5RpJiL7hv42+eLyM88GyJRjMbve/+UJWyLZgA2pM/Hfo9ROXAC8LineGO2p7FqdSHtTrkq/BXJ/+DvWHkN9bmQCvFZ4OWHkWMvA9+VA1cNEOM2wO2eYkzZbq9ti2+r4rfC38oBYiy7M/F3nFwdOXaRJA7G30lzQeTYy2RX/L2CeRR/777XxeZOTzG2P1Rrq22Trxn1BmP73EdsRarwl0c+OwZ+OnLsIlGNxd8vz5tRb39XPt9lXuYYy1hsnn+f/ULy1lqxegErOO6r33mM6euOsVRdf+AW/HwXU8nPsFIR73z1Vn4GG5srbnxXDswy6+JwrPd8rPKseWhzsBErWY5hnxX+rkGjZnxYCvg3fr6T6yLHLhLFQfg5Qd4FVo8ce5kNx1+Z3flYFbp6DMZ+fYaswNZbew0b8nYk/grnNNqm1vZBva9PfFb4exr77sWPNYFp+Plu8jjbpkhmSwFv4n5itAH7RY69CtbBX3W9N+m91HIz1jve9/Sq9bZp2BOHIZ1iGojNLzAlUUyv1T6/t6l3fVb4m0k1i2OF9lH89F15Gz3hlBI5Fz8Xrh/HDrxCfFYOvJ3u+2dMAP7l6TMabQuwDlu9Tb86Gns0PzdRjM/Q/dBB3/UcPtnLPhA3P8XP93R27MBFQtgQP3O1P0D+Kq+Vjc/KgT/ttN5t8VeittHWClwJrNbAflgRSxZSdUh8ANi5Uzyq8Fcc/YF7cP+eFmFF0kQKqwm4E/eTYQZhxprLknz/0vw6cK2n9WVp1wDrO+yPDWrrSBX/tbV96OvJzC2owl8Mq+GnTsUdqJOmFNhn8HPhOjx24BU2Bv/VGWO3u4HtPe6T7WvrTL1dLm0imm0upqPw870dHDtwER8G4mfu9r/FDlzYjHTvwV1aT+/QfZkAPJGD7Wy0zQO2DrA/pHd/x/27m4imaJYC+hruB/9UYLnYgQsAR5D+xtXIRfIw4hTgaa591qRI2+ajHRFkT0hfVsDP0MATYgcu4mIkfsZ3qzRpWr7rn/tu75KmBC8sHjroa2bLUO3CUDtA6uJj4qZ3sKHUIoXwI9wP+ntQB5jUfFYO9NlcZtLzLc8zGT6EHh+n1gzch/t3eVrswEWyWB6YjdvBvhDYKHbg0q2VSTdBTnfHxQX0PtFQKstjv7bzUstgCqrwlxeb4n5czMImgxLJtZ/jfvH66QfWKintRtobWxs2ln+d0BvqwTqkr2a4CPvOJD/Owf171URokmvLYJmq6y+XkbEDlz59kzQ3s3uBHSNsn29bA7eRZp99I8L2SWNGYe/yXb7X2Wgop+TYD3C/eB0bPWqph+/KgX21/xB2SF8sE4DHiLffVOEvv76M+/d7SvSoReqwFO5DXp6h+znkJR+GYzfmkDewSfRdGKdomrBk5r+E3XfPod7iedYf9/PnXWBE7MBF+vJt3C9gH40etTRqPfxMc9q1TcZ+IQ2MtynRDQS+QphOlTOw70bybX/cv+tvRo9apBcDcC9V+jB6dFkU++Gvk9tsbEhflfp9DMOGDvpKpFThr1gewu37fh0VRpMc8THn/4ToUYuLM3H7vhdiEw1VeabHMVjyMx+3fakKf8WyN+7XyzL0j5GSeBC3g/me+CGLo2bgRrL9Wr0SWCt+yLm1CpYMtdL4/ryVcvWXqIq70DVTSmAb3LPZXaNHLT6MBh6l/u/5ZmDzJJEWwxY0Vo75EfIxG6I0bg/cr5tbRI9apIvLcDuIH4wfsng0Gricvm9Uu6cKsIAmYPust316Kbr5F53r8NDfxw9ZZLHRuJeN/Xj0qCWErYFzsXnPX8ISu98CO6HOnVk0AR/C9uGD2D69D9vHWyWMS/w5ELdr52w07FMSOh63A/gZ4pRwFRHJm37AC7hdQ4+OHrVIjesjLB28IlJlX8LtGvpA/JBFYGPcDtz3sPHQIiJVNQKYjtu1dIPoUZeEHj9nd7jj8r/D6rqLiFTVLKxDp4vDfAQiUq9m3Gb+awXWiB61iEj+rIvbzJovo462EtFOuD2y+mf8kEVEcus+3K6p28QPufj0CiCbgxyX1/hVEZHFLnNcXlMDSxTNwJtkz1TfBQZHj1pEJL+Wxq0mxET0GkAicJ369/z4IYuI5N7VuF1bN40fcrHpFUDjPuK4/BVeohARKZfLHZff20sUIr14mOwZ6pso6RIR6c5AYCrZr693xw9ZqmQs2UqWdrRz4ocsIlIYF5L9+tqC9SWQOlW508TK2HC+DYB1am1krY0A+qcLTaQurcBkrFjO/wHXYBfCGMYBXwT2AdZGRVkk31qwSYdm1NoLwPNYPZZ7gNfThZZOlRKAZmBnbAjf7sBaacMR8e4+7Ph+I/DnHAr8EkuURcrgv8BtwJ+xVwltacOJowoJwHLYL5VDgVUSxyIS2mvAtsBbgdb/JeB/A61bJA8mYfMSnA+8nTiWoMqcAKwKfAs4Ao27l2q5HXvK5dtWWPU1vR6TKpiHTdr2E+DVxLEE0S91AAEMBr4P/AnYHl2spHpWx27UL3le7++xvjIiVTAAm/flOOxe+RDWl6A0yvYEYDfg18CaqQMRSewS3CtWdjYWe61Qxh8NIvV4ETgauDNxHN6UZUx6P+BUrMiObv4i9rjep83RzV+qbS2so+BZlORcKEMCMAq78Z9CSb4UEQ/GeF7faM/rEymiZuAk4CZsyHihFT0BWA64A3v0LyKLveN5fe96Xp9IkU3Aht2umDoQF0VOAFYD7gc2SxyHSB496nl9/8ImHhIRsyE2idCqqQPJqqgJwFjgZqy3s4h80B89r28q9qpNRBZbHbsX+X7lFkURRwEMxx77++7kJFIWtwB7BFjvFthQKA2tFVnSI8CuwJzUgTSiiJ3mLgH2TB2ESE5NxObnD3EhegvrC/ARivnjQSSUFbGZZq9JHUgjipYAHAN8J3UQIjl1F1YTfXLAz3gEGw+9O5phU6SzTbCiQk+kDqReRcri18U6IumiI2IWYXOVP4jNXX59xM8eg82Qti8294bKsIrY9MGbYsWFxKNbyF4nurf2Elb04WDsi1ua4j0ZERGRnvXDru2bAZ8GfgW8TJh7yk2RtqkyPo3fL6gV+CuwI8V6CiIiIn40ATsBV2H3BJ/3mE9F3I5SGwC8gr8v5l7sl76IiAjYVNf34+8+8yIaLePF5/HzhSzC6gUUde4DEREJpwk4AViIn3vO5+KGXz7NwLO4fxGzsd7RIiIivekYRut633kG/eB0shvuX8I8YOfYgYuISGHtgt07XO8/u0aOu1Quwf0LUGcMERFplI/O5xdHj7okhgGzcNv5/xs9ahERKYsLcLsHzQSGRo+6BD6C245/FasbICIiksUIbHY/l3vRXtGjrlOeOyi4vjv5Htb5T0REJItZwPcd17Gbj0Cq5jGyZ1yvoDGYIiLibgBWZCvr/ejR6BEX3ADcxmK6ZmwiIiIdTiP7/Wghdk+TOq2H2zuXdeOHLCIiJbUBbvekdeKH3Le89gFwuYG/DjzvKxAREam8Z4A3HZbP5Y/SvCYAqzgs+7i3KERERIzLvcXlnhZMXhOAEQ7LvuAtChEREeNyb3G5pwVTxgTgXW9RiIiIGJd7ixKABrjMnDTXWxQiIiLGZV6ZXE5Kl9cEoMlh2XZvUYiIiBiXe4vLPS2YvCYAIiIiEpASABERkQpSAiAiIlJBSgBEREQqSAmAiIhIBSkBEBERqSAlACIi+ZbLSWSk+JQAiEiVNAH7AFcCrwELgMnATcDhwMB0ob1vKPA14GEsvpnYBGd3AEcC/dOFJmWiAynfhmBlJFcHxgDDaq0/dmGYhV283gBeBKamCdPZlsA2wNLADOAx4CGgLWVQnq0CrIRdyCcC05NGU03LAX8Edu3y78cBe9baN4FPA0/GDe192wJ/xY6VzoYAu9TaicAngP/GDKyTkcCHgdWw61IKc7DKr3cCrySKQQL5BdnrLn85Qby+rAsci/06eQVopbFtfwP4B3ASdlPN+xOefbEym91tyyvAIelC82Iw8A3sQt152xYBtwC7pQuN9bDz7FksKXGpdd5Xexe4D7u5pnqcPQ54qZcYO7cZwOYJYtyW+r+LKdgPg5iWBn6J/fgIebw02m4FNgu43R2+7BDjLyLEVxpVSgDWAk6l/otTI+1N4Dxgu1gb04AfUd82/Jr8JzLdWR34N31v3/8S90lcM3AGloSkuFhPBvYKvpUfdEODcU7EfunGMhR4tcEYHyLeFLNrY08ZUxwz9bR5wKeCbb1RAhBJFRKAvbHHV23EOUEeAw4jH+84Gz2RfpgmzMyWobGL5fkRY7u4gbhCtRZg/9Ab2skuGeO8NGKMX8sYY4z9OAorhZv6uOmrLQB2CLQPQAlANGVOAPYHHifdSfIK8HmgX+Dt7MnyWFWtRmJuATZMEWxGf6Tx7yXGr+IjM8QVqs3ig++5Q/mNQ5wHRIrxwYzx/TFCbD/PGFuK9izhnqgpAYikjAnAWlhP49QnSEd7Etg+6BZ375SM8V6QINYs1ibbU517A8c1AOsjkvq469wuCrrFi/3LIcZ3sM6DITVhj7CzxPds4NiG0HjCnrqFSqZLlwAU8d1q0TQD38XeB++ZOJbONsFuOr/Abg6xZD05U7w3zuJjZHsvuz1hbzS7AisEXH8WBxLn2HPpqT4G+C1h37WPwDqMZjHOZyDd2BEbeVQkRblWJKcEIKxlgZuxDm9ZT/CQmrGs9gbiJQGrZVxuZdK9tmjE+hmXa8aGfIayZcB1ZzUKWCPC57he5/YBjvYRSA9c4gt9DV8t8PpDWC11AEWhBCCc7bBHjxNSB1KHCcCZkT4r66+JflhP6bwb7bDsMt6i+KBU47X7EnKbfTobe71TNe2pA8igiDEnoQQgjI9gY1NDvzv06SvEH1csSwr5mDmvT0/eSR1AnYYBfyC/+zGUiakDyGBi6gCKQgmAf4cA11K892YDsBnQRGKZRrFmcdsem2SrSu7FRmwUyQ2pAygKJQB+7QdcQtxOdT7tmDoAqZQrsSGeRXIasHXqICKaD/wqdRANeAq4LXUQRaEEwJ8PAX+i2PUVQvcoFukwi+JN8AR2fv8BGx5XFWcQfrihDwuAYyhXDZGglAD4sTr22L/oF4WZqQOQSmjBXpW9kTqQjNanmMlLVjOxkRDPpQ6kF3OAg7HpkaVOSgDcDQSuwK33d16kqoAm1fE2Ng329akDcXQiH6wqWGavYCObfo5NWpQX7VgBtK2xH2HSgCI/rs6Ls7BStqG0YBXzXsB+Mc3BDvqlsSFU6wAb46d38l88rEOkqynA88A1WHGnOWnD8aIZqxWwCfBe4lhimYFVtzwFS37WoPenntsCH8/4WQ9hx0tPWoC3sHoqb2b8jMpTAuBmO+CEAOudhdUE/ytwD333wh1ei+UArCd/lipmNwP3Z1hOyu9ErKqkLGkl4FysyFaVzAH+Xsd/dyzZE4AngB9nXFbqpFcA2fXH5qf3uQ/fAr6OTdl6BDacpZ4hOLOxeQeOqy17JPBaA5/7OnB4Q5GKCMChhC9DKxKEEoDsjgM287SuFuzd2rrYjGOzHdY1F/g9sB72qK6vx63/AnbCkg8RadyvKNakXyKAEoCshmAFfnx4HdgNe7fmc8KNucDpWBXCs1lydqw27HH/0VjnmYmISFZjsPk/Qs7kKOKdEoBsjsRPxv8k1oHwHg/r6snb2GuF1bGqYythCcwOWJWzok3EIpJHewJHpQ5CpBFKABrXH/imh/U8BuxM3Efvs7GRBAsjfqZIVZxDNQsGSUEpAWjcXsAqjut4ERsLPcM9HBHJiWHYq4CqFQySglIC0LhDHZefDxxIcaqgiUj9xgPfSh2ESD2UADRmNLCv4zq+h41xFZFyOg3YKnUQIn1RAtCYDwMk22KnAAAMGklEQVSDHZb/N5pQRaTsBlC9gkFSQEoAGrOb4/L/g3rdi1TBBsAPUgch0hslAI1xKf7xLHCdr0BEJPe+SrUKBknBKAGo3xis8E5WF2NFfESK5lzs2G20zQf+C5wPbBg96vQ6CgaVoVKolJASgPqt57j8FV6iECmOQdhMlMdjk179mOoNkVsJmx9AJHeUANRvXYdln6ex4jwiZdMPGx53CcWaMvddD+s4jOxV8USCUQJQP5cZvlRmV8R8FqtBURTHAq0e1vNrVDBIckYJQP2WcVj2OW9RiBTfacDA1EHU6T6smJYrFQyS3FECUL/hDsu+6i0KkeJbjmL1jv8+1ofB1Z5YITGRXFACUL+lHJad6S0KkXLYMnUADVgAHIKNanB1LioYJDmhBKB+/R2W1eQ/IktyeaWWwtPAKR7Wo4JBkhtKAOo3x2HZYd6iECmHIhbD+hlwl4f1jMdPSXERJ0oA6jfLYdmx3qIQKYeHUweQQRtwOH5e6Z2OCgZJYkoA6udy0rvMIChSNm8A96QOIqNXgK95WE9HwSCX4mIiTpQA1G+Sw7KbeYtCpPhOBhalDsLB74CrPKxHBYMkKSUA9XveYdkdUKYvAvAb7Jdv0R0HTPawnq8Bu3hYj0jDlADUzyUBGAzs7isQkQJaCJwKfCFxHL68g59taQYu9LAekYYpAajfy7h1BDzUVyAiBTEDeAr4Kfa4+zTKVRHzOqzKp6tlPaxDpGFKAOrXglvHpY8Dq3qKRSSmE7EpbBtto4BNsSJAL0WPOo6vAC+mDkIkCyUAjbndYdkBwEm+AhGRXJgNfB4/BYNEolIC0JhbHZc/GvtFJCLl4atgkEhUSgAa8yQ2JWhW/bFe0EWphCYi9fk+1t9BpDCUADTuMsfltwZ+4iOQDNYBvgNcDlwJXIDVZx+SKB6RslgAfAY/BYNEolAC0LjLcS/ucwLwZQ+x1Gsc8CdsKOMZWGWzTwHHYgnNa9h7TBHJ7mlsqKNIISgBaNwbwJ89rOdc7AYc2irYO8qDe/lvlsGGM+k9poibn+KnYJBIcEoAsjkDKwziohl7BP8jwpUGXRm4E1irzv/+q8RJSkTKymfBIJGglABk8wxwjad1fRe4Bf9zBKyLDVtcvcHlzsLGb4tINr4KBokEpQQgu5OAeZ7WtSuWVHwPGOFhfUcAj1H/L//ORgIHeohBpMp8FQwSCUYJQHYvAWd6XN9QrDLYROCHNF5CuBnYD3vf/ztgmEMsH3JYVkSMr4JBIkH0Tx1Awf0EG/qznsd1Lo2VSz0Zm3fgDuAhrAf/69jMYwBjsM57G2PVxHbH32uElT2tJ4ahwKBu/n07MD1yLCKddRQMujZ1ICLdUQLgZgHWu/5BwpT73ZQ0MwcuSPCZ9Wi0Y9Ui4FngauAXwHveI6qGc2stq2nAc9iN8ELcimoVTUfBoMNTByLSlV4BuHsS6z1fJmWZ0WwAsAk2NvslYJ+k0VTX0sB47InZi8BeacOJTgWDJJeUAPhxIX7KgubF9akDCGA09mvsY6kDqbhxwN+B/VMHEpEKBkkuKQHw5xjswlZ091PeiUz6YTMfqv56Wh3fw0qpA4noPuCc1EGIdKYEwJ8W4CDg3tSBOJhJ+acEXgqrTy9pDccK6FTJ9yjP6zUpASUAfs3F3m/ekDqQDOYA+wL/TR1IBAcCTamDEA7E+mlUhQoGSa4oAfBvDjYe//epA2nAXOCjwN2pA4lkJWwIpaQ1ClgjdRCRqWCQ5IYSgDBagKOw2QJdKweGNgu7+d8Z6fPy0hFq6dQBdKM94Lrzst+7qmIi9jP8vSoMecy4crn25fV4LRUlAOG0Y8OexmNzg+fRi1h8d0T8zHciflZvQsUxzWHZqd6i+KApAdftIi/HQ0ytwKH4mQ8hz5NduRxzb3uLQnqkBCC8R4AtgPPJV1b7F2Ab4D+RP/fByJ/XnecINynQcxmXawNe8BlIF48GXHdW04iTHLtU7gx1zvoqGPSSh3WE8hjZn1Dk8XgtHSUAcUwHvoTdcB9IHMtk4FNYB6wUM+NdluAzu/pjwHVfR7Ybzv2EnTf+buCNgOvP4krivCLL+pShFXjXZyBd/Bb3OTfy3G/nDbLF9zZxn0pKzvwCyxyztC8niLdRO2InftZtzNJmY6V+R0bYvr7cTNxt79xew0/Fxd5cniGuPQLHBDbEM9V+79pmAisG3drFfp8xxscjxLYs9qg8S3wtwGoRYnQxHkukGtmuo5NE2rcvk/14/0WCeAur7AlAh+2B32BPCEJdaCcC38aKB+XFctjj7tg3nVnA1hG2b2lsOGUeLw6/bSCuUG0RNuQ0lj0zxnlSpPj2w54aNRrfryLF5+ob1L9Nf0gUYz2UAERSlQSgw2DskfzFwCTcL7CvAr8EJmCzruXRcsBNxLvpPI3VBYhlNaxORF9xnUvc76gZOB1YWEdsIdpb2HEZ210NxvkGNllRLD9sML4nI8fn6kgsAe9pexYBZ5Dv19JKACKpWgLQ1VrAp4HTgCuAh7HOPlOAedjJMg17nP0o8FdsxMHB+CsJHMsELPF5BntXO63WFlHf9z2v0zJd2/PANcAhpKl8OQgrFPUcS8a8EHsN8qEEMXVYG/g58G/s9VDIm/5k7F3wV4FhMTauGythN/V6j6nxCWL8HvZYv6/47sdqKhTNstg17VHsqeccLDE/F78l1UNRAhBJ1RMAKZ8VsVc+m2DTEUt8q2I3n96uH69h31Mq22LJYXfvzV/Brm8q455G6RIAHUgicbxB/nrhV80kbCTOIcDnsBv9cGxq3qeAP2OVPeemChB4COuzMA5LBpbHHp0/jQ3ZdRnSKLIEJQAiUiVt2FDUjuGow7BH0XkzhXKW5ZYcyXOHCxGR0PJ48xeJQgmAiIhIBSkBEBERqSAlACIiIhWkBEBERKSClACIiIhUkBIAERGRCsprAtDusGyTtyhERESMy73F5Z4WTF4TAJexuanmGhcRkfJyKSM+21sUHuU1AZjlsOwy3qIQERExLvcWl3taMGVMANbxFoWIiIhxubfM9BaFR3lNAF51WHYrb1GIiIjY+/8tHZaf5CuQKlgHt/rjG8QPWURESmpj3O5Ja8UPuW95fQLwMrDIYfkDfQUiIiKVd5DDsguBiZ7iqIxHyJ5tTQIGxA9ZRERKZiDwGtnvRw/GD7k+eX0CAHC7w7KrAJ/zFYiIiFTWYcBKDsu73Msqay/c3rm8BYyMHrWIiJTFUsAbuN2LJkSPugSGADNw2/EXRY9aRETK4ne43YPeAwZHj7okXHd+O3BI9KhFRKToDsP9/vPr6FGXyM64fwHzgd1jBy4iIoU1AViA+/1np9iBl0kT8B/cv4S5wMcixy4iIsWzP3bPcL3vPIWK0zk7BPcvoh1oA84C+sUNX0RECqAJOAlowc89x2XuAKnpB/wXP19IO/AQblM6iohIuWwNPIy/+8xz6MemNwfg74vpeBpwLbAL+Z4LQUREwmgGdgX+ht0TfN5j9MrZsxvx+wV1tEnYcMFDgC2wko8DI22TiIiENxC7tm8BfBbrnf8qYe4pf4u0Tc6K1EFhLeBJYGjqQERERLoxG9gEeCV1IPUo0uPvF4Evpw5CRESkB1+kIDd/KF4nhSeA1YHNUgciIiLSye+AH6QOohFFegXQYShWXGHb1IGIiIgA92OTB81LHUgjipgAgHXmuAdYP3UgIiJSac9gM/5NSx1Io4rUB6Czd7FqgS+lDkRERCrrRexeVLibPxQ3AQAbwrED8HjqQEREpHIew+5Br6UOJKsiJwAAk7GJHG5OHYiIiFTGDdi9Z0rqQFwUPQEAmAnsDZwILEoci4iIlFcLcBqwLzArcSzOitoJsCc7Ab8F1kkdiIiIlMpzwFHAfakD8aUMTwA6uwfYCHsaMDtxLCIiUnxzsV/9m1Gimz8UbyKgerRhFf8uw7ZvE2BA0ohERKRo5gDnA58Grgda04bjX9leAXRnHHA8cCg2i6CIiEhPXgYuBX4FvJM4lqCqkAB0aML6CBwI7A6slzYcERHJiWeB24A//387d4wDEABDAfQdwGK1i7j/EZxCHMDIbmCoyQE0oS/p/sembSrG/GdunHf8qQF46kRDMGJAj/auRq0NSinlKw5xtb9jw4JZfPGbsOZFy3MBxMLXL1fUH9AAAAAASUVORK5CYII=;" vertex="1" parent="OI3G9i4YLYWkQmrVw_ow-6">
          <mxGeometry x="6.5" y="5" width="40" height="40" as="geometry" />
        </mxCell>
        <mxCell id="OI3G9i4YLYWkQmrVw_ow-11" value="" style="shape=hexagon;perimeter=hexagonPerimeter2;whiteSpace=wrap;html=1;fixedSize=1;fillColor=#d5e8d4;strokeColor=#82b366;" vertex="1" parent="1">
          <mxGeometry x="280" y="200" width="68.57" height="60" as="geometry" />
        </mxCell>
        <mxCell id="OI3G9i4YLYWkQmrVw_ow-10" value="" style="shape=image;verticalLabelPosition=bottom;labelBackgroundColor=default;verticalAlign=top;aspect=fixed;imageAspect=0;image=data:image/png,iVBORw0KGgoAAAANSUhEUgAAAZAAAAEsCAYAAADtt+XCAAAACXBIWXMAAAsTAAALEwEAmpwYAAAgAElEQVR4nO2dd3gU1frHvycNEkJChwSkht4R+aGCJiIgkgCiIt0CNu71KqiICqhwvRYU5HoVy1UEG0oNoCgliehVAQtSpQcICR0JISGE5P39MbsaINmdM3NmZ3b3/TwPzy055T2zs/PZc+YUASagIKIIAJ0BXA2gBYDmAOoDiHb9CwOQB+AMgBMAdrn+bQGQIYTItiFsxg8gIgGgNYBu0O6tFgAaAYiFdm9FAiiAdm+dBrAXwA4A2wF8B2C7EIJ8HznDMOVCRLFENIqIviais2SOnUQ0k4iucj0wmCCGiMKJqB8RfUxER0zeW9lENJeI+hBRmN1tY5ighojauL7YBSa/2OXxOxH9g4gq2d1WxrcQ0RVENJ2Ijll0bx0mopeJKN7utjJMUEFErYjoMyIqsejLfSnHiGgisUgCHiJqQET/JaLzPrq3ColoFhHVs7vtDBPQEFENIvqIfCeOS9lPRLcQD20FHEQUQURPElG+TfdWHhE9RkThdl8Lhgk4iOgmIsqx6ct9KYuJqJrd14RRAxG1JaKtNt9Tbn4jopZ2XxOGCQiIKJKI/m3zl7os9hPRNXZfH8Y4RCSI6B6y7h2aUc4S0Ui7rw/D+DVEVJWI1tn8ZfbEeSIaYvd1YuQhohAimmHz/eONaUQUYve1Yhi/g4hqEdFGm7/AennE7uvF6Ie09x2f2H3T6GQu8XsRhtEPEdUlou02f3FlmWT3dWO8Q0ShRLTA7ptFknnEPRFHwh+KwyCiGACroa3yVVs2CIXFhThfcl510QAwhVgijoa02XNvALjVkvJh2SLzOwDMJJ795zh4NaiDcH1BZkOBPHbn7saSzCX45fgv2HpyK3bl7kLBhYI//14nqg4aRjdE22pt0ateL/So2wNVK1Q1W+0UIoIQYqrZghhLeAzA/WYLySvKw8qslVhxcAX25+1HTn4OcvJzcPLcSVSrWA1xUXGIi4pDo8qN0OeKPuhVrxeiwqLMVvt3aFujzDBbEKMONrqDIKLHAEwzmr/gQgHe/f1dzN4xGxtPbJTKGyJC0K9BP4xtOxbd47pDmLs1JrNEnAVpM+bWAgg1lB+ExfsWY/aO2Vh1aBUKiwt1540Mi0TPuj0xqsUopDRIMXNvFQHoJoRYb7QARi0sEIdARN0BpMPAF/xCyQW88/s7eP6X55Gdb34vxC61umBWt1noVKOTmWKeEUJMMR0MYxoiigWwCdqmmtKszVmL8evGY93RdaZj6VanG6Z1nYautboaLSITQDshxBnTwTCmYYE4ANI2ltsIbadTKfbm7sWwtGH48eiPSmMKESEY13YcpnSegsiwSKPFsEQcABH9G8BDsvn+OP8HRn8zGgv3LVQe09CEoXi7+9uIDo82kn2GEGKc6pgYeVggDoCIHgTwpmy+hfsW4q6Mu5BXlGdBVBpda3VFau9U1IqsZbQIloiNEFEnABsgOWFm5+md6Pd1P+z4Y4c1gQFoV60dlt60FA2iG8hmLQZwpRDiNwvCYiRggdgMEVWBdh5HDZl8H+z8AKO+GYUSKrEmsFI0qtwIK/qsQPMqzY0WwRKxCSJKB5Aok2f1odW4bdVtOH3+tDVBlaJmxZpI7Z2Kq2tfLZt1lRCilxUxMfphgdgMEb0AYIJMnvd3vI9R34yyKKKyqR1ZGxkpGWhRxfAEMZaIj3G9OP+fTJ6NJzbi2tRrkX8h36KoLic2IhbrBqwz8gOlixBigxUxMfpggdgIEVUAcAhAdb151h1dh+5Lu6OopMi6wMpBgUSeFUI8pzImpnyIaDmAvnrTHy04iqsWX4UDeQcsjKpsmsU2w48DfpSdSp4qhBhgVUyMd3ghob30g4Q8jp87jttW3WaLPADgSMERJC5LxO9//G60iGeJ6BmVMTFlQ0T1ISGPCyUXMHDVQFvkAWjvXO5Yc4fskGwKEdW1KibGOywQexktk3jihonIOptlVSy6YIn4DcNkEs/ZOQf/Oyw12qWcVVmr8Pnez2WyhECynYxaeAjLJojoCgD7ofMz2HxyMzos7OCTl+Z64OEsZ0NEW6BzWnj+hXw0nddUyRoiszSOaYztg7YjIiRCb5atQog2VsbElA/3QOyjByQEPvmnyY6RB8A9ESfj+nGie03RzC0zHSEPQFvX9Na2t2SytCY+Dtc2WCD2ofswppz8HCzbv8zKWAyhSCLPKgyJ0eihN2ExFWPm5plWxiLN9E3TZTdm1N1eRi0sEPvQPfF99o7ZKKZiK2MxjAKJPMMSUU6i3oTrjq7DkYIjFoYiz/68/fjthNQawSSrYmE8wwKxAdfiQd1DDE7sfZSGJeI4dL8TSM1MtTIOw0jGJb0FEKMGFog9tILO9x/nis/h5+M/WxyOeVgizsB1JIDuFXmp+x0qELm4WvBZIfbAArEH3duW/Hr8V9vWfchypOAIkpYnsUTspQ4AXTsUFpUUWbrXlRm2ntwq8x4kGlq7GR/DArEH3YsH953ZZ2Ucyjmcf5glYi+6763D+YetjMMU50vO41ThKZks1ayKhSkfFog96P6Snyw8aWUclsASsRXd+6M7ZepueeTk58gkN7QvPGMOFog96BbIiXMnrIzDMlgitlFZb0KnCyT7rFR8utvNqIMFYg/hehP6y/uPsmCJ2ILuEy1ljqW1g8ISqfjCrIqDKR8WCGMpLBGGCVxYIIzlKJLIczxVk2GcBQuE8QkKJDIZ2tYnLBGGcQgsEMZnsEQYJrBggTA+hSXCMIEDC4TxOW6JmFgFzRJhGAfAAmFs4XD+YSQuTzQrEX6xzjA2wgJhbEOBRCaBJcIwtsECYWyFJcIw/gsLhLEdlgjD+CcsEMYRsEQYxv9ggTCOQZFEprBEGMY3sEAYR6FAIhPBEmEYn8ACYRwHS4Rh/AMWCONIWCIM43xYIIxjUbBinSXCMBbCAmEcTU5+jgqJTGWJMIx6WCCM41EgkafBEmEY5bBAGL+AJcIwzoMFwvgNLBGGcRYsEMavYIkwjHNggTB+hyKJ/JMlwjDmYIEwfokCiTwFlgjDmIIFwvgtLBGGsRcWCOPXuCWy8/ROo0WwRBjGICwQxu/Jyc9B4rJElgjD+BgWCBMQKJLI8ywRhtEPC4QJGBRI5EmwRBhGNywQJqBgiTCM72CBMAEHS4RhfAMLhAlIWCIMYz0sECZgUSSRf7FEGKZsWCBMQKNAIhPAEmGYMmGBMAEPS4RhrIEFwgQFOfk5SFpmasU6S4RhLoEFwgQN2fnZLBGGUQgLhAkqFEnkBZYIw7BAmCBEgUSeAEuEYVggTHDCEmEY87BAmKCFJcIw5mCBMEENS4RhjMMCYYIeRRJ5kSXCBBssEIaBEomMB0uECTJYIAzjwi2RXad3GS2CJcIEFSwQhilFdn42EpclskQYRgcsEIa5BJYIw+iDBcKYIjYi1u4QLEGRRF5iiTCBDAuEMcXCngtRr1I9u8OwBAUSeRwsESaAYYEwpmgS0wQZKRkskfJhiTABCwuEMQ1LxCssESYgYYEwSmCJeOVxAC+zRJhAggXCKIMl4pXHwBJhAggWCKMUlohXWCJMwMACYZTDEvEKS4QJCFggjCUEg0SSlpva9oQlwvg9LBDGMgJdIofOHlIhkWksEcZfYYEwlsIS8cqjYIkwfgoLhLEclohXWCKMX8ICYXwCS8QrLBHG72CBMD6DJeIVlgjjV7BAGJ/CEvHKowBeYYkw/gALhPE5LBGvjANLhPEDWCCMLTSJaYL0lHSWSPmwRBjHwwJhbCMhJiEoJLI7d7fRIlgijKNhgTC2EgwSSVyWyBJhAhIWCGM7LBGvjAPwKkuEcRosEMYRsES8MhYsEcZhsEAYx8AS8QpLhHEULBDGUbBEvMISYRwDC4RxHCwRr7BEGEfAAmEcCUvEK2MBTGeJMHbCAmEcC0vEK4+AJcLYCAuEcTQsEa+wRBjbYIEwvmS2kUzBIJGkZaZWrLNEGFtggTC+5FEAM41kDHSJZJ3NUiIRACwRxmewQBhfQtBe/pqSSN1KddVG5RAUSeRZdRExjGdYIIxPEUKYlkhGSgZLpHy6qIyHYTzBAmF8DkvEMwokwjA+gQXC2AJLxDMsEcYfYIEwtsES8QxLhHE6LBDGVlginmGJME6GBcLYDkvEMywRxqmwQBhHwBLxjFsie3L32B0Kw/wJC4RxDCwRz2SdzULiskSWCOMYWCCMo2CJeIYlwjgJFgjjOEpJ5DUj+VkiDOMbWCCMI3FJZBxYImXCEmGcAAuEcSwsEc+wRBi7YYEwjoYl4hmWCGMnLBDG8bBEPMMSYeyCBcL4BSwRz7BEGDtggTB+gwqJpCcH9nkiLBHGl7BAGL/CrESaxjZliTCMIlggjN/BEvFM1tksJC3nbU8Y62GBMH4JS8QzB/MOskQYy2GBMH4LS8QzLBHGalggjF/DEvEMS4SxEhYI4/eUksgMI/lZIgxjDBYIExC4JPIoWCJlwhJhrIAFwgQMLBHPsEQY1bBAmICCJeIZlgijEhYIE3CwRDzDEmFUwQJhAhKWiGcO5h3EpA2T7A6D8XNYIEzAwhLxDIHsDoHxc1ggTEDDEmEY62CBMAGPKonER8WrDYxh/BwWCBMUqJBIRkoGS4RhSsECYYIGlgjDqIUFwgQVLBGGUQcLhAk6WCIMowYWCBOUlJLIdCP5WSIMwwJhghiXRB4DS4RhDMECYYIalgjDGIcFwgQ9LBGGMQYLhGHAEmEYI7BAGMYFS4Rh5GCBMEwpWCIMox8WCMNcAkuEYfTBAmGYMmCJMIx3WCAMUw4sEYbxDAuEYTygQiLpKbwVPBOYsEAYxgtmJdIsthlLhAlIWCAMo4NSEnnVSH6WCBOIsEAYRicuiTwOlgjDAGCBMIwULBGG+QsWCMNIwhJhGA0WCMMYgCXCMCwQhjEMS4QJdlggDGMClggTzLBAGMYkLBEmWGGBMIwCWCJMMMICYRhFsESYYIMFwjAKYYkwwQQLhGEUwxJhggUWCMNYQCmJvGIkv1sicVFxagNjGIWwQBjGIlwSGQ8TEslIyWCJMI6FBcIwFsISYQIZFgjDWAxLhAlUWCAM4wNYIkwgwgJhGB/BEmECDRYIw/gQlggTSLBAGMbHsESYQIEFwjA2wBJhAgEWCMPYBEuE8XdYIAxjIywRxp9hgTCMzbBEGH+FBcIwDoAlwvgjLBCGcQilJDLNSH6WCONrWCAM4yBcEnkCLBHGD2CBMIzDYIkw/gILxB7O601YObyylXGYJiYiRiZ5oVVxBBoqJJKe7N/niUSHRcsk1/2dYtTBArGHPL0J4ys591S6CqEVULVCVb3JSwCcszCcgMOsRJpXae7XEpGM+4xVcTDlwwKxB903u5OPNY2PioeA0Jv8jOuByEgQzBJhgTgfFog9HNGb0Mk9EMkvuO42MxcTjBKJCotC5Qip4dujVsXClA8LxB526E2YEJMgM0zkU7rU6iKT/Her4ggGgk0iV9a4UqZ3e1wIcdLKeJiyYYHYwy69CcNDwtG3fl8rYzHMgIYDZJLrliZTNsEkkVsa3SKTnO8tm2CB2IAQIh8Sv8glH9Q+oXrF6ri29rUyWTZaFUswESwS6d+gv0xyvrdsggViH2l6E/au1xtRYVFWxiJNvwb9EBYSJpNFd3sZzwS6RDpU74DGMY1lsvC9ZRMsEPvQfdNHh0djbNuxVsYiRagIxYQOE2SybBNCHLYqnmAkkCUysdNEmeQEIMOaSBhvsEDsYzUk1kWMbz8e1StWtzAc/dzb8l40i20mk2WpVbEEM6Uk8rKR/E6USNdaXTGw0UCZLN/zC3T7YIHYhBDiNIBUveljImIwqdMkCyPSR6WwSnim0zOy2T60IhbmT4lMQIBI5OWuL8vMvgKAuVbFwniHBWIvUg/WMa3GIDE+0aJQ9DHzmpmoE1VHJssvQohtVsXDBI5E/t767+hep7tMlvMA5lsUDqMDFoi9fAVgt97E4SHhWHDjAtkXjMoY23YsRrUYJZttphWxMBfj7xLpUbcHZlw9Qzbbh0KIU1bEw+hDqq/IqIeIRgH4r0yebae2oeuSrjhT5LvdG2664iYs671MduZVJoBmQogia6JiLoWIBIAXoZ0rIs2OP3YgaXkScvJz1AbmgYSYBKy7ZR2qVagmk60EQHMhhO4fYIx6uAdiPx8C2C+ToVXVVshIyUDdSnUtCulibm98Oxb0XCArDwD4F8vDt6joiXzf/3u0q9ZObWDl0KlGJ6Qlp8nKAwA+ZXnYD/dAHAAR3QJgkWy+nPwc3LLyFqw7us6CqDSe6/wcJnWaJPtiEwB+AdBFCFFsQViMF8z2RPKK8jAyfSQWZy5WG1gpBjUehNmJs42scToLoIUQIsuCsBgJuAfiDJYA+EI2U1xUHDJSMjC27ViEh4QrDahh5YZI7Z2KyZ0mG5EHARjD8rAPsz2R6PBoLOi5AC90eQGVwiopjS02IhYzrp6BeTfOM7pA9lmWhzPgHohDIKL60LZkMLRz4r4z+zBpwyR8vPtjU3FUq1ANEztNxJhWY1AhtILRYqYLIR41FQijBLM9EQA4WnAU//r1X5i1bRbOlxg/tykiJAIPtXkIT3V8ysiQlZv1ALrx0KgzYIE4CCJKgclFd1tObsG8PfOwJHMJtp7aqitPeEg4boi/Af0b9seQhCGoElHFTAjrAFwnhOAT4hyCCokAwP68/Zi7cy6WH1iODUc3gKDveJeutbqif8P+GJowFPWj65sJ4Q8AHYUQmWYKYdTBAnEYRPQSTH7R3ezO3Y20Q2k4ePYgss9mIzs/G7nnc1E7sjbiouIQFxWH5lWao1e9XoiNiFVR5TEAVwkhpCYFMNajSiJujhQcwcqsldh9ejdy8nOQk5+DE4UnUL1C9T/vrYaVG+KmK25SNTWYAAwQQvCuBg5CuUCIKATAlQD6AWgHIM71rzqAUwByAByGthvtMgD/E0JcUB2HLyGi5tDa2xpAvOtfLQAnAWQDOARtC/flAH71dDKf6/p9BGCIxWGrpgTAQag/tpYA5ALIgta7+VAIYekcUyKqAKAngEQADQE0AFAf2sI19/27G9o6nm+EEIbOencNW/YC0AhAHde/CFcdh6DdOz8C+FkIUWK4QX/Vp1QiPmaMEGKWt0Sua9oTQAKA2q5/FaB9ZjnQrukPANaruKZ2Q0Qx0NrbAn89a6sCOAGtvTkAtgJY7doF3JkQURMiepOIskmO40T0ARG1srsNMhBRbSJ6noi2S7b3ABG9TkRNPZQdQURfSZYbLJwn7X5pacFn2oOIPiKi0xLx5BHRQiLqqrOOuqTdN5sk6jhERLOI6HoFbRRE9KJE3U7gWS9tuoKIXia57+IRInqfiHqRJla/gYgqEdEYIlpJ2vdBDwVEtJSI7iHtB5IzIKI4InqbiIokPryyKCai94iont1t8gQRVSai50h7cJihiIj+Q0S1yqmnAhHNN1lHIJNPRLcp+kzbkBphf0lEV5VTR10i+jcRnTNZxyoi6miyvYKIxpuMw1fsI6Ie5bSjERG9Q/ofouXxDRFdY+aa+gLSflj+jYgOm2xvJhENJ220w9YGDSCtB6GSAiK619aGlQNpv1aOKG7vGSK6q5z6Qkl76DDl86SJzzOCtN5gscJ4SohoChGFlqrnbtKEp5I5RBRttO2l4jL7w89XfE7acI1bgKNJe1aoZD4RmZpBYhVE1I2I9ihu769E1NqOxoQQ0WuKG3Mp/yEitYsbDELaDfswqX3QXMp0IipzqTdpvxbM9ngCmZsNfKY1SPvlaRWriaghEc22sI7fiKiByXu7K2m/SP2BnUR0DRF9YmEdO4iohZlrqhoiup/M97LKI5eI+hiNTX6FmPaQew/ASKOVSpAObeZFrg/qKhPSxkffBPCAD6r7CsAtQojLXkS7buo5ALr4IA5/IxtAG70b65E26eELAE0sjUqbAGD1+PoxaN+R740WQERVAcwCcIeyqPybXACDhRAr7AzC9ax9HdY/e0oAjBNCSG98KjUG5nqYvg3fyAMAkgB8Ra6uq008Dd/IAwBuAvAOlfFSTwjxO4CrAdwPbTYb8xfxAF7Qk5C0d04rYb08AN9Mk68J4AvyMCnDG0KIU0KIwQB6Q5stGOzEAEglIqmD2VXikseH8M2zJwTAa0Q0XDaj1A1ORPdBE4iv+QHATb7uiZDBPaoU8LgQ4pXy/khE1QD8A8DDABw5ZmsDRQAShBAHyktA2pDoagDX+Swq37EDQFchxB9mCiFths7d0Kb6NlIRmB9zAcDtQoglvqy0lDwG+7JeAIUAugshNujNoFsgpL1s+QXaPHU78KlEiKgRgC0ADG3WY7Z6aKu5v/OYiKghgO0AKvoiKD/gDSHE38v7IxHNhCbeQGU5gH6e1hnpxfUQuw3APQB6IHj3zbsAYJAQwrpdJUvhuu4fwb7hxGwAnYQQR/Qk1iUQ15DKSgA3mghMBT6TCBF9AnsX860DcLWXRYevAhjnu5AcTyGARmUtNCSidtD2GvOrOf8GuFn12D0RxUOTSQ8A1wNQsm2BH3EBwB1CCEtHI1w95I8B3G5lPTqYJYQYoyehXoEkQ1s17gQslwgRXQngJ6vKl+B2IcSCsv7g6iH9Dvt6hE7lNSHE2Ev/TyL6AoD0bC0/ZDO0/aIs2QmZtOnJXaGdRW7P0Zj2UAxNIgutKNwlj0+gidpuLkA7rGuvt4R6BZIG7YW2bgiELw98icWZi5GRnYFThacQHR6NZrHNMLjJYNzW+DYz+y9ZKhEi+hKA1NQ2AuGrg1/h092fYv2x9ThacBSxEbFoXbU1BjQcgBFNRxjZ3XYntHMPLuuFyPaQss5mof2C9igsNrTrhm1UjqiM7YO2y2zwmA+gXukZWaSt4M6QrTs7Pxtvb3sbyw8sx67Tu0AgNKzcECn1UzCm9RjUq2R+zWsJlWD1odV/1lFwoQBxUXG4Lu463NroVtSKLHOdqTdGCiE+NB1cGbhmbK2Ctl2RfH4QNhzdgPl752PfmX3ILcpF3ai6SIpPws31b0aNijVMx1hUUoRPd3+KpfuXYuuprdr+b1G1cW3tazGi6Qh0qWV4ImMxtNlZZf6oM4pLHp8CuNVoGV9nfY0Fexfg1+O/4tT5U6heoTqurHklBjUehKR4qUe3m7lCiDu9JfIqECJqDGCPTM17cvdgzHdjsDJrZblp6laqi3k95qFbnW4yRZfGEokQUXUARyEx5nsg7wCGpQ3Dd4fLf2XRsHJDzE2ai+51usuG1FkI8fMlMXYGoPtFFwCMXjsa7/3+nmzdjuDZK5/FM1c+I5NlnBDizwO2jQxHzto2C+PXjUdeUV6Zf48Mi8SUzlPwWLvHZIq9iPVH1+P+b+/HxhMby/x7pbBKeLLjk5jQYQJCRWiZacohTQhR5uptM5iVx87TOzFkzRD8cvyXMv8eGxGLqZ2n4sFWDxo5/RIA8O3hb3FXxl3Ym1v+j+fbGt+Gd6971+iu08UAhggh5hsK8BLMymNP7h6MSB+BH478UG6a6+Oux5ykOWgQLbVkqBhATW9T4/UI5CkAz+utNfNMJq5JvUbXmcqhIhRvdX8Lo1uM1lv8pXwPoI9KiRDRSGjrLXSxO3c3uqV2w5EC7++cwkPCsaDnAvRr0E8mpOeFEBNLxSegrY/RvS/S9j+2o+38tigm/zzfqWqFqsgckomYCN2zuXdD64KXuL6gxyAxbj9h/QS8tPElXWkfaPUAZnXzusffZSzJXILBawbr6hEOaDgA82+cL/NQLQZQWwhxQjqwcjArj9TMVAxPH16ukEszsNFAfH7j57LSxKJ9izBkzRBdZ5Y0i22GVX1XGd1evhjAUCHE50Yyu3Hdm/MADDSS/7vD36Hf1/1wqtD7rP6aFWsiLTkNbaq1kaliiBBinqcEen5l657yeK74HHp/2VuXPACgmIpx79p78e7v7+qt4lKuAbBC8TqRAXoTFhYXov/X/XXJA9C61kPXDMXuXKmjnC+NJwUS8gCAp9c/7bfyAIBThafw+tbXZbIkQNuhFAC6Q0Iec3fO1S0PAHhr21t4c9ubMrFh08lNGJo2VPdw4pLMJRi/TmoD3VAAfaWC8oBZeSzctxC3rb5NlzwATQRjf7jsNZZHNp/cjBHpI3QfeLXz9E4kLU/CgbxyZ317IhTAJ0RkeKYUEUUA+AwG5fHt4W/RZ0UfXfIAgGPnjqH/yv7IPS/1WzvZWwKPAnG9MNO9ydicnXOw8/ROvcn/5L619zlJIlfrTfjW9rew7dQ2qcLPXjiLiRsmek/4F63prz2AwgDof7oB+OHID5aea+0rZmyegfwLUrtR/831n7qHcs4UncFjP8oPST25/kkcO3dMV1oC4eHvH0bBhQKpOmZumYktJ7fIZLlBqoJyUCGPwWsG40KJ3IkNr295XfeBaAAw7odxsvcH9ubuReKyRLMSkV6r4ZLH5wBuMVLxt4e/xc0rbtYtZDd7c/filU3lLi8ri97eEnjrgcQDqKy3thmbZ3hPVA5OkIirS1lbb3qj7xQW7F2g+5eDC/eJPKOh7fuvGyMPRCdy4twJfLr7U5ksya51MlfozfDJ7k90i6A0uedzMWenvlHPrSe3IiM7Q7qOEiqR7enUla7kEuyShxu9PcGdp3di9aHVhurYd2afGYmEAPiYiHS/XyslD0Or3I3Kw82sbbNQQrqPQalBRJU8JfAmEN0HF+eez8WOP3boTV4mDpBIbeicmXb83HFsPrnZUCXFVIxvD38rkyWeiCoDeE4m06J9i/D9EcNbJDmON7a9IZNcQNsGIl5vhhUHjS+f+OrgV/rSZelLZ6YOF6aOAbRbHgCQnp2uK52nyTp6cEtkf56hgzRDAHxEREO9JXTJYz5MyKPPl30MywPQnlubTm6SyVLH0x+VCWTHaXPycGOzRHQ/bA6dPWSwCo2ss1kyyeMAPA7tlENdFJUUYcL6CbJhOZpfj/+KH4/+KJNlNCS249h/xvhJvHrzmqnjQN4BmXdZuvdPeNcAAB8ZSURBVO/lS3GCPADtO3L2wlmv6TLPZJqqB9AkkrQsyYxEPiSiYeUlcG0RswDayaXSuOWh53p4Q/Ie9PhDxJtAdC9cOH3+tN6kXlEkEd1Db6XQvW1JQbHcGPalSI7XNgUgNRb19va3set04O2L98ZWqV5IdUgsdjtTdEY6Htm8ZuoopmKZdyeGfkQ5RR5ujhXIDykaRUFPZG5ZGxKWkkeKkYLX5qxVJg9Aew8ngUcHOHZ/m/vW3of//v5fo9mvgbaLrxGJOJFHAETqTZx7PhdTfp5iYTj2MX/vfEPvKRjvOE0eejE4FbdMMs9kqpDICPf/4ZLHQuiY0VQWa3PW4uYVNyuTByB9vTxOqXWsQADg3rX3skQ0pFY8vfTbSwH7kC0sLvTbBZFOxl/lAQA96/X0nkgCt0QMDo0JAHOIaCQRVYS2m7ehKdVWyKNmxZroUL2DTJZsT390tEAAlogsWWezTM2G8wfe3v62zEwSxgv+LA8AaFmlpdHtOspFgUQ+gLbQ2dD+a9/kfKNcHgAwpvUYhAjdj/18AB7fTTheIABLRIZJGyZJrzHwNzLPZOKLA1/YHUZA4O/ycDP96umoGKr2VIP9efvNSqSjkYzf5HyDviv6KpdH09imslvvrPV2NIBfCARgiehh08lNmLtrrt1h+ATZ1d/M5QSKPACgQ/UOeP/69yEU79ZvUiLSWCWPahWqIbV3KqLDo2WyLfeWwG8EAmgSMTH+HfASefzHx4NmaOfrg19jT67UHp9MKVTI447VdzhCHm6GJAzBf6//r2US2Xdmn9JyL8VKeazuuxotq7SUzepVIMa2vLSR0Wu1jRdHtRhlJLtbIjcJIYzPp3QgK7NWml5QBQBxUXFGtxCXgohkFzRdnB+EWdtm4ZWuUlszMFAnDyfur3ZP83sgIDB67WilP6b25+1H0rIkpKeko1Fl9Sf9ut95yG7H4g23PDrWkB5NWyuE8DoVze8EAiiRyAoi6hMoEimhEjz+4+OmywkVoViTvMbILxVD9Pyip+EtKABg9o7ZmNp5KiLDdM9wDnoCWR5u7m5+NwBYIpHEZYnISMlQKhEr5bEmeY3srCs3ujbs86shrNKYPN/iWhhfbOg45u6aa+rXvJvRLUb7TB4AMKnTJFP5TxaexLw9HnebZkoRDPJwc3fzu/He9e/JzDjSxYG8A0qHszKyMyyRR/WK1c3IY4UQQtdeS34rEIAlAgAFFwowaYO5BzEARIdH47nOUlttmea6uOuMHLB1EZIr04OWYJKHm7ua3WWpRDwdWqWHjOwM9P2qryXyWN13tVF5nAfwpN7Efi0QgCXy2pbXZPfVKpPx7cejdqTujYiVMbGT1Nb2l/Hz8Z+x/uh6RdEEJsEoDzd3NbsL71//viUSSVqeZFgiVspjTV/DPQ8AuF8I8ZvexH4vEECbnfX+jveNZvdbiRw7dwwvbnzRdDnxUfF4tN2jCiKSp1e9XmbOqAbAU3o9EczycHNnszstk0jicvmeSHp2uqXyaF+9vdEiXhVCfCCTISAEQiCM/ma0aYlA4uwTJzDl5ymyJ4yVydSrpiIqTPc+ksqZ2NFcL+SzPZ/hxDllp7cGDCyPv7iz2Z2Yff1s5RI5mHdQSiLp2elI/irZifJIBfCEbKaAEAigTCKGtwD2NbtO78Lb2982XU7bam1xV7O7zAdkgpQGKWa63DhXfM7M5x6ohIDlcREjm420VCLe1iVZKY+05DQz8lgKYJAQQvrDDhiBAEok4vuXAAaZsH4CikqKTJczres05V8oIzzd8WlT+d/a/lbQLKLUiQDL4zKslEjS8qRyJZKWnWaJPGpUrIG05DS0q9bOaBGpAG4XQug7TP4S7H9yKEaBRBzP/w7/D4v2LTJdTq96vdC7ntdjj33CrY1vRauqrQzn35u7V/bEPqYMAlkebkY2G4kPEj+wpiey7PKeSFp2GlK+SrFEHmuS15iRx2JoPQ9D8gACUCBA4Evk8XXmFw2GiBBM6zpNQTRqEBB4soPu2YNlInnkLXMJC/YuCHh5uBnRdIQlEsk6m3WRRBwujzvMyAMIUIEAgSuRBXsX4IcjP5gu585md5q5+SxhSMIQJMQkGM7/1cGvLN+vKFBZsHcBBq8ZHBTycDOi6QjMSZxjmUTe3/G+ZfIwOWy1CJo8TI+BO0Yg49qNU3qyGBB4EikqKcKT6839SgeAqLAoTO08VUFEagkVoZjQwfg57iVUglnbZimMKDiwSh4Nohvg1ka3Ki1TNcObDrdMIqO+GaVcHjUr1kRachraVmtrtIiFAAarkAfgoL2wGlVuhIyUDCQuS8SBvAPKynVLBNA2WvNn3tr2Fnbn7jZdzrh241C3Ul0FEalnZLOROH3+NEpg7IV49QrVDdf9QKsHcPzccUN5K4f71QzwP7FSHhkpGfjP1v8oLdcLhwBI39jDmw6HEAIj00c6eiJGzYo1sSZ5jRl5LAAwVJU8AAcJBGCJeOL0+dOY8ov5c85rR9bGE+2lp3v7jPCQcIxrN86WuiUP2/F7rJZHw8oNlZarg/4A5gKQno0xLGEYAODO9DsdOYzn7nm0qdbGaBHzAQxTKQ/AQUNYbtwS4eGsi3lx44uGfx2X5tkrn5U9VIYJQAJQHgBwBMANALYayTwsYRjmJM1BqAhVG5VJFMjjcyjuebhxnEAA6yUye8dspeVazcG8g3ht82umy2lZpSVGtxitICLGnwlQeQAAhBBuiWwxkn9YwjDMTZrrGIkokMdn0Hoelpz85UiBANZKZNQ3o/xKIhN/mohzxedMl/PS/72EsBBHjVoyPiaQ5eFGCHEUJiQyNGGoIyRSs2JNpKekm5HHPADDrZIH4GCBAJpE0pPTg1oiG09sxEe7PjJdTmJ8IlIapCiIiPFXgkEeboQQx6BJZLOR/EMThuLDpA9tk0ityFpIT0lH66qtjRbxKYARVsoDcNhL9LJoHNMY6cnpSFqepPzF+qhvtBMN3SeYOREV55wLCGVHvxIIB/IO4Ej+ERSWFIKIQKC//rP0f7f4/5OlZ72eHres35O7x/D2MKEiFE1jmxrK6wuCSR5uhBDHiKgHgNUApBdNDEkYAgAYkT7Cpy/Wa0XWQlpymhl5fALgTqvlAfiBQIDglcjyA8tNHfnqZkjCEFxZw9C2SH9y+vxpTPttGubumouDeQdNx+Rr6lWqh0FNBnlM0/vL3l43xCuP2pG1cXjEYUN5rSYY5eHmEolI7zboa4kokMfH0OThE+M5egirNG6JBMtwVlFJER770fy00oqhFfGvLv8yVcZ3h79D88+a4/lfn/dLeQDagVkRIRF2h+FzglkeboQQxwH0AKD7oKTSDEkYgo9u+Mjy4axakbWQnmxq2Ooj+FAegB8JBLBeIh/s/EBpuWaYtW0Wdvyxw3Q5/2jzDzSIbmA4/9qcteixvAeOFBwxHYtdxEXF4d6W99odhs+Zv3d+0MvDjRDiBDSJbDSSf3CTwZZKxC0PExuKfgjgLl/KA/AzgQB/SeSK6CuUlksg3JNxj2MkoqpH1K1ON8N5T5w7gVtX3YrzJab2W7Od8e3Ho2JoRbvD8Cnz987HkDVDWB4XUwTA8N4ilcMrWyaQCqEVzN6j3/taHoAfCgTQJJKRnBHQEnmig5rV4k9veNrwQ+Sfv/5TyeJFO6kdWRv3t7zf7jB8CsvjcogoBsBXAK4xkn/5geUYuHKgZT+m3OeJGD1jHcAsIvL5je6XAgECXyKDmwzGNbUN3esXsfnkZry7Xf6gxaKSIszZOcd0/XbzWPvHEBkWaXcYPoPlcTml5HG1kfzL9i/DrSut74kbPWO9FG8R0QMqY/KG3woECHyJzLh6BgSE6XIm/zQZp8+flsqz6eQmnCo8ZbpuO6lZsSbGtBpjdxg+g+VxOUQUC+BrGJTH0v1Lcduq23w2jCt7xnoZzPKlRPxaIEBgS6RLrS4Y1nSY6XKOnTuGqb/Ibd+ek59jul67ebTdo4gKi7I7DJ/A8ricUvLoaiT/0v1Lcfuq233+DlDvGesemEVED6qMqTz8XiCA9RKxcyjnhS4vKHkIvr7ldamt4KtGVDVdp51Ur1gdf2v9N7vD8Aksj8shoioAVgL4PyP5fd3zuBRvZ6zr4E0isrz7HRACAayVyN0Zd9smkXqV6inZZvx8yXmpdSVtqrXx63UTY9uODYpdh1kel1NKHl2M5E/NTMVtq24zvCuBKso7Y12CN6yWSMAIBLB2iq+dEhnfYbySA6BSM1ORlp2mK21sRCySGySbrtMOqlaoiodaP2R3GJbD8rgcIqoKYBWAq4zkX5K5BLevvt12ebi59Ix1A7xBRJZ1xQNKIADQJKZJwEmkUlgl/Osqc6vJ3Yz9fqzuvbWmdp7ql7v3PtL2EcRExNgdhqWwPMrELY/ORjIvzlyMQasHOUYebtwSMXEa6X+skkjACQQITImMaDYCnWsa+l5cxKaTm/Df3/+rK22rqq0wvet003X6kioRVfBwm4ftDsNSWB7lshiAoU3fFu1bhDtW3+E4ebjJOpuFpGVJZiXyd5UxAQEqEMB6iczdOVdpud4QEJhx9QwlZU36aRJyz+fqSvtQm4cw/erptp+NoJeH2z6M2IhYu8OwDJaHR5oYybRo3yLcsca58nCjoCfyumqJBKxAAGslMmvbLKVl6qFbnW64vfHtpss5WnBUalrv2LZj8cOAH3BD/A1K1qVYRWxELB5p+4jdYVjKqG9GsTwU4pbHhRK1O583rNwQs7rNUj4R5dDZQyokouwFof8NcEvilkjiskRknc2yOxzTvPx/L2Pp/qUoLC40Vc6/t/wbD7R6AE1i9P1ou6rmVViTvAZZZ7Pwv8P/w5GCI7hQcgEhIuSifwLir/8ND38r9ff9efsx7odxptoDaBtHVomoYrocJ0OQPwfFE8Esj4X7FmLwmsHK5dGociOkp6SjQXQD1K1UV/l0YLdE0pPTjZ5B828iEkKIf5uNJeAFAmgSyUjJCAiJNKzcEGPbjsWLG180VY57Wu/iXoul8tWrVA93NLnDVN2Xct/a+0yXERMRg7FtxyqIJngIZnks2LsAQ9KGWCKP0kdxpzRIwcJeC5VvhXLo7CEkLU8yI5GZLonMNBNHQA9hlcYtkXqV6tkdimme6viUx5P19LIkcwnSs9MVRGScA3kHlExKeKj1Q6hawb8XP/qSYJbH/L3zLZFH45jGF8nDTXL9ZCzstdCy4axdp3cZLeI1IjI148RfBWLoigWKRCqHV8Y/r/qnkrLG/qB/Wq8VvLjxRdO/zCqHV8a4duaHwIIFBfLw203SPt/7OYamDbVGHsmXy8NNcv1kLOq1CBVCKyitNzs/W4VEDL849FeBzADwqpGMgSKRe5rfgw7VO5gu57cTv+G9He8piEierLNZeO9383X/vfXfUa1CNQURBT4K5PEqgE/VReQ7Pt/7OYalDVMujyYxTXTtgtG3fl8s6mmdRHae3mm0iBlGeyL+KhAC8DiCWCIhIgTTr1azRmPihom6p/Wq5KWNL5nufUSHR+PRdo8qiiiwUSSPxwHFb/J9gKXySNG/hdLN9W/G4l6LLZFI0rIkMxJ5jYj6yWbyV4FACBH0EkmKT0L/hv1Nl3O04Cie//V5BRHpJyc/R/eCRk+MaTUG1StWVxBRYKNKHq7vnV/x2Z7PMHSN+mGrhJgEQ8+QPlf0capEPiYiqQPZ/VYggBqJpKek+7VEXun6ipKXczO3zDRzBoE0L//2Ms4VnzNVRqWwSnisvfmNJgOdYJbHvD3zMCxtmPK1M0bl4abPFX2wpNcSpw1nRQNY6toGXxd+LRDAvEQSYhL8WiIJMQn4exvzi0sLiwvx+LrHFUTknSMFR/D29rdNl/NgqwdRs2JNBREFLsEsj093f4rhacOVy6NpbFNkpGSY3uD0pituQmrvVLNnoV9GTn4OEpclYscfO4xkbwzteaqLgFgHIoQgInI3WnpA3C2RpGVJfrlOZHKnyZi7c67p88sX7VuExZmL0bZaW0WRlc3MzTNRcKHAVBlRYVF4vL1vhOevBLM8Ptn9CUamj7RMHvFR8UrK612vN1J7p6L/1/1N98hLk5Of8+c6keZVmstmH0tErwshjnhLGBACAYJbIrERsXiu83P423fmN9wcuHKggois54FWD6BWZC27w3AsCuQxHSyPi2gW2wzpKenK5OGmV71eTpNIFICJALxueeL3Q1ilUTWcpeLsDV9zf8v70bqq1PsvvyUyLBLj24+3OwzHokgej/mjPD7e/bFfycNNr3q9sLT3UkSGRSotNyc/B4nLDQ1n3UVEXl/QBJRAADUSUTG+6WtCRaiyab1O5/6W9ytZiR+IBLM8Fu1bhDvT71Quj+ZVmisdtiqPnvV6WiKRw/mHkbg8EZlnMmWyRQO43luigBMIELwS6VWvF26uf7PdYVhKxdCK3Psoh2CWx9ZTWzEifYQl8khPTkdcVJzScsvjxro3YlnvZZZIJOXrFNkhshRvCQJSIEDwSuTVrq/65SmCerm35b0++zL7E8EsDwB49IdHkX8hX2mZLaq0QEZyhpn7zdCWLz3q9rBEIltObsEbW9+QydLTW4KAFQgQnBJpUaUFHmz1oN1hWEKF0Ap4ov0Tstns2+jLRwS7PPbk7sHXWV8rLbNllZZIT05Hnag6RouYBqAlgO1GMveo2wPLb1qOqLAoo/WXiaRAriAijwcABbRAgICRiNRRac9e+WxA7kw7usVo2c/hewD+NaVOkmCXBwCsPrRaaXktq7REeoopebwM4AnXNNgkANuMFHJD/A3KJbLvzD7syd2jN3kUgMqeEgS8QICAkMibkPglXa1CNUzuNNnCcHxPREgEJnSYIJvtOfjhvk16USCPGfBzeQDAwbyDyspqVbUV0lPSzUzSeAnABPc1dUnkBhiUSFJ8knKJSL5M92hRbwI5o7eWyuEeRaU6v+643CiZ4pusbopvdFi0TPIfALwjk+Fvrf+GZrHNpGJyMqNajJLdLeBHAKsgMQ5tptemdzdgVauOFcnjUYPy0H0cptn2ql6l7YlWVVshPdmUPF4E8OSl17RUT2SrkUKT4pPwxU1fKB/O0kmopz96E0i23lrMHkwjeW75ISN1mJVI09imyiRSL1rqYZgDYDIA3VvmhoeE45Wur8iG5UgiQiLwZIcnZbM95/q8va6mdWPwZDcAQEJsgq508ZXMTwW1WR6AxHPBTHvDQsJQM9L7VjUqDsVqXbU10pPTzSxO/ReAp8q7pkKIo9B6IoYkkhifiC/7fIlKYZWMxvcnktfL4/fHm0By9NZSO7I22ldvrzf5RVQKq4Rral8jk0X3DXwpTpBIREgEro/zOsW6NDlCiGMApspkSmmQghvr3igVmxO5u/ndsj8w1gNwv1XVLZABDQfI1HER/Rvo2xU5MS7RcB2AI+QBSHz/zLS3e53uCBUefwAD0NZPmKF11dZIS04zI4/nAUz0dk1LSWSLkUquj7vetESaxDRBk5gmepMXwUsP3qNAhBDnAOjeYGlMqzF6k17E3c3vlu2qGhYIYL9EhjcdLjtk5xb56wB0vwEDgOlXT9f1JXQq4SHheLKjdO9jSqkvs+7rdUvDW4zsG4T60fUxNGGorrTX1rnWcE/HIfIAJEYAWlZtiS61uhiq5M5md+pK1yC6AZLrJxuqo021NkhPMdXz+CeASXqvqVmJXBd3nSmJ/KPNP2SS53hrl56X6Gv11nZP83ukb5a4qDhMvlLqhe/PQog8qUrKwC6JVKtQDc91fk4my0/u9gohCgFI7V/etlpbjGoxSiaLoxjRdAQaRDeQyfITgC9L/e8vy0t4KeEh4Xin+ztS62hCRAjeue4d3XP2Q0Uopv3fNN3lu3GQPABgEwBdh2sICLzS9RWECLn5Op1rdsbwpsN1p3+l6yuIDpd6r4i21doiLTnNzI7OUwFMlr2mrtEEUxJZcfMK6fZ2rNER97e8XyZLurcEej7VpXprCwsJw+Jei5EQo288uGqFqkjtnSr7AS6RSewJVRLR+4CrFFYJC3sulH0ZvPiS/50KHR9saaZ2nmp6koMdhIpQPNXxKdlsUy75Qv8C4LDezNfFXYf3rntPl0RCRSje7v42etfrLRVg/4b9MbHTRN3pG1Vu5CR5QAjxByTuwe51ukttsxMfFY9FPRdJ9ZybV2mOT3t8qnsk48oaV2JN8hoz8pgC4Bmj17SURDYbyd+9Tnes6LNC98SPxjGNkdorVfb8keXeEugRyBeQmEIaHxWPdbesw6DGgzym61anG9bfsh5X1bxKb9FulAkEUCORDQM3IKWB51X/7au3x3f9v0NifKJsFRe11xXvOEhMT60VWcvIg9h2hiQMkRmvBTRZXHTTCyFKACyTKWRks5FY03cNWlRpUW6aZrHNsKrvKoxuMVqm6D+Z2nkq3uz2pteZNb3r9cb6W9abkcdrUCiPUqTKJH64zcP4+IaPERvh+awi93NB8p0XACC5fjK+SfnG46aioSIUD7R6AN/2+9aMPJ4TQhiWhxuXRHrAoES61emGdQPWeX1/PLDRQKwfIH1NLwBY6S2Rx1WGbohoGQDpQcZfjv+Cz/Z8hp+O/YRj546hWoVqaFOtDQY2Goik+CQIfdWXZiOATlbMW3etuJwGA1vBu/n+yPeYt2cefjzyI46fO44qFaqgddXWGNhoIPo16GfkXcRPALqU1V4ieheA7qdXYXEhhqYNxdmis7Ix2MZr17zm8SFeBgOEEJc92FzHdG6GzvvdTVFJEVYcXIHUzFTsPbMXIQhBo5hG6Fu/L5LrJyM8JFymuDLJzs/Gm1vfxBcHvsCe3D3Iv5CPOlF1cH3c9bir2V24sd6NRr4nbl4DMM6i70tdAJmQPBLixLkTeHPbm1i2fxl2nt6JvKI81I6sjW51umF40+FIbpBspr0AgGIqRmpmKpZkLsGu07tQUFzwZx1DEoboHiEph2eFEFJj0N4gohoA1gBoZ7SMtOw0LMlcgk0nNuFU4SnUqFgDXWp1waDGg9CxRkcjRc4TQgzxlkivQNoC+E1vegu5SQihds+CUqiQiGJuFEKsKesPRFQbwC54WSkaRHj8cUFEcwCM9G1I8hDI9APUhWXycENErwMwdRymwvb6gmeEEFOsKFiFRBRSDKCVEMLrubi63mwJITYD+MBkUGZJg44ulRnMDmcpZmV58gD+XJz0gg/jcTrPeXlYPgPJLWHswF/k4WIqAFMTWvxIHpOtkgcACCGOQxvO+s2qOiSYrUcegESPwtVl3QzAjk2WzgPoKoT41ReVOaAnUght6GqTp0REFAlgBwD5AePA4jcAHb09MInoMWifayDjK3kAAIjoaWhTWQOZSUIIn7SRiKpD64kYW1RnnpMA2gshdO0hp3tunRDiEIBB0Lo3vuY+X8kDcERPZLQ3eQCAEKIAgP+9HVePt96Hm1cBfGx1MDbiU3m4eAnAVz6sz9c87St5AIAQ4gTs64kUA7hdrzwMQURjyLe8bFljvLdVENErPm7vi5IxhhDRTz6O0Un8RES6fwgRUSQF5vWaQV623rYKIoolom02t98KpFewKrym1YnoVx+392++atxkHzXoXSKydRk1aRJ51sntJaJORFTooxidxHnSJnjIXq8aRLTW5thV8hLZJI9S17QJER2w+TqoopiIHrHzerquaXUi+t5HbX6BfHkPEdHtRJRvUWOKiegRnzbIC0Q0yOL2/sNMe4noPoticzKGh++IqAIRfWhhbO8TUUci2mxhHeeIyDEzy4ioNln7wCsioidIu7ZW8QcRya0MtRDS7tPZFrb3PBHdY1fjOpL6rushIupjS4O8QERXEtEuxe3NIqJeCmITRDRNcWxO5nUiMnV2L2nX7BEiOq0wrjwiGlGqjkpENFdh+W4OEpH0KlyrIaKKRPSBBe09QERXl6rndiI6pbiOjUTkuDMQSLtPHyXtYa+SHCK6zu7GhRHRKNIe/GY4TUQTiMiWTe/1QkThRPQgER022d4/XO1VevAxEQ0lorMmY3MyF4joAcXXrCYR/cdVtlEKXWVcNiOOtAdAXyL62WzjSbtvniQi8/t6WwgRXU9E6xW0N5+0IbrLDlwhojgimk7mRwb2EtEwsnm43BtE1JiIPjbZViKiM0Q0iYjkNtOyEiKKIu3BupK0rqZevietW1rd7jbIQNovy4eJKIO0ISg9lPiivUSUQNov9FyJz8Hp5BPRm0Qkv12u/uvWhLQv1iaJuH4nopdJm+burXxBRANIu2dkZbWLiP5JZTxInYqrvbcTUZqB9h4jbWKA19OdiKiW69pslyi/kIi+IqLRRBThi+uhCiLqQFqv9oTkNd1J2rsOw3u4XIol7xiIKBZAHwCtANQFEA+gFrQ5xtmuf7sBfCmE0H3miFMhTQZ9ALSBdgRkHICaAE5Aa+sh/NVe3Rv7KYgrGkBvAE0BNIb2GfgTZwEcBfArtGun+2gBs5AmqusA1AfQwPWf56FtzHgE2ue5Ugixz2D5VaF9Nr0BNIR239QBUNFVR47rP3+EtqHpDn8+epY08d0M4CZo19P9XKgA7bmQ4/r3PbT9934WQkgvGSCiBtCuaWv8dU2joX1m7mv6C7TPTvpkUydB2hDuNQD6AkjAX8+eKtC+N+5r+huAVCHE76pj+H8bhK1cLwdCJQAAAABJRU5ErkJggg==;" vertex="1" parent="1">
          <mxGeometry x="295.62000000000006" y="220" width="37.33" height="28" as="geometry" />
        </mxCell>
        <mxCell id="OI3G9i4YLYWkQmrVw_ow-7" value="" style="shape=image;verticalLabelPosition=bottom;labelBackgroundColor=default;verticalAlign=top;aspect=fixed;imageAspect=0;image=data:image/png,iVBORw0KGgoAAAANSUhEUgAAAJIAAADBCAYAAAAkYenXAAAAAXNSR0IArs4c6QAAAARnQU1BAACxjwv8YQUAAAAJcEhZcwAADsMAAA7DAcdvqGQAAByLSURBVHhe7Z17rB3Ffcf3Xt9rXx7GOFKCyjtBSXgUkAqChAoTwCZRFSgPQSKBIVGlIF5VVaBQbKOGAjIqbSWeIv2jgN02BQGCf1qwSwNEVUGmCqYC/gGBeZNHbfPy6/p2v7O/mf3tznf3PHb2nnMu85HGM+c3M7/9zZ7vnZnds+d4bGZmJolEmjIueSTSiCikSBCikCJBiEKKBCEKKRKEKKRIEKKQIkEIdh9p+y9v/qusRPyNFbLOkIa1fb1KP4ZCk64DyRjrsX16VqVQpKObmga0qtZhMQbTtK79N350f7Lw0DflVc8EE9LW1VMzLk52IqWSjoXVER+5f8kV/put+lP/kiuciR2btHdQ//y8mjbElzO5Qof4LSWjecl8pBTrSnz/P09N9v/OL+RVzwRd2lzYuaRypJKeXlZHfOT+JVf4fw+qP/UvucKZ2LFJewf1z98x04b4ciZX6BC/pWQ0L5mPlGJdWILvkVycUUzUBzBtiC9ncoUO8VtKRvOS+Ugp1oWjlc22izOKifoApg3x5Uyu0CF+S8loXjIfKcW6MLR21ebijGKiPoBpQ3w5kyt0iN9SMpqXzEdKsa454YREgnKmKCbqA5g2xJczuUKH+C0lo3nJfKQU65oRdkYiQTlTFBP1AUwb4suZXKFD/JaS0bxkPlKKdf0TfmkjQTlTFBP1AUwb4suZXKFD/JaS0bxkPlJo/x5pZ49EInOmKCbqA5g2xJczuUKH+C0lo3nJfAQgmJC8gZCROVMUE/UBTBviy5lcoUP8lpLRvGQ+GhJ0RvIGQkbmTFFM1AcwbYgvZ3KFDvFbSkbzkvloQPClzRsIGZkzRTFRH8C0Ib6cyRU6xG8pGc1L5qNPwglJBeoNxDMoUxQT9QFMG+LLmVyhQ/yWktG8pA17J+yMpILy4iMBO1MUE/UBTBviy5lcoUP8lpLRvKQNeyOgkGQgKigvPhKwM0UxUR/AtCG+nMkVOsRvKRlpmx4JJqQsGBmIiswLkkTtTFFM1AcwbYgvZ3KFDvFbSkbapgeCLm1ZMDIQFZkXJInamaKYqA9g2hBfzuQKHeK3UGN/BN9sZ5kMRAXqxUwG4UxRTNQHMG2IL2dyhQ7xW6ixd4I9Ibn5lj0yRxJ/lolvNSbv9HgGZRrgk5bjXz42mTjuT5OxfQ7JDP3A/EvePX78Mzu2JDPP/zSZ+e2vxJLjj031FxuLYeyPnz51rMETkuGFBAoBi1lF7w2EjMyZBiCm8UWHJAuWb0jGFiwSyxCSimn653+QzHzsP2btj02NX2zlYTcVUtjLf4vEnWUSshqL97Z6BmUawDI376iLh1tEYP6iZOzwS2j8/tjU+MVGujWinRnJIvFnmVSrMXlvr2dQplmcmSZPWpVMfnuVKe/+9cZk5y+uNmV2+ov+JVfk/klf0r6W1Mf4ET9Kxg+/2Lzc/cJNyfQLP82OUXtsyXX8YrNVw7m0aQoBSxM3sEIxwzMo0yyJqSCkd55Ntj+01JQzVH/qX3JF7p8cm7R3EP/zTrwxGT/hRlO2QgKmDfHlTK7A4x/OpU0jcWeZRK7G4p1az6BMA1jmfFR/6l9yRe6fHLvumMx/BaYNaehMrtAh/j4Jd0OyLppCwDIQ1d7rSnw50wDE5I+tw5vBfEg+rGJqStgbknVBSV2WyUBUe68r8eVMUUyVmDakoTO5gh9/E4IvbXNGTIQopmpa2SONupjqGAYxFaiI3zStPbbkOv4GtLbZHmUx7d76VjL99rPJbqSPXhJrThSTTzghsYCJzSF1WSYDUe29rsSXMwUW067/fTDZ9q9Lk8/TtOPpq6mTgYpJKPon5yDFtKk9tuQNxRR2RmIBE5tD6rJMBqLae12JL2cKLCZL7l9yxdwTU/8EFJIMggVcF6jUZZnvw+tKfDlThZjw2dn4wUuSeWka/8qxUpEiHccPSuskjc1fnBmFMfQ96JS07hTzQW6Z8QNTO+rSNLZg39SSxzC2MO2b1o+hje3bY/zdnzuhXzE1JPAeyReCZZBimvz9i5M9f7gu2SNNC06/XaxC2hH2KUnjXzmm4GPyqIuTqR+k/dI0/9S/9Y694IK07vwsjTmRZv0njrokta83aeI7f2dshh7jHwUxBRNSHowMggVcF7HUZZnvw+tKfDlTxYnsCfaGSs6O7VPTH/QYf9tiakrQGSmPTwZBAh4GMZFujkJdr2KqcywU/UuuyP2TY9f5l7qif34OTJs6X30QeGnT8flCsIyUmOpmFnbsLhwXmjAfktfFT6H+uQ/Thhy7X4J9+v+7m/ac0ec8L4p/Mp7uP/n2fXhdia/xqX3NnmjiG2cOxfNF068/kez6r5uS3b/J7k0VQibxO5N6amDiWzeaJwDA9PM3meQhHYv++fts2qT/zDv76VPHDjhlSD79V7HmRRkOGUebM9NYKqI9f/xCMnn0RUPzkNq8w85K5l/wH+ZqDhRC9gakTCMwMwVf2nRQeXH2xTTx9TPTy/6D5dXwAFFPnpTOKIWxCd6AlKltMTUk7NKmUTHnRWlCxtN0mZtaensyb7/8Po+5/yNC2r1lU7Lr5QdNmR27lsKxLTXnjPiHydxrOnCJeT2zfUsy8+viRy87Hj5dSikVPsDEt1cVlrZd/31Tzw/HsWVu4pxmS1swIf02FZI3HmXIi+2Iae8L1yXzDj5ZXhWZ3vRc8uk/L8ubs/1CwX8JVseedpScOZl/0iojgio+//vJkn/JFTCZPdK3Mj9WSKCpmJoKKdzSlsblnVplyIsyHK9xaiI2h9Rlme+jrqvFtWFTfMF/CVZHfOT+JVdQvyWK/iVX1Pno/twJvS6VHQi+2fbGowx5MbyYtq2/Jvn0n85IPpO08+W1WUUJ534AYrLgCwXbH14maalJ3L/kihq3AxVTK5ttbzzKkBfDimn6w5eSXZueTXamCfnuLdX/rYZzPygxbd+c7H77GUl4XOWZzE79S85gx65tX8gyAokpvJBAGqk3HmXIi7kQyvQ7M4G6rhbXZlBiKqD6U/+SM4ZETO0ICaSReuNRhrwog/AapyZic0hdllX7cDD/kg9CTP7YVH/qX3KFM4UQU0MCCom/GV6wypAXpS8ZWbcnBJf+E4csSSYOztLYokOzSg3zL/msimnBvtljKeoRlAzVn/qXXJH7J8cm7R3MfwMCz0j8zfCCVYa8KH3JyLo5IVPLbk/2uvApl+YffVFWUYb5l7x1MQnjXz4me/xEPYKSo/rXHVvh6gcopmBCygPmb4YXrDLkRenrNU5NxOaoq0vxqpl/ydsSU2+o/nXHVrj6AYkp6Iw0SDFNf4Crtudcwt1sTd2xLc7UsphwZxtfBdfJH5vqX3dshavvU0xNCL7ZHpSYPl93bfLJmjOST9ZmaefGNVKTU3dsizO1KKaZj15Ktv18qfmCgU3G7jlW/elBfVyzWRZTcCGBpmIa3/eQZO8LHk4Wr/o8WbzST/uuyBI21x7iyzuGUHdsizO1JKbcv+SKnsXEfEjes5ga0IqQQBMx7X3BQ8nkN78vr/qAnSxlqzu2xZmimLoinJDYYJytezFNprPMvP2OFkM9PZ8Q1Z4du4wzhRATOQe5f8kVtWJiMB+Sz4aYws5ItSekSzEppj98Ofn4we9J+m6W1uQJH4tY/3svf8oteUhTJ6/IKhxyfHVA79gkGGcKIqYMfO1pr2t2mLSnJNawGzEVmjAfkrctpvBLGxuMs/Umppltm5Odbz2b7DIpvRpD/qZ9nV7pbNuStevihGRNhkdMFNKwdmzMP/MheZtiamePxAbjbL2JCeR1vhAcdQ6ErMlwiin3L7liFMQUTEheLGwwzhZeTJ89dY1Z7j5Zm6UdG0uPkUj7LBuMmCy7P9qYXv4vSy/78wRssz2vTpe7Utrjz7NEH45jxyaBOBOLvyFBZyQvdjYYZ+tSTMqQF30hTH+40Sx3O2Xp273lLalRSPssG5yYZrZvNr92Mr0pTW8/Y5KF9q1g+p1npZTCjk2cOVNgMQVf2rzY2WCcrfrNKKBsedEXgqX7pWCWxcTo8w3d9T93ynNMqj87NgnEmQKKKZyQVMBe7GwwztblYKh/6Uv8U5tF6rLM9+F1Jb6cqU8xFepKPuxyt92mh4rp83/4uvrJZqD6s2OTQJwpkJjCzkgqYC92Nhhn44Op85EXs77zj1me7LFkpUv0rrdGHGSZHJ/6FzyDMvUopvFFhybz/3BVMpkm5Ejah13udkk+vUlySTNb3yKzroqBHZsE4kwBxBR8adMBe7GzwTgbH0ydj7w4liw4dnkytWSFSxOH8G+UFBAHWSbHp/4Fz6BMPYhpbJ+Dk/knrTRpUpKB+Mj9S64IKqaGhBcSUNF5gbLBOBt/M+p8EHc+dY2kLsvaE1PXjKiYggmp8MV/oKLzAmWDqRtNWlfnA8Xsqg03LbPkPUbSwX+etS8mPEZirtpUKjQZgJiaEnSzPUgxffrktfnHKA+ekex4iTxG0sF/nrUgJgV+4PTzf0k3zSqBgssRE1PwzfagZ6aM6jdyWMTkIR0LLkdITK1stpuKqRbjv0Sdf8IwiIl0c8ZC3YiIqbXNdjgxkTfD+C9R558QxaQgPnqlHSGBNLjGYnI28mYY/zn7XPJk8qVVn7mEWwAFiP9BiQmPkSz8i+0m7S2pgHQsuGxbTA1pT0ggjTTcnsk/kZn/Hqj1T5C6LJPjq/ZeV+LLmUhdLdK+0G2IxdSukEAa6aDFhF9vY0KwzIqYTAzVkG7OWKgbUjEF+32kD1fuPdPpN3rGyiGr9rY4eejJyaIf/7sp73zzuWTL/d8zZZD792Oe+L1jzG9GWia/eWYydeIV8mq4wH2j7b/8a3mVARugp1CMhboef5/Jf29U/7RuwfnrTx0/cEh+Q7LTX3ZPMxOhbmba9f7GZMeb2WMkSNuev0tqhg98Vco8QqKSPQH0PLC6FmamJgRf2gYppsx/xu7NbyWfPn5pMrN9q1iGgx0b7kp2vrwmDZTHr7IirG6IxBR0aZOiod9lDkvbvnpp+8d0aSO+6pa5zL8UpxYle373b5IFx2a/BYAvFHz25LWmbPsuvPhJk4PPnrrWfNxi/eOpgvnH2L4bzRcxrXNke12Y9922Hn1fcseePOZi86u6YPqjtO8j57sH7mwbtkRp/x6sLsAyZ5a2g4bl55EVTWYmD1LX7cyELwhgdrKwLxRo6p60xGdkpp/UwY+m9se+EIf2JfnQzUx90upV27CIiZHXVZ/ETvHX0aHa4NoMhZia0frlf89iqqP2hDQRUw29OuixvTONuJiCCWmGnQihiZi8rrUnhL8Z05s3pUuRPGLywcaCDxRdXZqw9Gmm0+XI1G16zvziSRn9Cyj2e3bWP5Yy0w8pXfYM6tgWZxphMQXbbH+wYqFxNMY2j0I3G/DJrxY325ux2U7xuhJf3W7AHcqQF6Wv1zg1EZtD6rLM9+F1Jb6caQAb8KkL1g3XZnuYZ6Y6H3lR+nqNUxOxOaQuy3wfXlfiy5kGMTNJ3i+t7JGaiMkTgWrvdSW+2hQTvlAwdfLKZGrJSnNbwEPaZ5nvo+SOGJRpAGJqQmub7WZiKqFsXjVp35aY8Esp5ssFJ69I5h9LhASkfZb5PlQxwzMo0wiJKZyQSFB9i4mh2ntd6bGlEFhMDmazSF2W+T68rsSXM42ImMLOSCSoZmIq9VXtva702FJoSUy18Utdlvk+vK7ElzONgJjCL20kqCZiqrtp6XWlx5ZCCDER5oyYGtLOHolE12TPFMUkDLGYggnJC4ZEN/piqmbUxdSUoDOSNxAysigmIMev8098OdMQiinYne33b8jubAMvRBJz1R3w+V89OVn8J/8mr4YXfGyCL2LysUmBIXVZJudAtfe6El/OFPAO+NQP1p06byjubKsxecMj462amXa+vzGZ2TZcD6Mx3OMndGxSYEhdlsk5UO29rsSXMw3RzBR2s60i9AZCRsbEhA8+tzxy6VCLaftLa+VRXl8Ili+amMItbX+ZL2167vRCJDFXLXPzFh+STCyu+S/Xja/q+Ls7thQYaV25Wj/MltdJDH34zzPfh9eV+HKmhsvc1A+xtC3pe2lrR0hARe8NhIys6VMDBXo+thSYKI3/EsqQF6Wv1zg1EZtD6rLM9+F1Jb6cqYGYmgqpnftIQI3JGx4Z75y5z+Q1Tk3E5pC6LPN9eF2JL2cKscz1SXtCAipCL1gSfRQT8H14XYkvZ+pTTE0JJqRKEahAvZjJIKKYgO/D60p8OdMAxBR0Ropiskhfr3FqIjaH1GWZ78PrSnw50yyLKfjSFsVkkb5e49REbA6pyzLfh9eV+HKmXsXUgFb2SFFMFunrNU5NxOaQuizzfXhdiS9nmiUxtbbZjmKySF+vcWoiNofUZZnvw+tKfDnTLIipNSGBKCaL9PUapyZic0hdlvk+vK7ElzO1LKZgQqo6IVFMFunrNU5NxOaQuizzfXhdiS9nqhFTU4LOSFFMCmXIi9LXa5yaiM0hdVnm+/C6El/O1JKYgi9tUUwKZciL0tdrnJqIzSF1Web78LoSX85Ucw77pZU9UhSTQhnyovT1GqcmYnNIXZb5PryuxJczBRZTa5vtKCaFMuRF6es1Tk3E5pC6LPN9eF2JL2cKKKbWhASimBTKkBelr9c4NRGbQ+qyzPfhdSW+nCmQmMIJiQQLopgUypAXpa/XODURm0Pqssz34XUlvpwpgJjCzkgkWBDFpFCGvCh9vcapidgcUpdlvg+vK/FFTH0R7MG239z7R/lDUVXyrHy/d0tejeeSHKP2AbJeUf69Q5Hj5KYuzyc9R3IeiH/avEShW10H4n+P02//s/H9jv2VvOyZYEKKfLHpRuiRSEeikCJBiEKKBCEKKRKEKKRIEKKQIkGIQooEodX7SO++++7XkORlcsIJJ6yXYmSO0aqQLr/88nUvvPDCUnmZrF69+oKlS5c+LC8jc4jWljbMRFpEoPw6MndoTUjr168/X4qORx999Cdbt25dLC8jc4jWhPTII4/8BPk+++zzf5dccsltxpjCBBYZfVoR0quvvnrce++9ZzbZ2BPpfVEU0tyklc32rbfeeh+WMZTtBvuss8563Yrr8ccfP+yAAw54A+UqIMaPP/7YLIP6ag927LWQY5k84ogjXjzxxBPXl68IsUeDaJG/8847X8PMiLbnnHPOz1CWZh7WP8rPP/+829PhGIi56mKhfIXaDXVXsTZ2G8OBBx74hj1+3bmrOm9V56OTv25pRUinnXba7/AmI9inn376S7Ddeeedqx944IHrUL7qqquu18sdQ1/xrVmz5nicgDvuuGO1FWOZc88992c33HDDpTiROFbVxn7//fd/4957711WPnk4yXX+LTj5OA5yMRkwNhxXXnbFhg0bvCeDEPfNN998X10cGOuVV155PfuDKJ83iOr++++/rup8wAfGU/UH0i3Blza8IXZDrYPD4KXo9k/dghnu+uuvf8ieXIgByVQKmAHRbvny5Rv0SSv/1cPHLbfccp+8dECo+s3DCUbfcn8IFceRl0HBGCCEchxl0aLdFVdcsa7ThQuEXb4FUx4PfGA8nXx1IviMhDccYkL5nnvuWaYDx5uMNwJl/LWUT5CGnQCIUYsTb/5ll11WOPEQ2HnnnWfa6VlHL7egvLyiDn+9iKl8skF5xinfE0MsSPKSgv52/OgLH6YiBX1xfuwbihhWrFhxaTnGu+66a7X+Q9U+QPm8VZ0PxGJXCND4Hh+EFCpt2bJl8XHHHTeDdOaZZ75erscUa+sxK5TrdYJAbFssOawNkvaJhBhYOx0bEvYerF1duu666x6y/XFc1qYqYQy270UXXbShHCfOh67XdTohbtsO6ZVXXjlO1+vzhnh1XTnhPbJtex1POQVd2h577DH3F79s2TJP3VrxdtbqBrYXsJRntaq2dT66pW4GrQMzif3rRxz469fxYIbRs2Xd/hEzlZ4x685jp3ixgZdiY4IKSQ+KTZOYWu3gyidvrlLeU919993eRv+1114zy52l0xKDK0gpDs2nBcGEhDXerv9Yl6v+GvRJGpaTUAZxYQaxCa/t2HoBfyzYFMvLhF3tAe27m1lPt+knrjYIJiQ9uxx55JEv4uSztHDhQjelYwbrtEGdTSAa3LrAhhWbUZvwGhthlKVpR6yI7MYYy5W+cq1Cn59RIpiQ1q1b55Y1CAQnn6XypXMve6U2saKxbzxmVbsfQep1j4WrKztbYBbGvTNTMUcJIiSIQV+C98IwCAlvuN0MAyxBTzzxxGG4fWETbqx2Kwb4sjM0liH4MxUV6FkId52lOFIEERKWLCmaKRx3bOuSvdsN8CYOep3X8WP56WYJqgICsksgu0Jj6Ksn/EHaWbEKfb70FdwgaSwkDFrvjzpdcQCcWN1u0LOS/kytfEXVC3iDsaTJS3qFxigvnZ3Oh67XV3CDpLGQ9KDqrtbK6L8kff9pEOiYqzb/+IOpmzlRjxuAdjapukKrQt87ws3BqlkJy6aOo5s/3NkgqJDYTcgq9AnASRvkrKRnDcyuer8EYeH12Wef/XpdjLiIsPtE/EHh4xb0q0umo6CfSoAf3N1GLFbYWH5xDH3liD1bkxk0JBOS9wUGqfcXvfx12OXNvjnwM6i/LuyJMCvav3R7BWcqFWinl3GNnkEgBNa/jJ6FcD6wFNpbBvBRvsLVIJa6O+CzTaMZqd9lzaKXN7xBVdP5bIA3sWrjCoHjQ2bMGmJqBZw/HKdus4/zjJmo05XgbNPqt0hGEcyy2HzbJwEOP/zwF/VGeLbAHxVmab1nQzzDcpVWJgopEoQg95EikSikSBCikCJBiEKKBCEKKRKEKKRIEKKQIkGIQooEIQopEoSRv7ONjxD0xwi90O3HH/gwV384renmYwv9cYd+9gnPEg3zxx69MPJCwuMY3XzSzih/E1iDNx9PBODr5fbxkCrsJ/cQhZgM1gdirPtAGjGUv1U7asSljYAZCM8DQaCdRAQgEvsLIBY8GYFnmOCjTkQAs5X+uvYoEoVUAiLCM0HdCKiOXh+LQVv9mO6oMSeXNjzP080ygeeMdDu8mZhFmADsg3hlv9jz4JsfK1euvFQvk/jqld1X4RkiPD2Kpc/uySA09sQlvhgxiMdWGgMhjXIq/4gEEt5c1rZT0j/koFM/P7CAH3PAjzRgj8XqkbB8lo/Vb+yDTnFpE3BFxR6jxZOI/TzSillx7dq1tU87DurR4jaIQhLYMoOlqk4IdUAknZaoUd5cl4lCEvT9HUvbM4b+mrsF97akOFLMSSHZG4hVic0E5Z+WAW1++RDLaPnKELPfSG60U76QNyTZjcjjjz/eOxH4erkUg8KuDiEgfINkVG9KxqVtAOB3NsuzIjb08c52pGvwpUcsr/LSgL3YMH3ZsR++kDck2Y3F2VjaWKy4SYnP6UZ1b2SZk0Kq+zC2Cvsj8/LS0OknnHsBm+vyV7Bxxxv3mkZdRCAubQK77La/BdAUJiKI57bbbuv420mjQhSSwC712U3KXqkSEXvsZJSJQhLYUohNMZZOedkzmNHKn+jbPdFcEhGIQhLwxjIxYf+FVPcUJurKy6B9HEXvu+aqiMCc3GzjjermZ4bx8zD6TWVvvsb6RW6FgzviaA8RYpMPG4TFHlTrN65R4At5Z9vCru7YnqYbtJCwJOJ5JFPRB/1cdQ6auLSVwD0ovJG4NBdTpAuikAiYDXB/p9slBm3m0rNF/TDyS9tsgL0O9kJ4pNY+5I8747iMH9Qvug0bUUiRIMSlLRKEKKRIEKKQIkGIQooEIQopEoAk+X+sceH62TnJ/AAAAABJRU5ErkJggg==;" vertex="1" parent="1">
          <mxGeometry x="299.90999999999997" y="182" width="28.74" height="38" as="geometry" />
        </mxCell>
      </root>
    </mxGraphModel>
  </diagram>
</mxfile>
